solid QTR8RC MODEL GOOD TOP
facet normal 0.38268343236508995 -0.9238795325112867 0.0
  outer loop
    vertex 112.54284411139045 8.312761279019387 23.38240373538083
    vertex 112.05276441103877 8.109763620489979 20.84240373538083
    vertex 112.54284411139045 8.312761279019387 20.84240373538083
  endloop
endfacet
facet normal 0.38268343236508995 -0.9238795325112867 0.0
  outer loop
    vertex 112.05276441103877 8.109763620489979 20.84240373538083
    vertex 112.54284411139045 8.312761279019387 23.38240373538083
    vertex 112.05276441103877 8.109763620489979 23.38240373538083
  endloop
endfacet
facet normal -0.9914448613738087 -0.13052619222006412 -0.0
  outer loop
    vertex 115.03152569005816 6.875920299648323 23.38240373538083
    vertex 115.10076441103878 6.35 20.84240373538083
    vertex 115.10076441103878 6.35 23.38240373538083
  endloop
endfacet
facet normal -0.9914448613738087 -0.13052619222006412 -0.0
  outer loop
    vertex 115.10076441103878 6.35 20.84240373538083
    vertex 115.03152569005816 6.875920299648323 23.38240373538083
    vertex 115.03152569005816 6.875920299648323 20.84240373538083
  endloop
endfacet
facet normal -0.38268343236508995 -0.9238795325112867 -0.0
  outer loop
    vertex 114.08476441103878 8.109763620489979 23.38240373538083
    vertex 113.59468471068709 8.312761279019387 20.84240373538083
    vertex 114.08476441103878 8.109763620489979 20.84240373538083
  endloop
endfacet
facet normal -0.38268343236508995 -0.9238795325112867 -0.0
  outer loop
    vertex 113.59468471068709 8.312761279019387 20.84240373538083
    vertex 114.08476441103878 8.109763620489979 23.38240373538083
    vertex 113.59468471068709 8.312761279019387 23.38240373538083
  endloop
endfacet
facet normal 0.1305261922200514 -0.9914448613738105 0.0
  outer loop
    vertex 113.06876441103877 8.382 23.38240373538083
    vertex 112.54284411139045 8.312761279019387 20.84240373538083
    vertex 113.06876441103877 8.382 20.84240373538083
  endloop
endfacet
facet normal 0.1305261922200514 -0.9914448613738105 0.0
  outer loop
    vertex 112.54284411139045 8.312761279019387 20.84240373538083
    vertex 113.06876441103877 8.382 23.38240373538083
    vertex 112.54284411139045 8.312761279019387 23.38240373538083
  endloop
endfacet
facet normal -0.6087614290087255 -0.7933533402912316 -0.0
  outer loop
    vertex 114.50560539040984 7.786840979371065 23.38240373538083
    vertex 114.08476441103878 8.109763620489979 20.84240373538083
    vertex 114.50560539040984 7.786840979371065 20.84240373538083
  endloop
endfacet
facet normal -0.6087614290087255 -0.7933533402912316 -0.0
  outer loop
    vertex 114.08476441103878 8.109763620489979 20.84240373538083
    vertex 114.50560539040984 7.786840979371065 23.38240373538083
    vertex 114.08476441103878 8.109763620489979 23.38240373538083
  endloop
endfacet
facet normal 0.6087614290087255 -0.7933533402912316 0.0
  outer loop
    vertex 112.05276441103877 8.109763620489979 23.38240373538083
    vertex 111.63192343166773 7.786840979371065 20.84240373538083
    vertex 112.05276441103877 8.109763620489979 20.84240373538083
  endloop
endfacet
facet normal 0.6087614290087255 -0.7933533402912316 0.0
  outer loop
    vertex 111.63192343166773 7.786840979371065 20.84240373538083
    vertex 112.05276441103877 8.109763620489979 23.38240373538083
    vertex 111.63192343166773 7.786840979371065 23.38240373538083
  endloop
endfacet
facet normal -0.1305261922200514 -0.9914448613738105 -0.0
  outer loop
    vertex 113.59468471068709 8.312761279019387 23.38240373538083
    vertex 113.06876441103877 8.382 20.84240373538083
    vertex 113.59468471068709 8.312761279019387 20.84240373538083
  endloop
endfacet
facet normal -0.1305261922200514 -0.9914448613738105 -0.0
  outer loop
    vertex 113.06876441103877 8.382 20.84240373538083
    vertex 113.59468471068709 8.312761279019387 23.38240373538083
    vertex 113.06876441103877 8.382 23.38240373538083
  endloop
endfacet
facet normal -0.7933533402912328 -0.6087614290087237 -0.0
  outer loop
    vertex 114.50560539040984 7.786840979371065 23.38240373538083
    vertex 114.82852803152876 7.3660000000000005 20.84240373538083
    vertex 114.82852803152876 7.3660000000000005 23.38240373538083
  endloop
endfacet
facet normal -0.7933533402912328 -0.6087614290087237 -0.0
  outer loop
    vertex 114.82852803152876 7.3660000000000005 20.84240373538083
    vertex 114.50560539040984 7.786840979371065 23.38240373538083
    vertex 114.50560539040984 7.786840979371065 20.84240373538083
  endloop
endfacet
facet normal -0.9238795325112882 -0.38268343236508634 -0.0
  outer loop
    vertex 114.82852803152876 7.3660000000000005 23.38240373538083
    vertex 115.03152569005816 6.875920299648323 20.84240373538083
    vertex 115.03152569005816 6.875920299648323 23.38240373538083
  endloop
endfacet
facet normal -0.9238795325112882 -0.38268343236508634 -0.0
  outer loop
    vertex 115.03152569005816 6.875920299648323 20.84240373538083
    vertex 114.82852803152876 7.3660000000000005 23.38240373538083
    vertex 114.82852803152876 7.3660000000000005 20.84240373538083
  endloop
endfacet
facet normal 0.0 0.0 1.0
  outer loop
    vertex 104.81376441103878 -3.048 23.38240373538083
    vertex 111.30900079054881 5.3340000000000005 23.38240373538083
    vertex 104.81376441103878 15.748 23.38240373538083
  endloop
endfacet
facet normal 0.0 0.0 1.0
  outer loop
    vertex 111.30900079054881 5.3340000000000005 23.38240373538083
    vertex 104.81376441103878 -3.048 23.38240373538083
    vertex 111.63192343166773 4.913159020628934 23.38240373538083
  endloop
endfacet
facet normal 0.0 0.0 1.0
  outer loop
    vertex 111.63192343166773 4.913159020628934 23.38240373538083
    vertex 104.81376441103878 -3.048 23.38240373538083
    vertex 118.78376441103879 -3.048 23.38240373538083
  endloop
endfacet
facet normal 0.0 0.0 1.0
  outer loop
    vertex 104.81376441103878 15.748 23.38240373538083
    vertex 111.30900079054881 5.3340000000000005 23.38240373538083
    vertex 111.10600313201941 5.824079700351677 23.38240373538083
  endloop
endfacet
facet normal 0.0 0.0 1.0
  outer loop
    vertex 104.81376441103878 15.748 23.38240373538083
    vertex 111.10600313201941 5.824079700351677 23.38240373538083
    vertex 111.03676441103877 6.35 23.38240373538083
  endloop
endfacet
facet normal 0.0 0.0 1.0
  outer loop
    vertex 111.63192343166773 4.913159020628934 23.38240373538083
    vertex 118.78376441103879 -3.048 23.38240373538083
    vertex 112.05276441103877 4.590236379510021 23.38240373538083
  endloop
endfacet
facet normal 0.0 0.0 1.0
  outer loop
    vertex 112.05276441103877 4.590236379510021 23.38240373538083
    vertex 118.78376441103879 -3.048 23.38240373538083
    vertex 112.54284411139045 4.387238720980612 23.38240373538083
  endloop
endfacet
facet normal 0.0 0.0 1.0
  outer loop
    vertex 112.54284411139045 4.387238720980612 23.38240373538083
    vertex 118.78376441103879 -3.048 23.38240373538083
    vertex 113.06876441103877 4.318 23.38240373538083
  endloop
endfacet
facet normal 0.0 0.0 1.0
  outer loop
    vertex 113.06876441103877 4.318 23.38240373538083
    vertex 118.78376441103879 -3.048 23.38240373538083
    vertex 113.59468471068709 4.387238720980612 23.38240373538083
  endloop
endfacet
facet normal 0.0 0.0 1.0
  outer loop
    vertex 113.59468471068709 4.387238720980612 23.38240373538083
    vertex 118.78376441103879 -3.048 23.38240373538083
    vertex 114.08476441103878 4.590236379510021 23.38240373538083
  endloop
endfacet
facet normal 0.0 0.0 1.0
  outer loop
    vertex 114.08476441103878 4.590236379510021 23.38240373538083
    vertex 118.78376441103879 -3.048 23.38240373538083
    vertex 114.50560539040984 4.913159020628936 23.38240373538083
  endloop
endfacet
facet normal 0.0 0.0 1.0
  outer loop
    vertex 114.50560539040984 4.913159020628936 23.38240373538083
    vertex 118.78376441103879 -3.048 23.38240373538083
    vertex 114.82852803152876 5.334000000000001 23.38240373538083
  endloop
endfacet
facet normal 0.0 0.0 1.0
  outer loop
    vertex 114.82852803152876 5.334000000000001 23.38240373538083
    vertex 118.78376441103879 -3.048 23.38240373538083
    vertex 115.03152569005816 5.824079700351679 23.38240373538083
  endloop
endfacet
facet normal 0.0 0.0 1.0
  outer loop
    vertex 115.03152569005816 5.824079700351679 23.38240373538083
    vertex 118.78376441103879 -3.048 23.38240373538083
    vertex 115.10076441103878 6.35 23.38240373538083
  endloop
endfacet
facet normal 0.0 0.0 1.0
  outer loop
    vertex 104.81376441103878 15.748 23.38240373538083
    vertex 111.63192343166773 7.786840979371065 23.38240373538083
    vertex 118.78376441103879 15.748 23.38240373538083
  endloop
endfacet
facet normal 0.0 0.0 1.0
  outer loop
    vertex 111.63192343166773 7.786840979371065 23.38240373538083
    vertex 104.81376441103878 15.748 23.38240373538083
    vertex 111.30900079054881 7.365999999999999 23.38240373538083
  endloop
endfacet
facet normal 0.0 0.0 1.0
  outer loop
    vertex 111.30900079054881 7.365999999999999 23.38240373538083
    vertex 104.81376441103878 15.748 23.38240373538083
    vertex 111.10600313201941 6.875920299648322 23.38240373538083
  endloop
endfacet
facet normal 0.0 0.0 1.0
  outer loop
    vertex 111.10600313201941 6.875920299648322 23.38240373538083
    vertex 104.81376441103878 15.748 23.38240373538083
    vertex 111.03676441103877 6.35 23.38240373538083
  endloop
endfacet
facet normal 0.0 0.0 1.0
  outer loop
    vertex 118.78376441103879 15.748 23.38240373538083
    vertex 111.63192343166773 7.786840979371065 23.38240373538083
    vertex 112.05276441103877 8.109763620489979 23.38240373538083
  endloop
endfacet
facet normal 0.0 0.0 1.0
  outer loop
    vertex 118.78376441103879 15.748 23.38240373538083
    vertex 112.05276441103877 8.109763620489979 23.38240373538083
    vertex 112.54284411139045 8.312761279019387 23.38240373538083
  endloop
endfacet
facet normal 0.0 0.0 1.0
  outer loop
    vertex 118.78376441103879 15.748 23.38240373538083
    vertex 112.54284411139045 8.312761279019387 23.38240373538083
    vertex 113.06876441103877 8.382 23.38240373538083
  endloop
endfacet
facet normal 0.0 0.0 1.0
  outer loop
    vertex 118.78376441103879 15.748 23.38240373538083
    vertex 113.06876441103877 8.382 23.38240373538083
    vertex 113.59468471068709 8.312761279019387 23.38240373538083
  endloop
endfacet
facet normal 0.0 0.0 1.0
  outer loop
    vertex 118.78376441103879 15.748 23.38240373538083
    vertex 113.59468471068709 8.312761279019387 23.38240373538083
    vertex 114.08476441103878 8.109763620489979 23.38240373538083
  endloop
endfacet
facet normal 0.0 0.0 1.0
  outer loop
    vertex 118.78376441103879 15.748 23.38240373538083
    vertex 114.08476441103878 8.109763620489979 23.38240373538083
    vertex 114.50560539040984 7.786840979371065 23.38240373538083
  endloop
endfacet
facet normal 0.0 0.0 1.0
  outer loop
    vertex 118.78376441103879 15.748 23.38240373538083
    vertex 114.50560539040984 7.786840979371065 23.38240373538083
    vertex 114.82852803152876 7.3660000000000005 23.38240373538083
  endloop
endfacet
facet normal 0.0 0.0 1.0
  outer loop
    vertex 118.78376441103879 15.748 23.38240373538083
    vertex 114.82852803152876 7.3660000000000005 23.38240373538083
    vertex 115.03152569005816 6.875920299648323 23.38240373538083
  endloop
endfacet
facet normal 0.0 0.0 1.0
  outer loop
    vertex 118.78376441103879 15.748 23.38240373538083
    vertex 115.03152569005816 6.875920299648323 23.38240373538083
    vertex 115.10076441103878 6.35 23.38240373538083
  endloop
endfacet
facet normal 0.0 0.0 1.0
  outer loop
    vertex 118.78376441103879 15.748 23.38240373538083
    vertex 115.10076441103878 6.35 23.38240373538083
    vertex 118.78376441103879 -3.048 23.38240373538083
  endloop
endfacet
facet normal 0.9238795325112873 -0.3826834323650886 -4.129018804987259e-32
  outer loop
    vertex 18.853000790548787 7.365999999999998 20.84240373538083
    vertex 18.650003132019382 6.87592029964832 23.38240373538083
    vertex 18.650003132019382 6.87592029964832 20.84240373538083
  endloop
endfacet
facet normal 0.9238795325112873 -0.3826834323650886 -4.129018804987259e-32
  outer loop
    vertex 18.650003132019382 6.87592029964832 23.38240373538083
    vertex 18.853000790548787 7.365999999999998 20.84240373538083
    vertex 18.853000790548787 7.365999999999998 23.38240373538083
  endloop
endfacet
facet normal 0.793353340291236 -0.6087614290087194 -2.963413182723683e-32
  outer loop
    vertex 19.175923431667705 7.786840979371065 20.84240373538083
    vertex 18.853000790548787 7.365999999999998 23.38240373538083
    vertex 18.853000790548787 7.365999999999998 20.84240373538083
  endloop
endfacet
facet normal 0.793353340291236 -0.6087614290087194 -2.963413182723683e-32
  outer loop
    vertex 18.853000790548787 7.365999999999998 23.38240373538083
    vertex 19.175923431667705 7.786840979371065 20.84240373538083
    vertex 19.175923431667705 7.786840979371065 23.38240373538083
  endloop
endfacet
facet normal 0.6087614290087203 -0.7933533402912354 -1.595855849329313e-32
  outer loop
    vertex 19.59676441103877 8.109763620489979 23.38240373538083
    vertex 19.175923431667705 7.786840979371065 20.84240373538083
    vertex 19.59676441103877 8.109763620489979 20.84240373538083
  endloop
endfacet
facet normal 0.6087614290087203 -0.7933533402912354 -1.595855849329313e-32
  outer loop
    vertex 19.175923431667705 7.786840979371065 20.84240373538083
    vertex 19.59676441103877 8.109763620489979 23.38240373538083
    vertex 19.175923431667705 7.786840979371065 23.38240373538083
  endloop
endfacet
facet normal 0.13052619222005107 -0.9914448613738105 1.3649153923929e-32
  outer loop
    vertex 20.612764411038768 8.382 23.38240373538083
    vertex 20.086844111390445 8.312761279019387 20.84240373538083
    vertex 20.612764411038768 8.382 20.84240373538083
  endloop
endfacet
facet normal 0.13052619222005107 -0.9914448613738105 1.3649153923929e-32
  outer loop
    vertex 20.086844111390445 8.312761279019387 20.84240373538083
    vertex 20.612764411038768 8.382 23.38240373538083
    vertex 20.086844111390445 8.312761279019387 23.38240373538083
  endloop
endfacet
facet normal 0.38268343236509095 -0.9238795325112864 -1.1954357707965399e-33
  outer loop
    vertex 20.086844111390445 8.312761279019387 23.38240373538083
    vertex 19.59676441103877 8.109763620489979 20.84240373538083
    vertex 20.086844111390445 8.312761279019387 20.84240373538083
  endloop
endfacet
facet normal 0.38268343236509095 -0.9238795325112864 -1.1954357707965399e-33
  outer loop
    vertex 19.59676441103877 8.109763620489979 20.84240373538083
    vertex 20.086844111390445 8.312761279019387 23.38240373538083
    vertex 19.59676441103877 8.109763620489979 23.38240373538083
  endloop
endfacet
facet normal -1.0 0.0 5.330126534161428e-32
  outer loop
    vertex 14.897764411038768 15.748 23.38240373538083
    vertex 14.897764411038768 -3.048 20.84240373538083
    vertex 14.897764411038768 -3.048 23.38240373538083
  endloop
endfacet
facet normal -1.0 0.0 5.330126534161428e-32
  outer loop
    vertex 14.897764411038768 -3.048 20.84240373538083
    vertex 14.897764411038768 15.748 23.38240373538083
    vertex 14.897764411038768 15.748 20.84240373538083
  endloop
endfacet
facet normal 0.9914448613738105 0.13052619222005124 -5.555814506315939e-32
  outer loop
    vertex 18.580764411038768 6.35 20.84240373538083
    vertex 18.650003132019382 5.824079700351676 23.38240373538083
    vertex 18.650003132019382 5.824079700351676 20.84240373538083
  endloop
endfacet
facet normal 0.9914448613738105 0.13052619222005124 -5.555814506315939e-32
  outer loop
    vertex 18.650003132019382 5.824079700351676 23.38240373538083
    vertex 18.580764411038768 6.35 20.84240373538083
    vertex 18.580764411038768 6.35 23.38240373538083
  endloop
endfacet
facet normal 0.9914448613738105 -0.1305261922200516 -5.013238619217153e-32
  outer loop
    vertex 18.650003132019382 6.87592029964832 20.84240373538083
    vertex 18.580764411038768 6.35 23.38240373538083
    vertex 18.580764411038768 6.35 20.84240373538083
  endloop
endfacet
facet normal 0.9914448613738105 -0.1305261922200516 -5.013238619217153e-32
  outer loop
    vertex 18.580764411038768 6.35 23.38240373538083
    vertex 18.650003132019382 6.87592029964832 20.84240373538083
    vertex 18.650003132019382 6.87592029964832 23.38240373538083
  endloop
endfacet
facet normal -0.6087614290087203 0.7933533402912354 1.595855849329313e-32
  outer loop
    vertex 21.62876441103877 4.590236379510021 23.38240373538083
    vertex 22.049605390409834 4.913159020628934 20.84240373538083
    vertex 21.62876441103877 4.590236379510021 20.84240373538083
  endloop
endfacet
facet normal -0.6087614290087203 0.7933533402912354 1.595855849329313e-32
  outer loop
    vertex 22.049605390409834 4.913159020628934 20.84240373538083
    vertex 21.62876441103877 4.590236379510021 23.38240373538083
    vertex 22.049605390409834 4.913159020628934 23.38240373538083
  endloop
endfacet
facet normal 0.13052619222005177 0.9914448613738105 -2.756357633503202e-32
  outer loop
    vertex 20.086844111390448 4.387238720980612 23.38240373538083
    vertex 20.612764411038768 4.318 20.84240373538083
    vertex 20.086844111390448 4.387238720980612 20.84240373538083
  endloop
endfacet
facet normal 0.13052619222005177 0.9914448613738105 -2.756357633503202e-32
  outer loop
    vertex 20.612764411038768 4.318 20.84240373538083
    vertex 20.086844111390448 4.387238720980612 23.38240373538083
    vertex 20.612764411038768 4.318 23.38240373538083
  endloop
endfacet
facet normal 0.0 0.0 1.0
  outer loop
    vertex 14.897764411038768 -3.048 23.38240373538083
    vertex 18.650003132019382 5.824079700351676 23.38240373538083
    vertex 14.897764411038768 15.748 23.38240373538083
  endloop
endfacet
facet normal 0.0 0.0 1.0
  outer loop
    vertex 18.650003132019382 5.824079700351676 23.38240373538083
    vertex 14.897764411038768 -3.048 23.38240373538083
    vertex 18.853000790548787 5.333999999999999 23.38240373538083
  endloop
endfacet
facet normal 0.0 0.0 1.0
  outer loop
    vertex 18.853000790548787 5.333999999999999 23.38240373538083
    vertex 14.897764411038768 -3.048 23.38240373538083
    vertex 19.175923431667705 4.913159020628934 23.38240373538083
  endloop
endfacet
facet normal 0.0 0.0 1.0
  outer loop
    vertex 19.175923431667705 4.913159020628934 23.38240373538083
    vertex 14.897764411038768 -3.048 23.38240373538083
    vertex 28.867764411038767 -3.048 23.38240373538083
  endloop
endfacet
facet normal 0.0 0.0 1.0
  outer loop
    vertex 14.897764411038768 15.748 23.38240373538083
    vertex 18.650003132019382 5.824079700351676 23.38240373538083
    vertex 18.580764411038768 6.35 23.38240373538083
  endloop
endfacet
facet normal 0.0 0.0 1.0
  outer loop
    vertex 19.175923431667705 4.913159020628934 23.38240373538083
    vertex 28.867764411038767 -3.048 23.38240373538083
    vertex 19.59676441103877 4.590236379510021 23.38240373538083
  endloop
endfacet
facet normal 0.0 0.0 1.0
  outer loop
    vertex 19.59676441103877 4.590236379510021 23.38240373538083
    vertex 28.867764411038767 -3.048 23.38240373538083
    vertex 20.086844111390448 4.387238720980612 23.38240373538083
  endloop
endfacet
facet normal 0.0 0.0 1.0
  outer loop
    vertex 20.086844111390448 4.387238720980612 23.38240373538083
    vertex 28.867764411038767 -3.048 23.38240373538083
    vertex 20.612764411038768 4.318 23.38240373538083
  endloop
endfacet
facet normal 0.0 0.0 1.0
  outer loop
    vertex 20.612764411038768 4.318 23.38240373538083
    vertex 28.867764411038767 -3.048 23.38240373538083
    vertex 21.13868471068709 4.387238720980612 23.38240373538083
  endloop
endfacet
facet normal 0.0 0.0 1.0
  outer loop
    vertex 21.13868471068709 4.387238720980612 23.38240373538083
    vertex 28.867764411038767 -3.048 23.38240373538083
    vertex 21.62876441103877 4.590236379510021 23.38240373538083
  endloop
endfacet
facet normal 0.0 0.0 1.0
  outer loop
    vertex 21.62876441103877 4.590236379510021 23.38240373538083
    vertex 28.867764411038767 -3.048 23.38240373538083
    vertex 22.049605390409834 4.913159020628934 23.38240373538083
  endloop
endfacet
facet normal 0.0 0.0 1.0
  outer loop
    vertex 22.049605390409834 4.913159020628934 23.38240373538083
    vertex 28.867764411038767 -3.048 23.38240373538083
    vertex 22.372528031528745 5.3340000000000005 23.38240373538083
  endloop
endfacet
facet normal 0.0 0.0 1.0
  outer loop
    vertex 22.372528031528745 5.3340000000000005 23.38240373538083
    vertex 28.867764411038767 -3.048 23.38240373538083
    vertex 22.575525690058157 5.824079700351677 23.38240373538083
  endloop
endfacet
facet normal 0.0 0.0 1.0
  outer loop
    vertex 22.575525690058157 5.824079700351677 23.38240373538083
    vertex 28.867764411038767 -3.048 23.38240373538083
    vertex 22.644764411038768 6.35 23.38240373538083
  endloop
endfacet
facet normal 0.0 0.0 1.0
  outer loop
    vertex 14.897764411038768 15.748 23.38240373538083
    vertex 19.175923431667705 7.786840979371065 23.38240373538083
    vertex 28.867764411038767 15.748 23.38240373538083
  endloop
endfacet
facet normal 0.0 0.0 1.0
  outer loop
    vertex 19.175923431667705 7.786840979371065 23.38240373538083
    vertex 14.897764411038768 15.748 23.38240373538083
    vertex 18.853000790548787 7.365999999999998 23.38240373538083
  endloop
endfacet
facet normal 0.0 0.0 1.0
  outer loop
    vertex 18.853000790548787 7.365999999999998 23.38240373538083
    vertex 14.897764411038768 15.748 23.38240373538083
    vertex 18.650003132019382 6.87592029964832 23.38240373538083
  endloop
endfacet
facet normal 0.0 0.0 1.0
  outer loop
    vertex 18.650003132019382 6.87592029964832 23.38240373538083
    vertex 14.897764411038768 15.748 23.38240373538083
    vertex 18.580764411038768 6.35 23.38240373538083
  endloop
endfacet
facet normal 0.0 0.0 1.0
  outer loop
    vertex 28.867764411038767 15.748 23.38240373538083
    vertex 19.175923431667705 7.786840979371065 23.38240373538083
    vertex 19.59676441103877 8.109763620489979 23.38240373538083
  endloop
endfacet
facet normal 0.0 0.0 1.0
  outer loop
    vertex 28.867764411038767 15.748 23.38240373538083
    vertex 19.59676441103877 8.109763620489979 23.38240373538083
    vertex 20.086844111390445 8.312761279019387 23.38240373538083
  endloop
endfacet
facet normal 0.0 0.0 1.0
  outer loop
    vertex 28.867764411038767 15.748 23.38240373538083
    vertex 20.086844111390445 8.312761279019387 23.38240373538083
    vertex 20.612764411038768 8.382 23.38240373538083
  endloop
endfacet
facet normal 0.0 0.0 1.0
  outer loop
    vertex 28.867764411038767 15.748 23.38240373538083
    vertex 20.612764411038768 8.382 23.38240373538083
    vertex 21.13868471068709 8.312761279019387 23.38240373538083
  endloop
endfacet
facet normal 0.0 0.0 1.0
  outer loop
    vertex 28.867764411038767 15.748 23.38240373538083
    vertex 21.13868471068709 8.312761279019387 23.38240373538083
    vertex 21.628764411038766 8.109763620489979 23.38240373538083
  endloop
endfacet
facet normal 0.0 0.0 1.0
  outer loop
    vertex 28.867764411038767 15.748 23.38240373538083
    vertex 21.628764411038766 8.109763620489979 23.38240373538083
    vertex 22.049605390409834 7.786840979371065 23.38240373538083
  endloop
endfacet
facet normal 0.0 0.0 1.0
  outer loop
    vertex 28.867764411038767 15.748 23.38240373538083
    vertex 22.049605390409834 7.786840979371065 23.38240373538083
    vertex 22.372528031528745 7.3660000000000005 23.38240373538083
  endloop
endfacet
facet normal 0.0 0.0 1.0
  outer loop
    vertex 28.867764411038767 15.748 23.38240373538083
    vertex 22.372528031528745 7.3660000000000005 23.38240373538083
    vertex 22.575525690058157 6.875920299648322 23.38240373538083
  endloop
endfacet
facet normal 0.0 0.0 1.0
  outer loop
    vertex 28.867764411038767 15.748 23.38240373538083
    vertex 22.575525690058157 6.875920299648322 23.38240373538083
    vertex 22.644764411038768 6.35 23.38240373538083
  endloop
endfacet
facet normal 0.0 0.0 1.0
  outer loop
    vertex 28.867764411038767 15.748 23.38240373538083
    vertex 22.644764411038768 6.35 23.38240373538083
    vertex 28.867764411038767 -3.048 23.38240373538083
  endloop
endfacet
facet normal -0.6087614290087191 -0.7933533402912365 4.8936950421375e-32
  outer loop
    vertex 22.049605390409834 7.786840979371065 23.38240373538083
    vertex 21.628764411038766 8.109763620489979 20.84240373538083
    vertex 22.049605390409834 7.786840979371065 20.84240373538083
  endloop
endfacet
facet normal -0.6087614290087191 -0.7933533402912365 4.8936950421375e-32
  outer loop
    vertex 21.628764411038766 8.109763620489979 20.84240373538083
    vertex 22.049605390409834 7.786840979371065 23.38240373538083
    vertex 21.628764411038766 8.109763620489979 23.38240373538083
  endloop
endfacet
facet normal -0.9914448613738105 0.1305261922200514 5.013238619217153e-32
  outer loop
    vertex 22.644764411038768 6.35 23.38240373538083
    vertex 22.575525690058157 5.824079700351677 20.84240373538083
    vertex 22.575525690058157 5.824079700351677 23.38240373538083
  endloop
endfacet
facet normal -0.9914448613738105 0.1305261922200514 5.013238619217153e-32
  outer loop
    vertex 22.575525690058157 5.824079700351677 20.84240373538083
    vertex 22.644764411038768 6.35 23.38240373538083
    vertex 22.644764411038768 6.35 20.84240373538083
  endloop
endfacet
facet normal 0.3826834323650888 0.9238795325112872 -3.9599586569866186e-32
  outer loop
    vertex 19.59676441103877 4.590236379510021 23.38240373538083
    vertex 20.086844111390448 4.387238720980612 20.84240373538083
    vertex 19.59676441103877 4.590236379510021 20.84240373538083
  endloop
endfacet
facet normal 0.3826834323650888 0.9238795325112872 -3.9599586569866186e-32
  outer loop
    vertex 20.086844111390448 4.387238720980612 20.84240373538083
    vertex 19.59676441103877 4.590236379510021 23.38240373538083
    vertex 20.086844111390448 4.387238720980612 23.38240373538083
  endloop
endfacet
facet normal -0.13052619222005107 0.9914448613738105 -1.3649153923929e-32
  outer loop
    vertex 20.612764411038768 4.318 23.38240373538083
    vertex 21.13868471068709 4.387238720980612 20.84240373538083
    vertex 20.612764411038768 4.318 20.84240373538083
  endloop
endfacet
facet normal -0.13052619222005107 0.9914448613738105 -1.3649153923929e-32
  outer loop
    vertex 21.13868471068709 4.387238720980612 20.84240373538083
    vertex 20.612764411038768 4.318 23.38240373538083
    vertex 21.13868471068709 4.387238720980612 23.38240373538083
  endloop
endfacet
facet normal -0.7933533402912354 -0.6087614290087203 5.49393419738015e-32
  outer loop
    vertex 22.049605390409834 7.786840979371065 23.38240373538083
    vertex 22.372528031528745 7.3660000000000005 20.84240373538083
    vertex 22.372528031528745 7.3660000000000005 23.38240373538083
  endloop
endfacet
facet normal -0.7933533402912354 -0.6087614290087203 5.49393419738015e-32
  outer loop
    vertex 22.372528031528745 7.3660000000000005 20.84240373538083
    vertex 22.049605390409834 7.786840979371065 23.38240373538083
    vertex 22.049605390409834 7.786840979371065 20.84240373538083
  endloop
endfacet
facet normal 0.7933533402912346 0.6087614290087213 -5.493934197380149e-32
  outer loop
    vertex 18.853000790548787 5.333999999999999 20.84240373538083
    vertex 19.175923431667705 4.913159020628934 23.38240373538083
    vertex 19.175923431667705 4.913159020628934 20.84240373538083
  endloop
endfacet
facet normal 0.7933533402912346 0.6087614290087213 -5.493934197380149e-32
  outer loop
    vertex 19.175923431667705 4.913159020628934 23.38240373538083
    vertex 18.853000790548787 5.333999999999999 20.84240373538083
    vertex 18.853000790548787 5.333999999999999 23.38240373538083
  endloop
endfacet
facet normal -0.1305261922200514 -0.9914448613738105 2.7563576335031997e-32
  outer loop
    vertex 21.13868471068709 8.312761279019387 23.38240373538083
    vertex 20.612764411038768 8.382 20.84240373538083
    vertex 21.13868471068709 8.312761279019387 20.84240373538083
  endloop
endfacet
facet normal -0.1305261922200514 -0.9914448613738105 2.7563576335031997e-32
  outer loop
    vertex 20.612764411038768 8.382 20.84240373538083
    vertex 21.13868471068709 8.312761279019387 23.38240373538083
    vertex 20.612764411038768 8.382 23.38240373538083
  endloop
endfacet
facet normal -0.7933533402912365 0.6087614290087191 2.963413182723686e-32
  outer loop
    vertex 22.372528031528745 5.3340000000000005 23.38240373538083
    vertex 22.049605390409834 4.913159020628934 20.84240373538083
    vertex 22.049605390409834 4.913159020628934 23.38240373538083
  endloop
endfacet
facet normal -0.7933533402912365 0.6087614290087191 2.963413182723686e-32
  outer loop
    vertex 22.049605390409834 4.913159020628934 20.84240373538083
    vertex 22.372528031528745 5.3340000000000005 23.38240373538083
    vertex 22.372528031528745 5.3340000000000005 20.84240373538083
  endloop
endfacet
facet normal 0.9238795325112864 0.38268343236509095 -5.719770816226877e-32
  outer loop
    vertex 18.650003132019382 5.824079700351676 20.84240373538083
    vertex 18.853000790548787 5.333999999999999 23.38240373538083
    vertex 18.853000790548787 5.333999999999999 20.84240373538083
  endloop
endfacet
facet normal 0.9238795325112864 0.38268343236509095 -5.719770816226877e-32
  outer loop
    vertex 18.853000790548787 5.333999999999999 23.38240373538083
    vertex 18.650003132019382 5.824079700351676 20.84240373538083
    vertex 18.650003132019382 5.824079700351676 23.38240373538083
  endloop
endfacet
facet normal -0.9238795325112867 -0.38268343236508995 5.719770816226877e-32
  outer loop
    vertex 22.372528031528745 7.3660000000000005 23.38240373538083
    vertex 22.575525690058157 6.875920299648322 20.84240373538083
    vertex 22.575525690058157 6.875920299648322 23.38240373538083
  endloop
endfacet
facet normal -0.9238795325112867 -0.38268343236508995 5.719770816226877e-32
  outer loop
    vertex 22.575525690058157 6.875920299648322 20.84240373538083
    vertex 22.372528031528745 7.3660000000000005 23.38240373538083
    vertex 22.372528031528745 7.3660000000000005 20.84240373538083
  endloop
endfacet
facet normal 0.6087614290087203 0.7933533402912354 -4.8936950421375045e-32
  outer loop
    vertex 19.175923431667705 4.913159020628934 23.38240373538083
    vertex 19.59676441103877 4.590236379510021 20.84240373538083
    vertex 19.175923431667705 4.913159020628934 20.84240373538083
  endloop
endfacet
facet normal 0.6087614290087203 0.7933533402912354 -4.8936950421375045e-32
  outer loop
    vertex 19.59676441103877 4.590236379510021 20.84240373538083
    vertex 19.175923431667705 4.913159020628934 23.38240373538083
    vertex 19.59676441103877 4.590236379510021 23.38240373538083
  endloop
endfacet
facet normal -0.38268343236509095 0.9238795325112864 1.1954357707965399e-33
  outer loop
    vertex 21.13868471068709 4.387238720980612 23.38240373538083
    vertex 21.62876441103877 4.590236379510021 20.84240373538083
    vertex 21.13868471068709 4.387238720980612 20.84240373538083
  endloop
endfacet
facet normal -0.38268343236509095 0.9238795325112864 1.1954357707965399e-33
  outer loop
    vertex 21.62876441103877 4.590236379510021 20.84240373538083
    vertex 21.13868471068709 4.387238720980612 23.38240373538083
    vertex 21.62876441103877 4.590236379510021 23.38240373538083
  endloop
endfacet
facet normal 1.0 5.212976130854162e-18 2.312964634635742e-17
  outer loop
    vertex 28.867764411038767 13.208 17.540403735380828
    vertex 28.867764411038767 -0.5080000000000001 20.84240373538083
    vertex 28.867764411038767 -0.5080000000000001 17.540403735380828
  endloop
endfacet
facet normal 1.0 5.212976130854162e-18 2.312964634635742e-17
  outer loop
    vertex 28.867764411038767 -0.5080000000000001 20.84240373538083
    vertex 28.867764411038767 -3.048 23.38240373538083
    vertex 28.867764411038767 -3.048 20.84240373538083
  endloop
endfacet
facet normal 1.0 5.212976130854162e-18 2.312964634635742e-17
  outer loop
    vertex 28.867764411038767 -3.048 23.38240373538083
    vertex 28.867764411038767 -0.5080000000000001 20.84240373538083
    vertex 28.867764411038767 15.748 23.38240373538083
  endloop
endfacet
facet normal 1.0 5.212976130854162e-18 2.312964634635742e-17
  outer loop
    vertex 28.867764411038767 15.748 23.38240373538083
    vertex 28.867764411038767 -0.5080000000000001 20.84240373538083
    vertex 28.867764411038767 13.208 20.84240373538083
  endloop
endfacet
facet normal 1.0 5.212976130854162e-18 2.312964634635742e-17
  outer loop
    vertex 28.867764411038767 13.208 20.84240373538083
    vertex 28.867764411038767 -0.5080000000000001 20.84240373538083
    vertex 28.867764411038767 13.208 17.540403735380828
  endloop
endfacet
facet normal 1.0 5.212976130854162e-18 2.312964634635742e-17
  outer loop
    vertex 28.867764411038767 15.748 23.38240373538083
    vertex 28.867764411038767 13.208 20.84240373538083
    vertex 28.867764411038767 15.748 20.84240373538083
  endloop
endfacet
facet normal -0.38268343236509095 -0.9238795325112864 3.959958656986628e-32
  outer loop
    vertex 21.628764411038766 8.109763620489979 23.38240373538083
    vertex 21.13868471068709 8.312761279019387 20.84240373538083
    vertex 21.628764411038766 8.109763620489979 20.84240373538083
  endloop
endfacet
facet normal -0.38268343236509095 -0.9238795325112864 3.959958656986628e-32
  outer loop
    vertex 21.13868471068709 8.312761279019387 20.84240373538083
    vertex 21.628764411038766 8.109763620489979 23.38240373538083
    vertex 21.13868471068709 8.312761279019387 23.38240373538083
  endloop
endfacet
facet normal -0.9914448613738105 -0.1305261922200514 5.555814506315939e-32
  outer loop
    vertex 22.575525690058157 6.875920299648322 23.38240373538083
    vertex 22.644764411038768 6.35 20.84240373538083
    vertex 22.644764411038768 6.35 23.38240373538083
  endloop
endfacet
facet normal -0.9914448613738105 -0.1305261922200514 5.555814506315939e-32
  outer loop
    vertex 22.644764411038768 6.35 20.84240373538083
    vertex 22.575525690058157 6.875920299648322 23.38240373538083
    vertex 22.575525690058157 6.875920299648322 20.84240373538083
  endloop
endfacet
facet normal -0.9238795325112864 0.38268343236509095 4.1290188049872497e-32
  outer loop
    vertex 22.575525690058157 5.824079700351677 23.38240373538083
    vertex 22.372528031528745 5.3340000000000005 20.84240373538083
    vertex 22.372528031528745 5.3340000000000005 23.38240373538083
  endloop
endfacet
facet normal -0.9238795325112864 0.38268343236509095 4.1290188049872497e-32
  outer loop
    vertex 22.372528031528745 5.3340000000000005 20.84240373538083
    vertex 22.575525690058157 5.824079700351677 23.38240373538083
    vertex 22.575525690058157 5.824079700351677 20.84240373538083
  endloop
endfacet
facet normal -1.0 0.0 0.0
  outer loop
    vertex 26.327764411038764 15.748 20.84240373538083
    vertex 26.327764411038764 -3.048 15.762403735380829
    vertex 26.327764411038764 -3.048 20.84240373538083
  endloop
endfacet
facet normal -1.0 0.0 0.0
  outer loop
    vertex 26.327764411038764 -3.048 15.762403735380829
    vertex 26.327764411038764 15.748 20.84240373538083
    vertex 26.327764411038764 15.748 15.762403735380829
  endloop
endfacet
facet normal 0.0 0.0 1.0
  outer loop
    vertex 104.81376441103878 13.208 20.84240373538083
    vertex 28.867764411038767 15.748 20.84240373538083
    vertex 28.867764411038767 13.208 20.84240373538083
  endloop
endfacet
facet normal 0.0 0.0 1.0
  outer loop
    vertex 28.867764411038767 15.748 20.84240373538083
    vertex 104.81376441103878 13.208 20.84240373538083
    vertex 104.81376441103878 15.748 20.84240373538083
  endloop
endfacet
facet normal 0.0 0.0 -1.0
  outer loop
    vertex 26.327764411038764 15.748 15.762403735380829
    vertex 30.64576441103877 11.937999999999999 15.762403735380829
    vertex 26.327764411038764 -3.048 15.762403735380829
  endloop
endfacet
facet normal 0.0 0.0 -1.0
  outer loop
    vertex 30.64576441103877 11.937999999999999 15.762403735380829
    vertex 26.327764411038764 15.748 15.762403735380829
    vertex 107.35376441103878 15.748 15.762403735380829
  endloop
endfacet
facet normal 0.0 0.0 -1.0
  outer loop
    vertex 30.64576441103877 11.937999999999999 15.762403735380829
    vertex 107.35376441103878 15.748 15.762403735380829
    vertex 103.03576441103878 11.937999999999999 15.762403735380829
  endloop
endfacet
facet normal 0.0 0.0 -1.0
  outer loop
    vertex 103.03576441103878 11.937999999999999 15.762403735380829
    vertex 107.35376441103878 15.748 15.762403735380829
    vertex 103.03576441103878 0.7620000000000002 15.762403735380829
  endloop
endfacet
facet normal 0.0 0.0 -1.0
  outer loop
    vertex 26.327764411038764 -3.048 15.762403735380829
    vertex 30.64576441103877 0.7620000000000002 15.762403735380829
    vertex 107.35376441103878 -3.048 15.762403735380829
  endloop
endfacet
facet normal 0.0 0.0 -1.0
  outer loop
    vertex 30.64576441103877 0.7620000000000002 15.762403735380829
    vertex 26.327764411038764 -3.048 15.762403735380829
    vertex 30.64576441103877 11.937999999999999 15.762403735380829
  endloop
endfacet
facet normal 0.0 0.0 -1.0
  outer loop
    vertex 107.35376441103878 -3.048 15.762403735380829
    vertex 30.64576441103877 0.7620000000000002 15.762403735380829
    vertex 103.03576441103878 0.7620000000000002 15.762403735380829
  endloop
endfacet
facet normal 0.0 0.0 -1.0
  outer loop
    vertex 107.35376441103878 -3.048 15.762403735380829
    vertex 103.03576441103878 0.7620000000000002 15.762403735380829
    vertex 107.35376441103878 15.748 15.762403735380829
  endloop
endfacet
facet normal 0.0 0.0 -1.0
  outer loop
    vertex 113.06876441103877 15.748 20.84240373538083
    vertex 107.35376441103878 -3.048 20.84240373538083
    vertex 107.35376441103878 15.748 20.84240373538083
  endloop
endfacet
facet normal 0.0 0.0 -1.0
  outer loop
    vertex 107.35376441103878 -3.048 20.84240373538083
    vertex 113.06876441103877 15.748 20.84240373538083
    vertex 111.10600313201941 6.875920299648322 20.84240373538083
  endloop
endfacet
facet normal 0.0 0.0 -1.0
  outer loop
    vertex 107.35376441103878 -3.048 20.84240373538083
    vertex 111.10600313201941 6.875920299648322 20.84240373538083
    vertex 111.03676441103877 6.35 20.84240373538083
  endloop
endfacet
facet normal 0.0 0.0 -1.0
  outer loop
    vertex 111.10600313201941 6.875920299648322 20.84240373538083
    vertex 113.06876441103877 15.748 20.84240373538083
    vertex 111.30900079054881 7.365999999999999 20.84240373538083
  endloop
endfacet
facet normal 0.0 0.0 -1.0
  outer loop
    vertex 111.30900079054881 7.365999999999999 20.84240373538083
    vertex 113.06876441103877 15.748 20.84240373538083
    vertex 111.63192343166773 7.786840979371065 20.84240373538083
  endloop
endfacet
facet normal 0.0 0.0 -1.0
  outer loop
    vertex 111.63192343166773 7.786840979371065 20.84240373538083
    vertex 113.06876441103877 15.748 20.84240373538083
    vertex 112.05276441103877 8.109763620489979 20.84240373538083
  endloop
endfacet
facet normal 0.0 0.0 -1.0
  outer loop
    vertex 112.05276441103877 8.109763620489979 20.84240373538083
    vertex 113.06876441103877 15.748 20.84240373538083
    vertex 112.54284411139045 8.312761279019387 20.84240373538083
  endloop
endfacet
facet normal 0.0 0.0 -1.0
  outer loop
    vertex 112.54284411139045 8.312761279019387 20.84240373538083
    vertex 113.06876441103877 15.748 20.84240373538083
    vertex 113.06876441103877 8.382 20.84240373538083
  endloop
endfacet
facet normal 0.0 0.0 -1.0
  outer loop
    vertex 113.06876441103877 8.382 20.84240373538083
    vertex 113.06876441103877 15.748 20.84240373538083
    vertex 118.78376441103879 15.748 20.84240373538083
  endloop
endfacet
facet normal 0.0 0.0 -1.0
  outer loop
    vertex 113.06876441103877 8.382 20.84240373538083
    vertex 118.78376441103879 15.748 20.84240373538083
    vertex 113.59468471068709 8.312761279019387 20.84240373538083
  endloop
endfacet
facet normal 0.0 0.0 -1.0
  outer loop
    vertex 113.59468471068709 8.312761279019387 20.84240373538083
    vertex 118.78376441103879 15.748 20.84240373538083
    vertex 114.08476441103878 8.109763620489979 20.84240373538083
  endloop
endfacet
facet normal 0.0 0.0 -1.0
  outer loop
    vertex 114.08476441103878 8.109763620489979 20.84240373538083
    vertex 118.78376441103879 15.748 20.84240373538083
    vertex 114.50560539040984 7.786840979371065 20.84240373538083
  endloop
endfacet
facet normal 0.0 0.0 -1.0
  outer loop
    vertex 114.50560539040984 7.786840979371065 20.84240373538083
    vertex 118.78376441103879 15.748 20.84240373538083
    vertex 114.82852803152876 7.3660000000000005 20.84240373538083
  endloop
endfacet
facet normal 0.0 0.0 -1.0
  outer loop
    vertex 114.82852803152876 7.3660000000000005 20.84240373538083
    vertex 118.78376441103879 15.748 20.84240373538083
    vertex 115.03152569005816 6.875920299648323 20.84240373538083
  endloop
endfacet
facet normal 0.0 0.0 -1.0
  outer loop
    vertex 115.03152569005816 6.875920299648323 20.84240373538083
    vertex 118.78376441103879 15.748 20.84240373538083
    vertex 115.10076441103878 6.35 20.84240373538083
  endloop
endfacet
facet normal 0.0 0.0 -1.0
  outer loop
    vertex 107.35376441103878 -3.048 20.84240373538083
    vertex 111.63192343166773 4.913159020628934 20.84240373538083
    vertex 118.78376441103879 -3.048 20.84240373538083
  endloop
endfacet
facet normal 0.0 0.0 -1.0
  outer loop
    vertex 111.63192343166773 4.913159020628934 20.84240373538083
    vertex 107.35376441103878 -3.048 20.84240373538083
    vertex 111.30900079054881 5.3340000000000005 20.84240373538083
  endloop
endfacet
facet normal 0.0 0.0 -1.0
  outer loop
    vertex 111.30900079054881 5.3340000000000005 20.84240373538083
    vertex 107.35376441103878 -3.048 20.84240373538083
    vertex 111.10600313201941 5.824079700351677 20.84240373538083
  endloop
endfacet
facet normal 0.0 0.0 -1.0
  outer loop
    vertex 111.10600313201941 5.824079700351677 20.84240373538083
    vertex 107.35376441103878 -3.048 20.84240373538083
    vertex 111.03676441103877 6.35 20.84240373538083
  endloop
endfacet
facet normal 0.0 0.0 -1.0
  outer loop
    vertex 118.78376441103879 -3.048 20.84240373538083
    vertex 111.63192343166773 4.913159020628934 20.84240373538083
    vertex 112.05276441103877 4.590236379510021 20.84240373538083
  endloop
endfacet
facet normal 0.0 0.0 -1.0
  outer loop
    vertex 118.78376441103879 -3.048 20.84240373538083
    vertex 112.05276441103877 4.590236379510021 20.84240373538083
    vertex 112.54284411139045 4.387238720980612 20.84240373538083
  endloop
endfacet
facet normal 0.0 0.0 -1.0
  outer loop
    vertex 118.78376441103879 -3.048 20.84240373538083
    vertex 112.54284411139045 4.387238720980612 20.84240373538083
    vertex 113.06876441103877 4.318 20.84240373538083
  endloop
endfacet
facet normal 0.0 0.0 -1.0
  outer loop
    vertex 118.78376441103879 -3.048 20.84240373538083
    vertex 113.06876441103877 4.318 20.84240373538083
    vertex 113.59468471068709 4.387238720980612 20.84240373538083
  endloop
endfacet
facet normal 0.0 0.0 -1.0
  outer loop
    vertex 118.78376441103879 -3.048 20.84240373538083
    vertex 113.59468471068709 4.387238720980612 20.84240373538083
    vertex 114.08476441103878 4.590236379510021 20.84240373538083
  endloop
endfacet
facet normal 0.0 0.0 -1.0
  outer loop
    vertex 118.78376441103879 -3.048 20.84240373538083
    vertex 114.08476441103878 4.590236379510021 20.84240373538083
    vertex 114.50560539040984 4.913159020628936 20.84240373538083
  endloop
endfacet
facet normal 0.0 0.0 -1.0
  outer loop
    vertex 118.78376441103879 -3.048 20.84240373538083
    vertex 114.50560539040984 4.913159020628936 20.84240373538083
    vertex 114.82852803152876 5.334000000000001 20.84240373538083
  endloop
endfacet
facet normal 0.0 0.0 -1.0
  outer loop
    vertex 118.78376441103879 -3.048 20.84240373538083
    vertex 114.82852803152876 5.334000000000001 20.84240373538083
    vertex 115.03152569005816 5.824079700351679 20.84240373538083
  endloop
endfacet
facet normal 0.0 0.0 -1.0
  outer loop
    vertex 118.78376441103879 -3.048 20.84240373538083
    vertex 115.03152569005816 5.824079700351679 20.84240373538083
    vertex 115.10076441103878 6.35 20.84240373538083
  endloop
endfacet
facet normal 0.0 0.0 -1.0
  outer loop
    vertex 118.78376441103879 -3.048 20.84240373538083
    vertex 115.10076441103878 6.35 20.84240373538083
    vertex 118.78376441103879 15.748 20.84240373538083
  endloop
endfacet
facet normal 0.9914448613738087 -0.13052619222006445 0.0
  outer loop
    vertex 111.10600313201941 6.875920299648322 20.84240373538083
    vertex 111.03676441103877 6.35 23.38240373538083
    vertex 111.03676441103877 6.35 20.84240373538083
  endloop
endfacet
facet normal 0.9914448613738087 -0.13052619222006445 0.0
  outer loop
    vertex 111.03676441103877 6.35 23.38240373538083
    vertex 111.10600313201941 6.875920299648322 20.84240373538083
    vertex 111.10600313201941 6.875920299648322 23.38240373538083
  endloop
endfacet
facet normal 0.9238795325112882 -0.38268343236508634 0.0
  outer loop
    vertex 111.30900079054881 7.365999999999999 20.84240373538083
    vertex 111.10600313201941 6.875920299648322 23.38240373538083
    vertex 111.10600313201941 6.875920299648322 20.84240373538083
  endloop
endfacet
facet normal 0.9238795325112882 -0.38268343236508634 0.0
  outer loop
    vertex 111.10600313201941 6.875920299648322 23.38240373538083
    vertex 111.30900079054881 7.365999999999999 20.84240373538083
    vertex 111.30900079054881 7.365999999999999 23.38240373538083
  endloop
endfacet
facet normal 0.7933533402912339 -0.6087614290087224 0.0
  outer loop
    vertex 111.63192343166773 7.786840979371065 20.84240373538083
    vertex 111.30900079054881 7.365999999999999 23.38240373538083
    vertex 111.30900079054881 7.365999999999999 20.84240373538083
  endloop
endfacet
facet normal 0.7933533402912339 -0.6087614290087224 0.0
  outer loop
    vertex 111.30900079054881 7.365999999999999 23.38240373538083
    vertex 111.63192343166773 7.786840979371065 20.84240373538083
    vertex 111.63192343166773 7.786840979371065 23.38240373538083
  endloop
endfacet
facet normal -0.7933533402912339 0.6087614290087224 0.0
  outer loop
    vertex 114.82852803152876 5.334000000000001 23.38240373538083
    vertex 114.50560539040984 4.913159020628936 20.84240373538083
    vertex 114.50560539040984 4.913159020628936 23.38240373538083
  endloop
endfacet
facet normal -0.7933533402912339 0.6087614290087224 0.0
  outer loop
    vertex 114.50560539040984 4.913159020628936 20.84240373538083
    vertex 114.82852803152876 5.334000000000001 23.38240373538083
    vertex 114.82852803152876 5.334000000000001 20.84240373538083
  endloop
endfacet
facet normal -0.1305261922200514 0.9914448613738105 0.0
  outer loop
    vertex 113.06876441103877 4.318 23.38240373538083
    vertex 113.59468471068709 4.387238720980612 20.84240373538083
    vertex 113.06876441103877 4.318 20.84240373538083
  endloop
endfacet
facet normal -0.1305261922200514 0.9914448613738105 0.0
  outer loop
    vertex 113.59468471068709 4.387238720980612 20.84240373538083
    vertex 113.06876441103877 4.318 23.38240373538083
    vertex 113.59468471068709 4.387238720980612 23.38240373538083
  endloop
endfacet
facet normal 0.7933533402912334 0.608761429008723 0.0
  outer loop
    vertex 111.30900079054881 5.3340000000000005 20.84240373538083
    vertex 111.63192343166773 4.913159020628934 23.38240373538083
    vertex 111.63192343166773 4.913159020628934 20.84240373538083
  endloop
endfacet
facet normal 0.7933533402912334 0.608761429008723 0.0
  outer loop
    vertex 111.63192343166773 4.913159020628934 23.38240373538083
    vertex 111.30900079054881 5.3340000000000005 20.84240373538083
    vertex 111.30900079054881 5.3340000000000005 23.38240373538083
  endloop
endfacet
facet normal 9.283272587971311e-35 -1.0 1.777787219946851e-32
  outer loop
    vertex 107.35376441103878 -3.048 20.84240373538083
    vertex 26.327764411038764 -3.048 15.762403735380829
    vertex 107.35376441103878 -3.048 15.762403735380829
  endloop
endfacet
facet normal 9.283272587971311e-35 -1.0 1.777787219946851e-32
  outer loop
    vertex 26.327764411038764 -3.048 15.762403735380829
    vertex 107.35376441103878 -3.048 20.84240373538083
    vertex 26.327764411038764 -3.048 20.84240373538083
  endloop
endfacet
facet normal 9.283272587971311e-35 -1.0 1.777787219946851e-32
  outer loop
    vertex 26.327764411038764 -3.048 20.84240373538083
    vertex 107.35376441103878 -3.048 20.84240373538083
    vertex 104.81376441103878 -3.048 20.84240373538083
  endloop
endfacet
facet normal 9.283272587971311e-35 -1.0 1.777787219946851e-32
  outer loop
    vertex 26.327764411038764 -3.048 20.84240373538083
    vertex 104.81376441103878 -3.048 20.84240373538083
    vertex 28.867764411038767 -3.048 20.84240373538083
  endloop
endfacet
facet normal 9.283272587971311e-35 -1.0 1.777787219946851e-32
  outer loop
    vertex 26.327764411038764 -3.048 20.84240373538083
    vertex 28.867764411038767 -3.048 20.84240373538083
    vertex 28.867764411038767 -3.048 23.38240373538083
  endloop
endfacet
facet normal 9.283272587971311e-35 -1.0 1.777787219946851e-32
  outer loop
    vertex 26.327764411038764 -3.048 20.84240373538083
    vertex 28.867764411038767 -3.048 23.38240373538083
    vertex 14.897764411038768 -3.048 20.84240373538083
  endloop
endfacet
facet normal 9.283272587971311e-35 -1.0 1.777787219946851e-32
  outer loop
    vertex 14.897764411038768 -3.048 20.84240373538083
    vertex 28.867764411038767 -3.048 23.38240373538083
    vertex 14.897764411038768 -3.048 23.38240373538083
  endloop
endfacet
facet normal 9.283272587971311e-35 -1.0 1.777787219946851e-32
  outer loop
    vertex 118.78376441103879 -3.048 23.38240373538083
    vertex 107.35376441103878 -3.048 20.84240373538083
    vertex 118.78376441103879 -3.048 20.84240373538083
  endloop
endfacet
facet normal 9.283272587971311e-35 -1.0 1.777787219946851e-32
  outer loop
    vertex 107.35376441103878 -3.048 20.84240373538083
    vertex 118.78376441103879 -3.048 23.38240373538083
    vertex 104.81376441103878 -3.048 20.84240373538083
  endloop
endfacet
facet normal 9.283272587971311e-35 -1.0 1.777787219946851e-32
  outer loop
    vertex 104.81376441103878 -3.048 20.84240373538083
    vertex 118.78376441103879 -3.048 23.38240373538083
    vertex 104.81376441103878 -3.048 23.38240373538083
  endloop
endfacet
facet normal -0.9238795325112882 0.38268343236508634 0.0
  outer loop
    vertex 115.03152569005816 5.824079700351679 23.38240373538083
    vertex 114.82852803152876 5.334000000000001 20.84240373538083
    vertex 114.82852803152876 5.334000000000001 23.38240373538083
  endloop
endfacet
facet normal -0.9238795325112882 0.38268343236508634 0.0
  outer loop
    vertex 114.82852803152876 5.334000000000001 20.84240373538083
    vertex 115.03152569005816 5.824079700351679 23.38240373538083
    vertex 115.03152569005816 5.824079700351679 20.84240373538083
  endloop
endfacet
facet normal 0.1305261922200514 0.9914448613738105 0.0
  outer loop
    vertex 112.54284411139045 4.387238720980612 23.38240373538083
    vertex 113.06876441103877 4.318 20.84240373538083
    vertex 112.54284411139045 4.387238720980612 20.84240373538083
  endloop
endfacet
facet normal 0.1305261922200514 0.9914448613738105 0.0
  outer loop
    vertex 113.06876441103877 4.318 20.84240373538083
    vertex 112.54284411139045 4.387238720980612 23.38240373538083
    vertex 113.06876441103877 4.318 23.38240373538083
  endloop
endfacet
facet normal 0.6087614290087255 0.7933533402912316 0.0
  outer loop
    vertex 111.63192343166773 4.913159020628934 23.38240373538083
    vertex 112.05276441103877 4.590236379510021 20.84240373538083
    vertex 111.63192343166773 4.913159020628934 20.84240373538083
  endloop
endfacet
facet normal 0.6087614290087255 0.7933533402912316 0.0
  outer loop
    vertex 112.05276441103877 4.590236379510021 20.84240373538083
    vertex 111.63192343166773 4.913159020628934 23.38240373538083
    vertex 112.05276441103877 4.590236379510021 23.38240373538083
  endloop
endfacet
facet normal 0.0 1.0 0.0
  outer loop
    vertex 26.327764411038764 15.748 20.84240373538083
    vertex 107.35376441103878 15.748 15.762403735380829
    vertex 26.327764411038764 15.748 15.762403735380829
  endloop
endfacet
facet normal 0.0 1.0 0.0
  outer loop
    vertex 107.35376441103878 15.748 15.762403735380829
    vertex 26.327764411038764 15.748 20.84240373538083
    vertex 107.35376441103878 15.748 20.84240373538083
  endloop
endfacet
facet normal 0.0 1.0 0.0
  outer loop
    vertex 107.35376441103878 15.748 20.84240373538083
    vertex 26.327764411038764 15.748 20.84240373538083
    vertex 28.867764411038767 15.748 20.84240373538083
  endloop
endfacet
facet normal 0.0 1.0 0.0
  outer loop
    vertex 107.35376441103878 15.748 20.84240373538083
    vertex 28.867764411038767 15.748 20.84240373538083
    vertex 104.81376441103878 15.748 20.84240373538083
  endloop
endfacet
facet normal 0.0 1.0 0.0
  outer loop
    vertex 107.35376441103878 15.748 20.84240373538083
    vertex 104.81376441103878 15.748 20.84240373538083
    vertex 104.81376441103878 15.748 23.38240373538083
  endloop
endfacet
facet normal 0.0 1.0 0.0
  outer loop
    vertex 107.35376441103878 15.748 20.84240373538083
    vertex 104.81376441103878 15.748 23.38240373538083
    vertex 113.06876441103877 15.748 20.84240373538083
  endloop
endfacet
facet normal 0.0 1.0 0.0
  outer loop
    vertex 113.06876441103877 15.748 20.84240373538083
    vertex 104.81376441103878 15.748 23.38240373538083
    vertex 118.78376441103879 15.748 20.84240373538083
  endloop
endfacet
facet normal 0.0 1.0 0.0
  outer loop
    vertex 118.78376441103879 15.748 20.84240373538083
    vertex 104.81376441103878 15.748 23.38240373538083
    vertex 118.78376441103879 15.748 23.38240373538083
  endloop
endfacet
facet normal 0.0 1.0 0.0
  outer loop
    vertex 14.897764411038768 15.748 23.38240373538083
    vertex 26.327764411038764 15.748 20.84240373538083
    vertex 14.897764411038768 15.748 20.84240373538083
  endloop
endfacet
facet normal 0.0 1.0 0.0
  outer loop
    vertex 26.327764411038764 15.748 20.84240373538083
    vertex 14.897764411038768 15.748 23.38240373538083
    vertex 28.867764411038767 15.748 20.84240373538083
  endloop
endfacet
facet normal 0.0 1.0 0.0
  outer loop
    vertex 28.867764411038767 15.748 20.84240373538083
    vertex 14.897764411038768 15.748 23.38240373538083
    vertex 28.867764411038767 15.748 23.38240373538083
  endloop
endfacet
facet normal 0.9238795325112882 0.38268343236508634 0.0
  outer loop
    vertex 111.10600313201941 5.824079700351677 20.84240373538083
    vertex 111.30900079054881 5.3340000000000005 23.38240373538083
    vertex 111.30900079054881 5.3340000000000005 20.84240373538083
  endloop
endfacet
facet normal 0.9238795325112882 0.38268343236508634 0.0
  outer loop
    vertex 111.30900079054881 5.3340000000000005 23.38240373538083
    vertex 111.10600313201941 5.824079700351677 20.84240373538083
    vertex 111.10600313201941 5.824079700351677 23.38240373538083
  endloop
endfacet
facet normal 0.9914448613738087 0.13052619222006429 0.0
  outer loop
    vertex 111.03676441103877 6.35 20.84240373538083
    vertex 111.10600313201941 5.824079700351677 23.38240373538083
    vertex 111.10600313201941 5.824079700351677 20.84240373538083
  endloop
endfacet
facet normal 0.9914448613738087 0.13052619222006429 0.0
  outer loop
    vertex 111.10600313201941 5.824079700351677 23.38240373538083
    vertex 111.03676441103877 6.35 20.84240373538083
    vertex 111.03676441103877 6.35 23.38240373538083
  endloop
endfacet
facet normal -0.6087614290087263 0.793353340291231 0.0
  outer loop
    vertex 114.08476441103878 4.590236379510021 23.38240373538083
    vertex 114.50560539040984 4.913159020628936 20.84240373538083
    vertex 114.08476441103878 4.590236379510021 20.84240373538083
  endloop
endfacet
facet normal -0.6087614290087263 0.793353340291231 0.0
  outer loop
    vertex 114.50560539040984 4.913159020628936 20.84240373538083
    vertex 114.08476441103878 4.590236379510021 23.38240373538083
    vertex 114.50560539040984 4.913159020628936 23.38240373538083
  endloop
endfacet
facet normal 1.0 0.0 0.0
  outer loop
    vertex 118.78376441103879 15.748 20.84240373538083
    vertex 118.78376441103879 -3.048 23.38240373538083
    vertex 118.78376441103879 -3.048 20.84240373538083
  endloop
endfacet
facet normal 1.0 0.0 0.0
  outer loop
    vertex 118.78376441103879 -3.048 23.38240373538083
    vertex 118.78376441103879 15.748 20.84240373538083
    vertex 118.78376441103879 15.748 23.38240373538083
  endloop
endfacet
facet normal -0.9914448613738087 0.13052619222006465 0.0
  outer loop
    vertex 115.10076441103878 6.35 23.38240373538083
    vertex 115.03152569005816 5.824079700351679 20.84240373538083
    vertex 115.03152569005816 5.824079700351679 23.38240373538083
  endloop
endfacet
facet normal -0.9914448613738087 0.13052619222006465 0.0
  outer loop
    vertex 115.03152569005816 5.824079700351679 20.84240373538083
    vertex 115.10076441103878 6.35 23.38240373538083
    vertex 115.10076441103878 6.35 20.84240373538083
  endloop
endfacet
facet normal -0.38268343236508995 0.9238795325112867 0.0
  outer loop
    vertex 113.59468471068709 4.387238720980612 23.38240373538083
    vertex 114.08476441103878 4.590236379510021 20.84240373538083
    vertex 113.59468471068709 4.387238720980612 20.84240373538083
  endloop
endfacet
facet normal -0.38268343236508995 0.9238795325112867 0.0
  outer loop
    vertex 114.08476441103878 4.590236379510021 20.84240373538083
    vertex 113.59468471068709 4.387238720980612 23.38240373538083
    vertex 114.08476441103878 4.590236379510021 23.38240373538083
  endloop
endfacet
facet normal 0.38268343236508995 0.9238795325112867 0.0
  outer loop
    vertex 112.05276441103877 4.590236379510021 23.38240373538083
    vertex 112.54284411139045 4.387238720980612 20.84240373538083
    vertex 112.05276441103877 4.590236379510021 20.84240373538083
  endloop
endfacet
facet normal 0.38268343236508995 0.9238795325112867 0.0
  outer loop
    vertex 112.54284411139045 4.387238720980612 20.84240373538083
    vertex 112.05276441103877 4.590236379510021 23.38240373538083
    vertex 112.54284411139045 4.387238720980612 23.38240373538083
  endloop
endfacet
facet normal 0.0 1.0 0.0
  outer loop
    vertex 28.867764411038767 -0.5080000000000001 20.84240373538083
    vertex 104.81376441103878 -0.5080000000000001 17.540403735380828
    vertex 28.867764411038767 -0.5080000000000001 17.540403735380828
  endloop
endfacet
facet normal 0.0 1.0 0.0
  outer loop
    vertex 104.81376441103878 -0.5080000000000001 17.540403735380828
    vertex 28.867764411038767 -0.5080000000000001 20.84240373538083
    vertex 104.81376441103878 -0.5080000000000001 20.84240373538083
  endloop
endfacet
facet normal -5.330126534161428e-32 -2.0784176641883008e-32 -1.0
  outer loop
    vertex 14.897764411038768 15.748 20.84240373538083
    vertex 18.650003132019382 6.87592029964832 20.84240373538083
    vertex 14.897764411038768 -3.048 20.84240373538083
  endloop
endfacet
facet normal -5.330126534161428e-32 -2.0784176641883008e-32 -1.0
  outer loop
    vertex 18.650003132019382 6.87592029964832 20.84240373538083
    vertex 14.897764411038768 15.748 20.84240373538083
    vertex 18.853000790548787 7.365999999999998 20.84240373538083
  endloop
endfacet
facet normal -5.330126534161428e-32 -2.0784176641883008e-32 -1.0
  outer loop
    vertex 18.853000790548787 7.365999999999998 20.84240373538083
    vertex 14.897764411038768 15.748 20.84240373538083
    vertex 19.175923431667705 7.786840979371065 20.84240373538083
  endloop
endfacet
facet normal -5.330126534161428e-32 -2.0784176641883008e-32 -1.0
  outer loop
    vertex 19.175923431667705 7.786840979371065 20.84240373538083
    vertex 14.897764411038768 15.748 20.84240373538083
    vertex 26.327764411038764 15.748 20.84240373538083
  endloop
endfacet
facet normal -5.330126534161428e-32 -2.0784176641883008e-32 -1.0
  outer loop
    vertex 14.897764411038768 -3.048 20.84240373538083
    vertex 18.650003132019382 6.87592029964832 20.84240373538083
    vertex 18.580764411038768 6.35 20.84240373538083
  endloop
endfacet
facet normal -5.330126534161428e-32 -2.0784176641883008e-32 -1.0
  outer loop
    vertex 19.175923431667705 7.786840979371065 20.84240373538083
    vertex 26.327764411038764 15.748 20.84240373538083
    vertex 19.59676441103877 8.109763620489979 20.84240373538083
  endloop
endfacet
facet normal -5.330126534161428e-32 -2.0784176641883008e-32 -1.0
  outer loop
    vertex 19.59676441103877 8.109763620489979 20.84240373538083
    vertex 26.327764411038764 15.748 20.84240373538083
    vertex 20.086844111390445 8.312761279019387 20.84240373538083
  endloop
endfacet
facet normal -5.330126534161428e-32 -2.0784176641883008e-32 -1.0
  outer loop
    vertex 20.086844111390445 8.312761279019387 20.84240373538083
    vertex 26.327764411038764 15.748 20.84240373538083
    vertex 20.612764411038768 8.382 20.84240373538083
  endloop
endfacet
facet normal -5.330126534161428e-32 -2.0784176641883008e-32 -1.0
  outer loop
    vertex 20.612764411038768 8.382 20.84240373538083
    vertex 26.327764411038764 15.748 20.84240373538083
    vertex 21.13868471068709 8.312761279019387 20.84240373538083
  endloop
endfacet
facet normal -5.330126534161428e-32 -2.0784176641883008e-32 -1.0
  outer loop
    vertex 21.13868471068709 8.312761279019387 20.84240373538083
    vertex 26.327764411038764 15.748 20.84240373538083
    vertex 21.628764411038766 8.109763620489979 20.84240373538083
  endloop
endfacet
facet normal -5.330126534161428e-32 -2.0784176641883008e-32 -1.0
  outer loop
    vertex 21.628764411038766 8.109763620489979 20.84240373538083
    vertex 26.327764411038764 15.748 20.84240373538083
    vertex 22.049605390409834 7.786840979371065 20.84240373538083
  endloop
endfacet
facet normal -5.330126534161428e-32 -2.0784176641883008e-32 -1.0
  outer loop
    vertex 22.049605390409834 7.786840979371065 20.84240373538083
    vertex 26.327764411038764 15.748 20.84240373538083
    vertex 22.372528031528745 7.3660000000000005 20.84240373538083
  endloop
endfacet
facet normal -5.330126534161428e-32 -2.0784176641883008e-32 -1.0
  outer loop
    vertex 22.372528031528745 7.3660000000000005 20.84240373538083
    vertex 26.327764411038764 15.748 20.84240373538083
    vertex 22.575525690058157 6.875920299648322 20.84240373538083
  endloop
endfacet
facet normal -5.330126534161428e-32 -2.0784176641883008e-32 -1.0
  outer loop
    vertex 22.575525690058157 6.875920299648322 20.84240373538083
    vertex 26.327764411038764 15.748 20.84240373538083
    vertex 22.644764411038768 6.35 20.84240373538083
  endloop
endfacet
facet normal -5.330126534161428e-32 -2.0784176641883008e-32 -1.0
  outer loop
    vertex 14.897764411038768 -3.048 20.84240373538083
    vertex 19.175923431667705 4.913159020628934 20.84240373538083
    vertex 26.327764411038764 -3.048 20.84240373538083
  endloop
endfacet
facet normal -5.330126534161428e-32 -2.0784176641883008e-32 -1.0
  outer loop
    vertex 19.175923431667705 4.913159020628934 20.84240373538083
    vertex 14.897764411038768 -3.048 20.84240373538083
    vertex 18.853000790548787 5.333999999999999 20.84240373538083
  endloop
endfacet
facet normal -5.330126534161428e-32 -2.0784176641883008e-32 -1.0
  outer loop
    vertex 18.853000790548787 5.333999999999999 20.84240373538083
    vertex 14.897764411038768 -3.048 20.84240373538083
    vertex 18.650003132019382 5.824079700351676 20.84240373538083
  endloop
endfacet
facet normal -5.330126534161428e-32 -2.0784176641883008e-32 -1.0
  outer loop
    vertex 18.650003132019382 5.824079700351676 20.84240373538083
    vertex 14.897764411038768 -3.048 20.84240373538083
    vertex 18.580764411038768 6.35 20.84240373538083
  endloop
endfacet
facet normal -5.330126534161428e-32 -2.0784176641883008e-32 -1.0
  outer loop
    vertex 26.327764411038764 -3.048 20.84240373538083
    vertex 19.175923431667705 4.913159020628934 20.84240373538083
    vertex 19.59676441103877 4.590236379510021 20.84240373538083
  endloop
endfacet
facet normal -5.330126534161428e-32 -2.0784176641883008e-32 -1.0
  outer loop
    vertex 26.327764411038764 -3.048 20.84240373538083
    vertex 19.59676441103877 4.590236379510021 20.84240373538083
    vertex 20.086844111390448 4.387238720980612 20.84240373538083
  endloop
endfacet
facet normal -5.330126534161428e-32 -2.0784176641883008e-32 -1.0
  outer loop
    vertex 26.327764411038764 -3.048 20.84240373538083
    vertex 20.086844111390448 4.387238720980612 20.84240373538083
    vertex 20.612764411038768 4.318 20.84240373538083
  endloop
endfacet
facet normal -5.330126534161428e-32 -2.0784176641883008e-32 -1.0
  outer loop
    vertex 26.327764411038764 -3.048 20.84240373538083
    vertex 20.612764411038768 4.318 20.84240373538083
    vertex 21.13868471068709 4.387238720980612 20.84240373538083
  endloop
endfacet
facet normal -5.330126534161428e-32 -2.0784176641883008e-32 -1.0
  outer loop
    vertex 26.327764411038764 -3.048 20.84240373538083
    vertex 21.13868471068709 4.387238720980612 20.84240373538083
    vertex 21.62876441103877 4.590236379510021 20.84240373538083
  endloop
endfacet
facet normal -5.330126534161428e-32 -2.0784176641883008e-32 -1.0
  outer loop
    vertex 26.327764411038764 -3.048 20.84240373538083
    vertex 21.62876441103877 4.590236379510021 20.84240373538083
    vertex 22.049605390409834 4.913159020628934 20.84240373538083
  endloop
endfacet
facet normal -5.330126534161428e-32 -2.0784176641883008e-32 -1.0
  outer loop
    vertex 26.327764411038764 -3.048 20.84240373538083
    vertex 22.049605390409834 4.913159020628934 20.84240373538083
    vertex 22.372528031528745 5.3340000000000005 20.84240373538083
  endloop
endfacet
facet normal -5.330126534161428e-32 -2.0784176641883008e-32 -1.0
  outer loop
    vertex 26.327764411038764 -3.048 20.84240373538083
    vertex 22.372528031528745 5.3340000000000005 20.84240373538083
    vertex 22.575525690058157 5.824079700351677 20.84240373538083
  endloop
endfacet
facet normal -5.330126534161428e-32 -2.0784176641883008e-32 -1.0
  outer loop
    vertex 26.327764411038764 -3.048 20.84240373538083
    vertex 22.575525690058157 5.824079700351677 20.84240373538083
    vertex 22.644764411038768 6.35 20.84240373538083
  endloop
endfacet
facet normal -5.330126534161428e-32 -2.0784176641883008e-32 -1.0
  outer loop
    vertex 26.327764411038764 -3.048 20.84240373538083
    vertex 22.644764411038768 6.35 20.84240373538083
    vertex 26.327764411038764 15.748 20.84240373538083
  endloop
endfacet
facet normal 0.0 0.0 1.0
  outer loop
    vertex 104.81376441103878 -3.048 20.84240373538083
    vertex 28.867764411038767 -0.5080000000000001 20.84240373538083
    vertex 28.867764411038767 -3.048 20.84240373538083
  endloop
endfacet
facet normal 0.0 0.0 1.0
  outer loop
    vertex 28.867764411038767 -0.5080000000000001 20.84240373538083
    vertex 104.81376441103878 -3.048 20.84240373538083
    vertex 104.81376441103878 -0.5080000000000001 20.84240373538083
  endloop
endfacet
facet normal -1.0 0.0 0.0
  outer loop
    vertex 104.81376441103878 13.208 17.540403735380828
    vertex 104.81376441103878 -0.5080000000000001 17.540403735380828
    vertex 104.81376441103878 13.208 20.84240373538083
  endloop
endfacet
facet normal -1.0 0.0 0.0
  outer loop
    vertex 104.81376441103878 15.748 23.38240373538083
    vertex 104.81376441103878 -3.048 20.84240373538083
    vertex 104.81376441103878 -3.048 23.38240373538083
  endloop
endfacet
facet normal -1.0 0.0 0.0
  outer loop
    vertex 104.81376441103878 -3.048 20.84240373538083
    vertex 104.81376441103878 15.748 23.38240373538083
    vertex 104.81376441103878 -0.5080000000000001 20.84240373538083
  endloop
endfacet
facet normal -1.0 0.0 0.0
  outer loop
    vertex 104.81376441103878 -0.5080000000000001 20.84240373538083
    vertex 104.81376441103878 15.748 23.38240373538083
    vertex 104.81376441103878 -0.5080000000000001 17.540403735380828
  endloop
endfacet
facet normal -1.0 0.0 0.0
  outer loop
    vertex 104.81376441103878 -0.5080000000000001 17.540403735380828
    vertex 104.81376441103878 15.748 23.38240373538083
    vertex 104.81376441103878 13.208 20.84240373538083
  endloop
endfacet
facet normal -1.0 0.0 0.0
  outer loop
    vertex 104.81376441103878 13.208 20.84240373538083
    vertex 104.81376441103878 15.748 23.38240373538083
    vertex 104.81376441103878 15.748 20.84240373538083
  endloop
endfacet
facet normal 0.0 -1.0 0.0
  outer loop
    vertex 104.81376441103878 13.208 20.84240373538083
    vertex 28.867764411038767 13.208 17.540403735380828
    vertex 104.81376441103878 13.208 17.540403735380828
  endloop
endfacet
facet normal 0.0 -1.0 0.0
  outer loop
    vertex 28.867764411038767 13.208 17.540403735380828
    vertex 104.81376441103878 13.208 20.84240373538083
    vertex 28.867764411038767 13.208 20.84240373538083
  endloop
endfacet
facet normal 1.0 0.0 0.0
  outer loop
    vertex 107.35376441103878 15.748 15.762403735380829
    vertex 107.35376441103878 -3.048 20.84240373538083
    vertex 107.35376441103878 -3.048 15.762403735380829
  endloop
endfacet
facet normal 1.0 0.0 0.0
  outer loop
    vertex 107.35376441103878 -3.048 20.84240373538083
    vertex 107.35376441103878 15.748 15.762403735380829
    vertex 107.35376441103878 15.748 20.84240373538083
  endloop
endfacet
facet normal 1.0 0.0 0.0
  outer loop
    vertex 103.03576441103878 11.937999999999999 15.762403735380829
    vertex 103.03576441103878 0.7620000000000002 17.540403735380828
    vertex 103.03576441103878 0.7620000000000002 15.762403735380829
  endloop
endfacet
facet normal 1.0 0.0 0.0
  outer loop
    vertex 103.03576441103878 0.7620000000000002 17.540403735380828
    vertex 103.03576441103878 11.937999999999999 15.762403735380829
    vertex 103.03576441103878 11.937999999999999 17.540403735380828
  endloop
endfacet
facet normal 0.0 0.0 -1.0
  outer loop
    vertex 28.867764411038767 13.208 17.540403735380828
    vertex 30.64576441103877 11.937999999999999 17.540403735380828
    vertex 28.867764411038767 -0.5080000000000001 17.540403735380828
  endloop
endfacet
facet normal 0.0 0.0 -1.0
  outer loop
    vertex 30.64576441103877 11.937999999999999 17.540403735380828
    vertex 28.867764411038767 13.208 17.540403735380828
    vertex 104.81376441103878 13.208 17.540403735380828
  endloop
endfacet
facet normal 0.0 0.0 -1.0
  outer loop
    vertex 30.64576441103877 11.937999999999999 17.540403735380828
    vertex 104.81376441103878 13.208 17.540403735380828
    vertex 103.03576441103878 11.937999999999999 17.540403735380828
  endloop
endfacet
facet normal 0.0 0.0 -1.0
  outer loop
    vertex 103.03576441103878 11.937999999999999 17.540403735380828
    vertex 104.81376441103878 13.208 17.540403735380828
    vertex 103.03576441103878 0.7620000000000002 17.540403735380828
  endloop
endfacet
facet normal 0.0 0.0 -1.0
  outer loop
    vertex 28.867764411038767 -0.5080000000000001 17.540403735380828
    vertex 30.64576441103877 0.7620000000000002 17.540403735380828
    vertex 104.81376441103878 -0.5080000000000001 17.540403735380828
  endloop
endfacet
facet normal 0.0 0.0 -1.0
  outer loop
    vertex 30.64576441103877 0.7620000000000002 17.540403735380828
    vertex 28.867764411038767 -0.5080000000000001 17.540403735380828
    vertex 30.64576441103877 11.937999999999999 17.540403735380828
  endloop
endfacet
facet normal 0.0 0.0 -1.0
  outer loop
    vertex 104.81376441103878 -0.5080000000000001 17.540403735380828
    vertex 30.64576441103877 0.7620000000000002 17.540403735380828
    vertex 103.03576441103878 0.7620000000000002 17.540403735380828
  endloop
endfacet
facet normal 0.0 0.0 -1.0
  outer loop
    vertex 104.81376441103878 -0.5080000000000001 17.540403735380828
    vertex 103.03576441103878 0.7620000000000002 17.540403735380828
    vertex 104.81376441103878 13.208 17.540403735380828
  endloop
endfacet
facet normal 0.0 -1.0 0.0
  outer loop
    vertex 103.03576441103878 0.7620000000000002 17.540403735380828
    vertex 30.64576441103877 0.7620000000000002 15.762403735380829
    vertex 103.03576441103878 0.7620000000000002 15.762403735380829
  endloop
endfacet
facet normal 0.0 -1.0 0.0
  outer loop
    vertex 30.64576441103877 0.7620000000000002 15.762403735380829
    vertex 103.03576441103878 0.7620000000000002 17.540403735380828
    vertex 30.64576441103877 0.7620000000000002 17.540403735380828
  endloop
endfacet
facet normal -1.0 -0.0 -0.0
  outer loop
    vertex 30.64576441103877 11.937999999999999 17.540403735380828
    vertex 30.64576441103877 0.7620000000000002 15.762403735380829
    vertex 30.64576441103877 0.7620000000000002 17.540403735380828
  endloop
endfacet
facet normal -1.0 -0.0 -0.0
  outer loop
    vertex 30.64576441103877 0.7620000000000002 15.762403735380829
    vertex 30.64576441103877 11.937999999999999 17.540403735380828
    vertex 30.64576441103877 11.937999999999999 15.762403735380829
  endloop
endfacet
facet normal 0.0 1.0 0.0
  outer loop
    vertex 30.64576441103877 11.937999999999999 17.540403735380828
    vertex 103.03576441103878 11.937999999999999 15.762403735380829
    vertex 30.64576441103877 11.937999999999999 15.762403735380829
  endloop
endfacet
facet normal 0.0 1.0 0.0
  outer loop
    vertex 103.03576441103878 11.937999999999999 15.762403735380829
    vertex 30.64576441103877 11.937999999999999 17.540403735380828
    vertex 103.03576441103878 11.937999999999999 17.540403735380828
  endloop
endfacet
endsolid QTR8RC MODEL GOOD TOP
