solid QTR8RC MODEL GOOD TOP
facet normal 0.0 0.0 1.0
  outer loop
    vertex -14.573249999999982 70.48499999999997 22.780624999999777
    vertex -11.456011279019368 79.23007970035164 22.780624999999777
    vertex -14.573249999999982 89.02699999999997 22.780624999999777
  endloop
endfacet
facet normal 0.0 0.0 1.0
  outer loop
    vertex -11.456011279019368 79.23007970035164 22.780624999999777
    vertex -14.573249999999982 70.48499999999997 22.780624999999777
    vertex -11.25301362048996 78.73999999999998 22.780624999999777
  endloop
endfacet
facet normal 0.0 0.0 1.0
  outer loop
    vertex -11.25301362048996 78.73999999999998 22.780624999999777
    vertex -14.573249999999982 70.48499999999997 22.780624999999777
    vertex -10.930090979371045 78.3191590206289 22.780624999999777
  endloop
endfacet
facet normal 0.0 0.0 1.0
  outer loop
    vertex -10.930090979371045 78.3191590206289 22.780624999999777
    vertex -14.573249999999982 70.48499999999997 22.780624999999777
    vertex -3.1432499999999837 70.48499999999997 22.780624999999777
  endloop
endfacet
facet normal 0.0 0.0 1.0
  outer loop
    vertex -14.573249999999982 89.02699999999997 22.780624999999777
    vertex -11.456011279019368 79.23007970035164 22.780624999999777
    vertex -11.52524999999998 79.75599999999997 22.780624999999777
  endloop
endfacet
facet normal 0.0 0.0 1.0
  outer loop
    vertex -10.930090979371045 78.3191590206289 22.780624999999777
    vertex -3.1432499999999837 70.48499999999997 22.780624999999777
    vertex -10.509249999999982 77.99623637951 22.780624999999777
  endloop
endfacet
facet normal 0.0 0.0 1.0
  outer loop
    vertex -10.509249999999982 77.99623637951 22.780624999999777
    vertex -3.1432499999999837 70.48499999999997 22.780624999999777
    vertex -10.019170299648303 77.79323872098058 22.780624999999777
  endloop
endfacet
facet normal 0.0 0.0 1.0
  outer loop
    vertex -10.019170299648303 77.79323872098058 22.780624999999777
    vertex -3.1432499999999837 70.48499999999997 22.780624999999777
    vertex -9.493249999999982 77.72399999999998 22.780624999999777
  endloop
endfacet
facet normal 0.0 0.0 1.0
  outer loop
    vertex -9.493249999999982 77.72399999999998 22.780624999999777
    vertex -3.1432499999999837 70.48499999999997 22.780624999999777
    vertex -8.96732970035166 77.79323872098058 22.780624999999777
  endloop
endfacet
facet normal 0.0 0.0 1.0
  outer loop
    vertex -8.96732970035166 77.79323872098058 22.780624999999777
    vertex -3.1432499999999837 70.48499999999997 22.780624999999777
    vertex -8.477249999999982 77.99623637951 22.780624999999777
  endloop
endfacet
facet normal 0.0 0.0 1.0
  outer loop
    vertex -8.477249999999982 77.99623637951 22.780624999999777
    vertex -3.1432499999999837 70.48499999999997 22.780624999999777
    vertex -8.056409020628918 78.3191590206289 22.780624999999777
  endloop
endfacet
facet normal 0.0 0.0 1.0
  outer loop
    vertex -8.056409020628918 78.3191590206289 22.780624999999777
    vertex -3.1432499999999837 70.48499999999997 22.780624999999777
    vertex -7.733486379510004 78.73999999999997 22.780624999999777
  endloop
endfacet
facet normal 0.0 0.0 1.0
  outer loop
    vertex -7.733486379510004 78.73999999999997 22.780624999999777
    vertex -3.1432499999999837 70.48499999999997 22.780624999999777
    vertex -7.530488720980596 79.23007970035164 22.780624999999777
  endloop
endfacet
facet normal 0.0 0.0 1.0
  outer loop
    vertex -7.530488720980596 79.23007970035164 22.780624999999777
    vertex -3.1432499999999837 70.48499999999997 22.780624999999777
    vertex -7.461249999999983 79.75599999999997 22.780624999999777
  endloop
endfacet
facet normal 0.0 0.0 1.0
  outer loop
    vertex -14.573249999999982 89.02699999999997 22.780624999999777
    vertex -10.930090979371045 81.19284097937104 22.780624999999777
    vertex -3.1432499999999837 89.02699999999997 22.780624999999777
  endloop
endfacet
facet normal 0.0 0.0 1.0
  outer loop
    vertex -10.930090979371045 81.19284097937104 22.780624999999777
    vertex -14.573249999999982 89.02699999999997 22.780624999999777
    vertex -11.25301362048996 80.77199999999996 22.780624999999777
  endloop
endfacet
facet normal 0.0 0.0 1.0
  outer loop
    vertex -11.25301362048996 80.77199999999996 22.780624999999777
    vertex -14.573249999999982 89.02699999999997 22.780624999999777
    vertex -11.456011279019368 80.28192029964829 22.780624999999777
  endloop
endfacet
facet normal 0.0 0.0 1.0
  outer loop
    vertex -11.456011279019368 80.28192029964829 22.780624999999777
    vertex -14.573249999999982 89.02699999999997 22.780624999999777
    vertex -11.52524999999998 79.75599999999997 22.780624999999777
  endloop
endfacet
facet normal 0.0 0.0 1.0
  outer loop
    vertex -3.1432499999999837 89.02699999999997 22.780624999999777
    vertex -10.930090979371045 81.19284097937104 22.780624999999777
    vertex -10.509249999999982 81.51576362048995 22.780624999999777
  endloop
endfacet
facet normal 0.0 0.0 1.0
  outer loop
    vertex -3.1432499999999837 89.02699999999997 22.780624999999777
    vertex -10.509249999999982 81.51576362048995 22.780624999999777
    vertex -10.019170299648303 81.71876127901936 22.780624999999777
  endloop
endfacet
facet normal 0.0 0.0 1.0
  outer loop
    vertex -3.1432499999999837 89.02699999999997 22.780624999999777
    vertex -10.019170299648303 81.71876127901936 22.780624999999777
    vertex -9.493249999999982 81.78799999999997 22.780624999999777
  endloop
endfacet
facet normal 0.0 0.0 1.0
  outer loop
    vertex -3.1432499999999837 89.02699999999997 22.780624999999777
    vertex -9.493249999999982 81.78799999999997 22.780624999999777
    vertex -8.967329700351659 81.71876127901936 22.780624999999777
  endloop
endfacet
facet normal 0.0 0.0 1.0
  outer loop
    vertex -3.1432499999999837 89.02699999999997 22.780624999999777
    vertex -8.967329700351659 81.71876127901936 22.780624999999777
    vertex -8.47724999999998 81.51576362048995 22.780624999999777
  endloop
endfacet
facet normal 0.0 0.0 1.0
  outer loop
    vertex -3.1432499999999837 89.02699999999997 22.780624999999777
    vertex -8.47724999999998 81.51576362048995 22.780624999999777
    vertex -8.056409020628918 81.19284097937104 22.780624999999777
  endloop
endfacet
facet normal 0.0 0.0 1.0
  outer loop
    vertex -3.1432499999999837 89.02699999999997 22.780624999999777
    vertex -8.056409020628918 81.19284097937104 22.780624999999777
    vertex -7.733486379510002 80.77199999999996 22.780624999999777
  endloop
endfacet
facet normal 0.0 0.0 1.0
  outer loop
    vertex -3.1432499999999837 89.02699999999997 22.780624999999777
    vertex -7.733486379510002 80.77199999999996 22.780624999999777
    vertex -7.530488720980596 80.28192029964829 22.780624999999777
  endloop
endfacet
facet normal 0.0 0.0 1.0
  outer loop
    vertex -3.1432499999999837 89.02699999999997 22.780624999999777
    vertex -7.530488720980596 80.28192029964829 22.780624999999777
    vertex -7.461249999999983 79.75599999999997 22.780624999999777
  endloop
endfacet
facet normal 0.0 0.0 1.0
  outer loop
    vertex -3.1432499999999837 89.02699999999997 22.780624999999777
    vertex -7.461249999999983 79.75599999999997 22.780624999999777
    vertex -3.1432499999999837 70.48499999999997 22.780624999999777
  endloop
endfacet
facet normal 0.0 0.0 1.0
  outer loop
    vertex -3.1432499999999837 89.02699999999997 22.780624999999777
    vertex -3.1432499999999837 70.48499999999997 22.780624999999777
    vertex -3.1432499999999837 75.56499999999998 22.780624999999777
  endloop
endfacet
facet normal 0.0 0.0 -1.0
  outer loop
    vertex -14.573249999999982 89.02699999999997 20.240624999999778
    vertex -11.456011279019368 80.28192029964829 20.240624999999778
    vertex -14.573249999999982 70.48499999999997 20.240624999999778
  endloop
endfacet
facet normal 0.0 0.0 -1.0
  outer loop
    vertex -11.456011279019368 80.28192029964829 20.240624999999778
    vertex -14.573249999999982 89.02699999999997 20.240624999999778
    vertex -11.25301362048996 80.77199999999996 20.240624999999778
  endloop
endfacet
facet normal 0.0 0.0 -1.0
  outer loop
    vertex -11.25301362048996 80.77199999999996 20.240624999999778
    vertex -14.573249999999982 89.02699999999997 20.240624999999778
    vertex -10.930090979371045 81.19284097937104 20.240624999999778
  endloop
endfacet
facet normal 0.0 0.0 -1.0
  outer loop
    vertex -10.930090979371045 81.19284097937104 20.240624999999778
    vertex -14.573249999999982 89.02699999999997 20.240624999999778
    vertex -0.7619999999999837 89.02699999999997 20.240624999999778
  endloop
endfacet
facet normal 0.0 0.0 -1.0
  outer loop
    vertex -14.573249999999982 70.48499999999997 20.240624999999778
    vertex -11.456011279019368 80.28192029964829 20.240624999999778
    vertex -11.52524999999998 79.75599999999997 20.240624999999778
  endloop
endfacet
facet normal 0.0 0.0 -1.0
  outer loop
    vertex -10.930090979371045 81.19284097937104 20.240624999999778
    vertex -0.7619999999999837 89.02699999999997 20.240624999999778
    vertex -10.509249999999982 81.51576362048995 20.240624999999778
  endloop
endfacet
facet normal 0.0 0.0 -1.0
  outer loop
    vertex -10.509249999999982 81.51576362048995 20.240624999999778
    vertex -0.7619999999999837 89.02699999999997 20.240624999999778
    vertex -10.019170299648303 81.71876127901936 20.240624999999778
  endloop
endfacet
facet normal 0.0 0.0 -1.0
  outer loop
    vertex -10.019170299648303 81.71876127901936 20.240624999999778
    vertex -0.7619999999999837 89.02699999999997 20.240624999999778
    vertex -9.493249999999982 81.78799999999997 20.240624999999778
  endloop
endfacet
facet normal 0.0 0.0 -1.0
  outer loop
    vertex -9.493249999999982 81.78799999999997 20.240624999999778
    vertex -0.7619999999999837 89.02699999999997 20.240624999999778
    vertex -8.967329700351659 81.71876127901936 20.240624999999778
  endloop
endfacet
facet normal 0.0 0.0 -1.0
  outer loop
    vertex -8.967329700351659 81.71876127901936 20.240624999999778
    vertex -0.7619999999999837 89.02699999999997 20.240624999999778
    vertex -8.47724999999998 81.51576362048995 20.240624999999778
  endloop
endfacet
facet normal 0.0 0.0 -1.0
  outer loop
    vertex -8.47724999999998 81.51576362048995 20.240624999999778
    vertex -0.7619999999999837 89.02699999999997 20.240624999999778
    vertex -8.056409020628918 81.19284097937104 20.240624999999778
  endloop
endfacet
facet normal 0.0 0.0 -1.0
  outer loop
    vertex -8.056409020628918 81.19284097937104 20.240624999999778
    vertex -0.7619999999999837 89.02699999999997 20.240624999999778
    vertex -7.733486379510002 80.77199999999996 20.240624999999778
  endloop
endfacet
facet normal 0.0 0.0 -1.0
  outer loop
    vertex -7.733486379510002 80.77199999999996 20.240624999999778
    vertex -0.7619999999999837 89.02699999999997 20.240624999999778
    vertex -7.530488720980596 80.28192029964829 20.240624999999778
  endloop
endfacet
facet normal 0.0 0.0 -1.0
  outer loop
    vertex -7.530488720980596 80.28192029964829 20.240624999999778
    vertex -0.7619999999999837 89.02699999999997 20.240624999999778
    vertex -7.461249999999983 79.75599999999997 20.240624999999778
  endloop
endfacet
facet normal 0.0 0.0 -1.0
  outer loop
    vertex -7.461249999999983 79.75599999999997 20.240624999999778
    vertex -0.7619999999999837 89.02699999999997 20.240624999999778
    vertex -3.1432499999999837 70.48499999999997 20.240624999999778
  endloop
endfacet
facet normal 0.0 0.0 -1.0
  outer loop
    vertex -3.1432499999999837 70.48499999999997 20.240624999999778
    vertex -0.7619999999999837 89.02699999999997 20.240624999999778
    vertex -0.7619999999999837 70.48499999999997 20.240624999999778
  endloop
endfacet
facet normal 0.0 0.0 -1.0
  outer loop
    vertex -0.7619999999999837 70.48499999999997 20.240624999999778
    vertex -0.7619999999999837 89.02699999999997 20.240624999999778
    vertex -0.7619999999999837 81.02599999999995 20.240624999999778
  endloop
endfacet
facet normal 0.0 0.0 -1.0
  outer loop
    vertex -0.7619999999999837 70.48499999999997 20.240624999999778
    vertex -0.7619999999999837 81.02599999999995 20.240624999999778
    vertex -0.7619999999999837 78.48599999999996 20.240624999999778
  endloop
endfacet
facet normal 0.0 0.0 -1.0
  outer loop
    vertex -14.573249999999982 70.48499999999997 20.240624999999778
    vertex -10.930090979371045 78.3191590206289 20.240624999999778
    vertex -3.1432499999999837 70.48499999999997 20.240624999999778
  endloop
endfacet
facet normal 0.0 0.0 -1.0
  outer loop
    vertex -10.930090979371045 78.3191590206289 20.240624999999778
    vertex -14.573249999999982 70.48499999999997 20.240624999999778
    vertex -11.25301362048996 78.73999999999998 20.240624999999778
  endloop
endfacet
facet normal 0.0 0.0 -1.0
  outer loop
    vertex -11.25301362048996 78.73999999999998 20.240624999999778
    vertex -14.573249999999982 70.48499999999997 20.240624999999778
    vertex -11.456011279019368 79.23007970035164 20.240624999999778
  endloop
endfacet
facet normal 0.0 0.0 -1.0
  outer loop
    vertex -11.456011279019368 79.23007970035164 20.240624999999778
    vertex -14.573249999999982 70.48499999999997 20.240624999999778
    vertex -11.52524999999998 79.75599999999997 20.240624999999778
  endloop
endfacet
facet normal 0.0 0.0 -1.0
  outer loop
    vertex -3.1432499999999837 70.48499999999997 20.240624999999778
    vertex -10.930090979371045 78.3191590206289 20.240624999999778
    vertex -10.509249999999982 77.99623637951 20.240624999999778
  endloop
endfacet
facet normal 0.0 0.0 -1.0
  outer loop
    vertex -3.1432499999999837 70.48499999999997 20.240624999999778
    vertex -10.509249999999982 77.99623637951 20.240624999999778
    vertex -10.019170299648303 77.79323872098058 20.240624999999778
  endloop
endfacet
facet normal 0.0 0.0 -1.0
  outer loop
    vertex -3.1432499999999837 70.48499999999997 20.240624999999778
    vertex -10.019170299648303 77.79323872098058 20.240624999999778
    vertex -9.493249999999982 77.72399999999998 20.240624999999778
  endloop
endfacet
facet normal 0.0 0.0 -1.0
  outer loop
    vertex -3.1432499999999837 70.48499999999997 20.240624999999778
    vertex -9.493249999999982 77.72399999999998 20.240624999999778
    vertex -8.96732970035166 77.79323872098058 20.240624999999778
  endloop
endfacet
facet normal 0.0 0.0 -1.0
  outer loop
    vertex -3.1432499999999837 70.48499999999997 20.240624999999778
    vertex -8.96732970035166 77.79323872098058 20.240624999999778
    vertex -8.477249999999982 77.99623637951 20.240624999999778
  endloop
endfacet
facet normal 0.0 0.0 -1.0
  outer loop
    vertex -3.1432499999999837 70.48499999999997 20.240624999999778
    vertex -8.477249999999982 77.99623637951 20.240624999999778
    vertex -8.056409020628918 78.3191590206289 20.240624999999778
  endloop
endfacet
facet normal 0.0 0.0 -1.0
  outer loop
    vertex -3.1432499999999837 70.48499999999997 20.240624999999778
    vertex -8.056409020628918 78.3191590206289 20.240624999999778
    vertex -7.733486379510004 78.73999999999997 20.240624999999778
  endloop
endfacet
facet normal 0.0 0.0 -1.0
  outer loop
    vertex -3.1432499999999837 70.48499999999997 20.240624999999778
    vertex -7.733486379510004 78.73999999999997 20.240624999999778
    vertex -7.530488720980596 79.23007970035164 20.240624999999778
  endloop
endfacet
facet normal 0.0 0.0 -1.0
  outer loop
    vertex -3.1432499999999837 70.48499999999997 20.240624999999778
    vertex -7.530488720980596 79.23007970035164 20.240624999999778
    vertex -7.461249999999983 79.75599999999997 20.240624999999778
  endloop
endfacet
facet normal -0.9238795325112867 0.38268343236508995 0.0
  outer loop
    vertex -7.530488720980596 79.23007970035164 22.780624999999777
    vertex -7.733486379510004 78.73999999999997 20.240624999999778
    vertex -7.733486379510004 78.73999999999997 22.780624999999777
  endloop
endfacet
facet normal -0.9238795325112867 0.38268343236508995 0.0
  outer loop
    vertex -7.733486379510004 78.73999999999997 20.240624999999778
    vertex -7.530488720980596 79.23007970035164 22.780624999999777
    vertex -7.530488720980596 79.23007970035164 20.240624999999778
  endloop
endfacet
facet normal 0.9914448613738105 0.1305261922200514 0.0
  outer loop
    vertex -11.52524999999998 79.75599999999997 20.240624999999778
    vertex -11.456011279019368 79.23007970035164 22.780624999999777
    vertex -11.456011279019368 79.23007970035164 20.240624999999778
  endloop
endfacet
facet normal 0.9914448613738105 0.1305261922200514 0.0
  outer loop
    vertex -11.456011279019368 79.23007970035164 22.780624999999777
    vertex -11.52524999999998 79.75599999999997 20.240624999999778
    vertex -11.52524999999998 79.75599999999997 22.780624999999777
  endloop
endfacet
facet normal 0.38268343236508634 0.9238795325112882 0.0
  outer loop
    vertex -10.509249999999982 77.99623637951 22.780624999999777
    vertex -10.019170299648303 77.79323872098058 20.240624999999778
    vertex -10.509249999999982 77.99623637951 20.240624999999778
  endloop
endfacet
facet normal 0.38268343236508634 0.9238795325112882 0.0
  outer loop
    vertex -10.019170299648303 77.79323872098058 20.240624999999778
    vertex -10.509249999999982 77.99623637951 22.780624999999777
    vertex -10.019170299648303 77.79323872098058 22.780624999999777
  endloop
endfacet
facet normal 0.13052619222005402 0.9914448613738102 0.0
  outer loop
    vertex -10.019170299648303 77.79323872098058 22.780624999999777
    vertex -9.493249999999982 77.72399999999998 20.240624999999778
    vertex -10.019170299648303 77.79323872098058 20.240624999999778
  endloop
endfacet
facet normal 0.13052619222005402 0.9914448613738102 0.0
  outer loop
    vertex -9.493249999999982 77.72399999999998 20.240624999999778
    vertex -10.019170299648303 77.79323872098058 22.780624999999777
    vertex -9.493249999999982 77.72399999999998 22.780624999999777
  endloop
endfacet
facet normal -0.13052619222004913 0.9914448613738107 0.0
  outer loop
    vertex -9.493249999999982 77.72399999999998 22.780624999999777
    vertex -8.96732970035166 77.79323872098058 20.240624999999778
    vertex -9.493249999999982 77.72399999999998 20.240624999999778
  endloop
endfacet
facet normal -0.13052619222004913 0.9914448613738107 0.0
  outer loop
    vertex -8.96732970035166 77.79323872098058 20.240624999999778
    vertex -9.493249999999982 77.72399999999998 22.780624999999777
    vertex -8.96732970035166 77.79323872098058 22.780624999999777
  endloop
endfacet
facet normal -0.7933533402912354 0.6087614290087203 0.0
  outer loop
    vertex -7.733486379510004 78.73999999999997 22.780624999999777
    vertex -8.056409020628918 78.3191590206289 20.240624999999778
    vertex -8.056409020628918 78.3191590206289 22.780624999999777
  endloop
endfacet
facet normal -0.7933533402912354 0.6087614290087203 0.0
  outer loop
    vertex -8.056409020628918 78.3191590206289 20.240624999999778
    vertex -7.733486379510004 78.73999999999997 22.780624999999777
    vertex -7.733486379510004 78.73999999999997 20.240624999999778
  endloop
endfacet
facet normal -0.9914448613738105 -0.1305261922200514 -0.0
  outer loop
    vertex -7.530488720980596 80.28192029964829 22.780624999999777
    vertex -7.461249999999983 79.75599999999997 20.240624999999778
    vertex -7.461249999999983 79.75599999999997 22.780624999999777
  endloop
endfacet
facet normal -0.9914448613738105 -0.1305261922200514 -0.0
  outer loop
    vertex -7.461249999999983 79.75599999999997 20.240624999999778
    vertex -7.530488720980596 80.28192029964829 22.780624999999777
    vertex -7.530488720980596 80.28192029964829 20.240624999999778
  endloop
endfacet
facet normal -0.6087614290087203 0.7933533402912354 0.0
  outer loop
    vertex -8.477249999999982 77.99623637951 22.780624999999777
    vertex -8.056409020628918 78.3191590206289 20.240624999999778
    vertex -8.477249999999982 77.99623637951 20.240624999999778
  endloop
endfacet
facet normal -0.6087614290087203 0.7933533402912354 0.0
  outer loop
    vertex -8.056409020628918 78.3191590206289 20.240624999999778
    vertex -8.477249999999982 77.99623637951 22.780624999999777
    vertex -8.056409020628918 78.3191590206289 22.780624999999777
  endloop
endfacet
facet normal -0.7933533402912342 -0.608761429008722 -0.0
  outer loop
    vertex -8.056409020628918 81.19284097937104 22.780624999999777
    vertex -7.733486379510002 80.77199999999996 20.240624999999778
    vertex -7.733486379510002 80.77199999999996 22.780624999999777
  endloop
endfacet
facet normal -0.7933533402912342 -0.608761429008722 -0.0
  outer loop
    vertex -7.733486379510002 80.77199999999996 20.240624999999778
    vertex -8.056409020628918 81.19284097937104 22.780624999999777
    vertex -8.056409020628918 81.19284097937104 20.240624999999778
  endloop
endfacet
facet normal -0.38268343236509095 -0.9238795325112864 -0.0
  outer loop
    vertex -8.47724999999998 81.51576362048995 22.780624999999777
    vertex -8.967329700351659 81.71876127901936 20.240624999999778
    vertex -8.47724999999998 81.51576362048995 20.240624999999778
  endloop
endfacet
facet normal -0.38268343236509095 -0.9238795325112864 -0.0
  outer loop
    vertex -8.967329700351659 81.71876127901936 20.240624999999778
    vertex -8.47724999999998 81.51576362048995 22.780624999999777
    vertex -8.967329700351659 81.71876127901936 22.780624999999777
  endloop
endfacet
facet normal 0.7933533402912374 0.6087614290087178 0.0
  outer loop
    vertex -11.25301362048996 78.73999999999998 20.240624999999778
    vertex -10.930090979371045 78.3191590206289 22.780624999999777
    vertex -10.930090979371045 78.3191590206289 20.240624999999778
  endloop
endfacet
facet normal 0.7933533402912374 0.6087614290087178 0.0
  outer loop
    vertex -10.930090979371045 78.3191590206289 22.780624999999777
    vertex -11.25301362048996 78.73999999999998 20.240624999999778
    vertex -11.25301362048996 78.73999999999998 22.780624999999777
  endloop
endfacet
facet normal -0.9914448613738105 0.1305261922200514 0.0
  outer loop
    vertex -7.461249999999983 79.75599999999997 22.780624999999777
    vertex -7.530488720980596 79.23007970035164 20.240624999999778
    vertex -7.530488720980596 79.23007970035164 22.780624999999777
  endloop
endfacet
facet normal -0.9914448613738105 0.1305261922200514 0.0
  outer loop
    vertex -7.530488720980596 79.23007970035164 20.240624999999778
    vertex -7.461249999999983 79.75599999999997 22.780624999999777
    vertex -7.461249999999983 79.75599999999997 20.240624999999778
  endloop
endfacet
facet normal 0.9238795325112861 0.3826834323650919 0.0
  outer loop
    vertex -11.456011279019368 79.23007970035164 20.240624999999778
    vertex -11.25301362048996 78.73999999999998 22.780624999999777
    vertex -11.25301362048996 78.73999999999998 20.240624999999778
  endloop
endfacet
facet normal 0.9238795325112861 0.3826834323650919 0.0
  outer loop
    vertex -11.25301362048996 78.73999999999998 22.780624999999777
    vertex -11.456011279019368 79.23007970035164 20.240624999999778
    vertex -11.456011279019368 79.23007970035164 22.780624999999777
  endloop
endfacet
facet normal -1.0 0.0 0.0
  outer loop
    vertex -14.573249999999982 89.02699999999997 22.780624999999777
    vertex -14.573249999999982 70.48499999999997 20.240624999999778
    vertex -14.573249999999982 70.48499999999997 22.780624999999777
  endloop
endfacet
facet normal -1.0 0.0 0.0
  outer loop
    vertex -14.573249999999982 70.48499999999997 20.240624999999778
    vertex -14.573249999999982 89.02699999999997 22.780624999999777
    vertex -14.573249999999982 89.02699999999997 20.240624999999778
  endloop
endfacet
facet normal -0.38268343236508995 0.9238795325112867 0.0
  outer loop
    vertex -8.96732970035166 77.79323872098058 22.780624999999777
    vertex -8.477249999999982 77.99623637951 20.240624999999778
    vertex -8.96732970035166 77.79323872098058 20.240624999999778
  endloop
endfacet
facet normal -0.38268343236508995 0.9238795325112867 0.0
  outer loop
    vertex -8.477249999999982 77.99623637951 20.240624999999778
    vertex -8.96732970035166 77.79323872098058 22.780624999999777
    vertex -8.477249999999982 77.99623637951 22.780624999999777
  endloop
endfacet
facet normal -0.923879532511287 -0.3826834323650896 -0.0
  outer loop
    vertex -7.733486379510002 80.77199999999996 22.780624999999777
    vertex -7.530488720980596 80.28192029964829 20.240624999999778
    vertex -7.530488720980596 80.28192029964829 22.780624999999777
  endloop
endfacet
facet normal -0.923879532511287 -0.3826834323650896 -0.0
  outer loop
    vertex -7.530488720980596 80.28192029964829 20.240624999999778
    vertex -7.733486379510002 80.77199999999996 22.780624999999777
    vertex -7.733486379510002 80.77199999999996 20.240624999999778
  endloop
endfacet
facet normal -0.6087614290087217 -0.7933533402912344 -0.0
  outer loop
    vertex -8.056409020628918 81.19284097937104 22.780624999999777
    vertex -8.47724999999998 81.51576362048995 20.240624999999778
    vertex -8.056409020628918 81.19284097937104 20.240624999999778
  endloop
endfacet
facet normal -0.6087614290087217 -0.7933533402912344 -0.0
  outer loop
    vertex -8.47724999999998 81.51576362048995 20.240624999999778
    vertex -8.056409020628918 81.19284097937104 22.780624999999777
    vertex -8.47724999999998 81.51576362048995 22.780624999999777
  endloop
endfacet
facet normal 0.6087614290087203 0.7933533402912354 0.0
  outer loop
    vertex -10.930090979371045 78.3191590206289 22.780624999999777
    vertex -10.509249999999982 77.99623637951 20.240624999999778
    vertex -10.930090979371045 78.3191590206289 20.240624999999778
  endloop
endfacet
facet normal 0.6087614290087203 0.7933533402912354 0.0
  outer loop
    vertex -10.509249999999982 77.99623637951 20.240624999999778
    vertex -10.930090979371045 78.3191590206289 22.780624999999777
    vertex -10.509249999999982 77.99623637951 22.780624999999777
  endloop
endfacet
facet normal -0.13052619222005368 -0.9914448613738102 -0.0
  outer loop
    vertex -8.967329700351659 81.71876127901936 22.780624999999777
    vertex -9.493249999999982 81.78799999999997 20.240624999999778
    vertex -8.967329700351659 81.71876127901936 20.240624999999778
  endloop
endfacet
facet normal -0.13052619222005368 -0.9914448613738102 -0.0
  outer loop
    vertex -9.493249999999982 81.78799999999997 20.240624999999778
    vertex -8.967329700351659 81.71876127901936 22.780624999999777
    vertex -9.493249999999982 81.78799999999997 22.780624999999777
  endloop
endfacet
facet normal 0.38268343236509095 -0.9238795325112864 0.0
  outer loop
    vertex -10.019170299648303 81.71876127901936 22.780624999999777
    vertex -10.509249999999982 81.51576362048995 20.240624999999778
    vertex -10.019170299648303 81.71876127901936 20.240624999999778
  endloop
endfacet
facet normal 0.38268343236509095 -0.9238795325112864 0.0
  outer loop
    vertex -10.509249999999982 81.51576362048995 20.240624999999778
    vertex -10.019170299648303 81.71876127901936 22.780624999999777
    vertex -10.509249999999982 81.51576362048995 22.780624999999777
  endloop
endfacet
facet normal 0.9238795325112867 -0.38268343236508995 0.0
  outer loop
    vertex -11.25301362048996 80.77199999999996 20.240624999999778
    vertex -11.456011279019368 80.28192029964829 22.780624999999777
    vertex -11.456011279019368 80.28192029964829 20.240624999999778
  endloop
endfacet
facet normal 0.9238795325112867 -0.38268343236508995 0.0
  outer loop
    vertex -11.456011279019368 80.28192029964829 22.780624999999777
    vertex -11.25301362048996 80.77199999999996 20.240624999999778
    vertex -11.25301362048996 80.77199999999996 22.780624999999777
  endloop
endfacet
facet normal 0.9914448613738105 -0.1305261922200514 0.0
  outer loop
    vertex -11.456011279019368 80.28192029964829 20.240624999999778
    vertex -11.52524999999998 79.75599999999997 22.780624999999777
    vertex -11.52524999999998 79.75599999999997 20.240624999999778
  endloop
endfacet
facet normal 0.9914448613738105 -0.1305261922200514 0.0
  outer loop
    vertex -11.52524999999998 79.75599999999997 22.780624999999777
    vertex -11.456011279019368 80.28192029964829 20.240624999999778
    vertex -11.456011279019368 80.28192029964829 22.780624999999777
  endloop
endfacet
facet normal 0.7933533402912354 -0.6087614290087203 0.0
  outer loop
    vertex -10.930090979371045 81.19284097937104 20.240624999999778
    vertex -11.25301362048996 80.77199999999996 22.780624999999777
    vertex -11.25301362048996 80.77199999999996 20.240624999999778
  endloop
endfacet
facet normal 0.7933533402912354 -0.6087614290087203 0.0
  outer loop
    vertex -11.25301362048996 80.77199999999996 22.780624999999777
    vertex -10.930090979371045 81.19284097937104 20.240624999999778
    vertex -10.930090979371045 81.19284097937104 22.780624999999777
  endloop
endfacet
facet normal 0.13052619222004877 -0.9914448613738107 0.0
  outer loop
    vertex -9.493249999999982 81.78799999999997 22.780624999999777
    vertex -10.019170299648303 81.71876127901936 20.240624999999778
    vertex -9.493249999999982 81.78799999999997 20.240624999999778
  endloop
endfacet
facet normal 0.13052619222004877 -0.9914448613738107 0.0
  outer loop
    vertex -10.019170299648303 81.71876127901936 20.240624999999778
    vertex -9.493249999999982 81.78799999999997 22.780624999999777
    vertex -10.019170299648303 81.71876127901936 22.780624999999777
  endloop
endfacet
facet normal 0.0 1.0 0.0
  outer loop
    vertex -14.573249999999982 89.02699999999997 22.780624999999777
    vertex -0.7619999999999837 89.02699999999997 20.240624999999778
    vertex -14.573249999999982 89.02699999999997 20.240624999999778
  endloop
endfacet
facet normal 0.0 1.0 0.0
  outer loop
    vertex -0.7619999999999837 89.02699999999997 20.240624999999778
    vertex -14.573249999999982 89.02699999999997 22.780624999999777
    vertex -3.1432499999999837 89.02699999999997 22.780624999999777
  endloop
endfacet
facet normal 0.6087614290087203 -0.7933533402912354 0.0
  outer loop
    vertex -10.509249999999982 81.51576362048995 22.780624999999777
    vertex -10.930090979371045 81.19284097937104 20.240624999999778
    vertex -10.509249999999982 81.51576362048995 20.240624999999778
  endloop
endfacet
facet normal 0.6087614290087203 -0.7933533402912354 0.0
  outer loop
    vertex -10.930090979371045 81.19284097937104 20.240624999999778
    vertex -10.509249999999982 81.51576362048995 22.780624999999777
    vertex -10.930090979371045 81.19284097937104 22.780624999999777
  endloop
endfacet
facet normal 0.0 0.0 1.0
  outer loop
    vertex 89.408 70.485 22.860000000000003
    vertex 77.81924999999998 75.56499999999998 22.860000000000003
    vertex 77.81924999999998 70.485 22.860000000000003
  endloop
endfacet
facet normal 0.0 0.0 1.0
  outer loop
    vertex 77.81924999999998 75.56499999999998 22.860000000000003
    vertex 89.408 70.485 22.860000000000003
    vertex 82.38315902062894 78.31915902062893 22.860000000000003
  endloop
endfacet
facet normal 0.0 0.0 1.0
  outer loop
    vertex 77.81924999999998 75.56499999999998 22.860000000000003
    vertex 82.38315902062894 78.31915902062893 22.860000000000003
    vertex 82.06023637951003 78.74 22.860000000000003
  endloop
endfacet
facet normal 0.0 0.0 1.0
  outer loop
    vertex 77.81924999999998 75.56499999999998 22.860000000000003
    vertex 82.06023637951003 78.74 22.860000000000003
    vertex 81.85723872098062 79.23007970035167 22.860000000000003
  endloop
endfacet
facet normal 0.0 0.0 1.0
  outer loop
    vertex 77.81924999999998 75.56499999999998 22.860000000000003
    vertex 81.85723872098062 79.23007970035167 22.860000000000003
    vertex 77.81924999999998 89.02699999999999 22.860000000000003
  endloop
endfacet
facet normal 0.0 0.0 1.0
  outer loop
    vertex 77.81924999999998 89.02699999999999 22.860000000000003
    vertex 81.85723872098062 79.23007970035167 22.860000000000003
    vertex 81.78799999999998 79.75599999999999 22.860000000000003
  endloop
endfacet
facet normal 0.0 0.0 1.0
  outer loop
    vertex 82.38315902062894 78.31915902062893 22.860000000000003
    vertex 89.408 70.485 22.860000000000003
    vertex 82.80399999999999 77.99623637951001 22.860000000000003
  endloop
endfacet
facet normal 0.0 0.0 1.0
  outer loop
    vertex 82.80399999999999 77.99623637951001 22.860000000000003
    vertex 89.408 70.485 22.860000000000003
    vertex 83.29407970035167 77.79323872098061 22.860000000000003
  endloop
endfacet
facet normal 0.0 0.0 1.0
  outer loop
    vertex 83.29407970035167 77.79323872098061 22.860000000000003
    vertex 89.408 70.485 22.860000000000003
    vertex 83.82 77.724 22.860000000000003
  endloop
endfacet
facet normal 0.0 0.0 1.0
  outer loop
    vertex 83.82 77.724 22.860000000000003
    vertex 89.408 70.485 22.860000000000003
    vertex 84.34592029964831 77.79323872098061 22.860000000000003
  endloop
endfacet
facet normal 0.0 0.0 1.0
  outer loop
    vertex 84.34592029964831 77.79323872098061 22.860000000000003
    vertex 89.408 70.485 22.860000000000003
    vertex 84.836 77.99623637951001 22.860000000000003
  endloop
endfacet
facet normal 0.0 0.0 1.0
  outer loop
    vertex 84.836 77.99623637951001 22.860000000000003
    vertex 89.408 70.485 22.860000000000003
    vertex 85.25684097937106 78.31915902062893 22.860000000000003
  endloop
endfacet
facet normal 0.0 0.0 1.0
  outer loop
    vertex 85.25684097937106 78.31915902062893 22.860000000000003
    vertex 89.408 70.485 22.860000000000003
    vertex 85.57976362048998 78.73999999999998 22.860000000000003
  endloop
endfacet
facet normal 0.0 0.0 1.0
  outer loop
    vertex 85.57976362048998 78.73999999999998 22.860000000000003
    vertex 89.408 70.485 22.860000000000003
    vertex 85.78276127901938 79.23007970035167 22.860000000000003
  endloop
endfacet
facet normal 0.0 0.0 1.0
  outer loop
    vertex 85.78276127901938 79.23007970035167 22.860000000000003
    vertex 89.408 70.485 22.860000000000003
    vertex 85.85199999999999 79.75599999999999 22.860000000000003
  endloop
endfacet
facet normal 0.0 0.0 1.0
  outer loop
    vertex 77.81924999999998 89.02699999999999 22.860000000000003
    vertex 82.38315902062894 81.19284097937106 22.860000000000003
    vertex 89.408 89.02699999999999 22.860000000000003
  endloop
endfacet
facet normal 0.0 0.0 1.0
  outer loop
    vertex 82.38315902062894 81.19284097937106 22.860000000000003
    vertex 77.81924999999998 89.02699999999999 22.860000000000003
    vertex 82.06023637951003 80.77199999999999 22.860000000000003
  endloop
endfacet
facet normal 0.0 0.0 1.0
  outer loop
    vertex 82.06023637951003 80.77199999999999 22.860000000000003
    vertex 77.81924999999998 89.02699999999999 22.860000000000003
    vertex 81.85723872098062 80.2819202996483 22.860000000000003
  endloop
endfacet
facet normal 0.0 0.0 1.0
  outer loop
    vertex 81.85723872098062 80.2819202996483 22.860000000000003
    vertex 77.81924999999998 89.02699999999999 22.860000000000003
    vertex 81.78799999999998 79.75599999999999 22.860000000000003
  endloop
endfacet
facet normal 0.0 0.0 1.0
  outer loop
    vertex 89.408 89.02699999999999 22.860000000000003
    vertex 82.38315902062894 81.19284097937106 22.860000000000003
    vertex 82.80399999999999 81.51576362048998 22.860000000000003
  endloop
endfacet
facet normal 0.0 0.0 1.0
  outer loop
    vertex 89.408 89.02699999999999 22.860000000000003
    vertex 82.80399999999999 81.51576362048998 22.860000000000003
    vertex 83.29407970035167 81.71876127901938 22.860000000000003
  endloop
endfacet
facet normal 0.0 0.0 1.0
  outer loop
    vertex 89.408 89.02699999999999 22.860000000000003
    vertex 83.29407970035167 81.71876127901938 22.860000000000003
    vertex 83.82 81.78799999999998 22.860000000000003
  endloop
endfacet
facet normal 0.0 0.0 1.0
  outer loop
    vertex 89.408 89.02699999999999 22.860000000000003
    vertex 83.82 81.78799999999998 22.860000000000003
    vertex 84.34592029964831 81.71876127901938 22.860000000000003
  endloop
endfacet
facet normal 0.0 0.0 1.0
  outer loop
    vertex 89.408 89.02699999999999 22.860000000000003
    vertex 84.34592029964831 81.71876127901938 22.860000000000003
    vertex 84.836 81.51576362048998 22.860000000000003
  endloop
endfacet
facet normal 0.0 0.0 1.0
  outer loop
    vertex 89.408 89.02699999999999 22.860000000000003
    vertex 84.836 81.51576362048998 22.860000000000003
    vertex 85.25684097937106 81.19284097937106 22.860000000000003
  endloop
endfacet
facet normal 0.0 0.0 1.0
  outer loop
    vertex 89.408 89.02699999999999 22.860000000000003
    vertex 85.25684097937106 81.19284097937106 22.860000000000003
    vertex 85.57976362048998 80.77199999999999 22.860000000000003
  endloop
endfacet
facet normal 0.0 0.0 1.0
  outer loop
    vertex 89.408 89.02699999999999 22.860000000000003
    vertex 85.57976362048998 80.77199999999999 22.860000000000003
    vertex 85.78276127901938 80.2819202996483 22.860000000000003
  endloop
endfacet
facet normal 0.0 0.0 1.0
  outer loop
    vertex 89.408 89.02699999999999 22.860000000000003
    vertex 85.78276127901938 80.2819202996483 22.860000000000003
    vertex 85.85199999999999 79.75599999999999 22.860000000000003
  endloop
endfacet
facet normal 0.0 0.0 1.0
  outer loop
    vertex 89.408 89.02699999999999 22.860000000000003
    vertex 85.85199999999999 79.75599999999999 22.860000000000003
    vertex 89.408 70.485 22.860000000000003
  endloop
endfacet
facet normal 2.2204460492503135e-15 -4.189520847642099e-15 -1.0
  outer loop
    vertex -0.7619999999999837 89.02699999999997 28.574999999999772
    vertex 4.000500000000016 84.32799999999997 28.57499999999983
    vertex -0.7619999999999837 75.56499999999998 28.574999999999886
  endloop
endfacet
facet normal 2.2204460492503135e-15 -4.189520847642099e-15 -1.0
  outer loop
    vertex 4.000500000000016 84.32799999999997 28.57499999999983
    vertex -0.7619999999999837 89.02699999999997 28.574999999999772
    vertex 75.43800000000002 89.02699999999999 28.575
  endloop
endfacet
facet normal 2.2204460492503135e-15 -4.189520847642099e-15 -1.0
  outer loop
    vertex 4.000500000000016 84.32799999999997 28.57499999999983
    vertex 75.43800000000002 89.02699999999999 28.575
    vertex 70.67550000000001 84.32799999999999 28.575
  endloop
endfacet
facet normal 2.2204460492503135e-15 -4.189520847642099e-15 -1.0
  outer loop
    vertex 70.67550000000001 84.32799999999999 28.575
    vertex 75.43800000000002 89.02699999999999 28.575
    vertex 70.67550000000001 80.264 28.575
  endloop
endfacet
facet normal 2.2204460492503135e-15 -4.189520847642099e-15 -1.0
  outer loop
    vertex -0.7619999999999837 75.56499999999998 28.574999999999886
    vertex 4.000500000000016 80.26399999999998 28.57499999999983
    vertex 75.43800000000002 75.56499999999998 28.575
  endloop
endfacet
facet normal 2.2204460492503135e-15 -4.189520847642099e-15 -1.0
  outer loop
    vertex 4.000500000000016 80.26399999999998 28.57499999999983
    vertex -0.7619999999999837 75.56499999999998 28.574999999999886
    vertex 4.000500000000016 84.32799999999997 28.57499999999983
  endloop
endfacet
facet normal 2.2204460492503135e-15 -4.189520847642099e-15 -1.0
  outer loop
    vertex 75.43800000000002 75.56499999999998 28.575
    vertex 4.000500000000016 80.26399999999998 28.57499999999983
    vertex 70.67550000000001 80.264 28.575
  endloop
endfacet
facet normal 2.2204460492503135e-15 -4.189520847642099e-15 -1.0
  outer loop
    vertex 75.43800000000002 75.56499999999998 28.575
    vertex 70.67550000000001 80.264 28.575
    vertex 75.43800000000002 89.02699999999999 28.575
  endloop
endfacet
facet normal 0.0 -1.0 0.0
  outer loop
    vertex -3.1432499999999837 70.48499999999997 22.780624999999777
    vertex -14.573249999999982 70.48499999999997 20.240624999999778
    vertex -3.1432499999999837 70.48499999999997 20.240624999999778
  endloop
endfacet
facet normal 0.0 -1.0 0.0
  outer loop
    vertex -14.573249999999982 70.48499999999997 20.240624999999778
    vertex -3.1432499999999837 70.48499999999997 22.780624999999777
    vertex -14.573249999999982 70.48499999999997 22.780624999999777
  endloop
endfacet
facet normal 0.0 0.0 1.0
  outer loop
    vertex -0.7619999999999837 70.48499999999997 22.780624999999777
    vertex -3.1432499999999837 75.56499999999998 22.780624999999777
    vertex -3.1432499999999837 70.48499999999997 22.780624999999777
  endloop
endfacet
facet normal 0.0 0.0 1.0
  outer loop
    vertex -3.1432499999999837 75.56499999999998 22.780624999999777
    vertex -0.7619999999999837 70.48499999999997 22.780624999999777
    vertex -0.7619999999999837 75.56499999999998 22.780624999999777
  endloop
endfacet
facet normal 0.0 -1.0 0.0
  outer loop
    vertex -0.7619999999999837 70.48499999999997 22.780624999999777
    vertex -3.1432499999999837 70.48499999999997 20.240624999999778
    vertex -0.7619999999999837 70.48499999999997 20.240624999999778
  endloop
endfacet
facet normal 0.0 -1.0 0.0
  outer loop
    vertex -3.1432499999999837 70.48499999999997 20.240624999999778
    vertex -0.7619999999999837 70.48499999999997 22.780624999999777
    vertex -3.1432499999999837 70.48499999999997 22.780624999999777
  endloop
endfacet
facet normal -1.0 0.0 0.0
  outer loop
    vertex 75.43800000000002 78.23766117591391 22.860000000000003
    vertex 75.43800000000002 75.56499999999998 20.320000000000004
    vertex 75.43800000000002 75.56499999999998 22.860000000000003
  endloop
endfacet
facet normal -1.0 0.0 0.0
  outer loop
    vertex 75.43800000000002 75.56499999999998 20.320000000000004
    vertex 75.43800000000002 78.23766117591391 22.860000000000003
    vertex 75.43800000000002 78.4352 20.320000000000004
  endloop
endfacet
facet normal -1.0 0.0 0.0
  outer loop
    vertex 75.43800000000002 78.4352 20.320000000000004
    vertex 75.43800000000002 78.23766117591391 22.860000000000003
    vertex 75.43800000000002 78.4352 22.860000000000003
  endloop
endfacet
facet normal 0.0 -1.0 0.0
  outer loop
    vertex 89.408 70.485 22.860000000000003
    vertex 75.43800000000002 70.485 20.320000000000004
    vertex 89.408 70.485 20.320000000000004
  endloop
endfacet
facet normal 0.0 -1.0 0.0
  outer loop
    vertex 75.43800000000002 70.485 20.320000000000004
    vertex 89.408 70.485 22.860000000000003
    vertex 75.43800000000002 70.485 22.860000000000003
  endloop
endfacet
facet normal 0.0 -1.0 0.0
  outer loop
    vertex 75.43800000000002 70.485 22.860000000000003
    vertex 89.408 70.485 22.860000000000003
    vertex 77.81924999999998 70.485 22.860000000000003
  endloop
endfacet
facet normal -1.0 0.0 0.0
  outer loop
    vertex 75.43800000000002 75.56499999999998 22.860000000000003
    vertex 75.43800000000002 70.485 20.320000000000004
    vertex 75.43800000000002 70.485 22.860000000000003
  endloop
endfacet
facet normal -1.0 0.0 0.0
  outer loop
    vertex 75.43800000000002 70.485 20.320000000000004
    vertex 75.43800000000002 75.56499999999998 22.860000000000003
    vertex 75.43800000000002 75.56499999999998 20.320000000000004
  endloop
endfacet
facet normal 0.0 0.0 1.0
  outer loop
    vertex 77.81924999999998 70.485 22.860000000000003
    vertex 75.43800000000002 75.56499999999998 22.860000000000003
    vertex 75.43800000000002 70.485 22.860000000000003
  endloop
endfacet
facet normal 0.0 0.0 1.0
  outer loop
    vertex 75.43800000000002 75.56499999999998 22.860000000000003
    vertex 77.81924999999998 70.485 22.860000000000003
    vertex 77.81924999999998 75.56499999999998 22.860000000000003
  endloop
endfacet
facet normal -2.899616169030685e-15 -1.0 1.162581954564164e-15
  outer loop
    vertex 77.81924999999998 75.56499999999998 31.115000000000002
    vertex 75.43800000000002 75.56499999999998 22.860000000000003
    vertex 77.81924999999998 75.56499999999998 22.860000000000003
  endloop
endfacet
facet normal -2.899616169030685e-15 -1.0 1.162581954564164e-15
  outer loop
    vertex 75.43800000000002 75.56499999999998 22.860000000000003
    vertex 77.81924999999998 75.56499999999998 31.115000000000002
    vertex 75.43800000000002 75.56499999999998 28.575
  endloop
endfacet
facet normal -2.899616169030685e-15 -1.0 1.162581954564164e-15
  outer loop
    vertex 75.43800000000002 75.56499999999998 28.575
    vertex 77.81924999999998 75.56499999999998 31.115000000000002
    vertex 75.43799999999999 75.56500000000001 31.115000000000002
  endloop
endfacet
facet normal 1.0 0.0 0.0
  outer loop
    vertex 77.81924999999998 89.02699999999999 22.860000000000003
    vertex 77.81924999999998 75.56499999999998 31.115000000000002
    vertex 77.81924999999998 75.56499999999998 22.860000000000003
  endloop
endfacet
facet normal 1.0 0.0 0.0
  outer loop
    vertex 77.81924999999998 75.56499999999998 31.115000000000002
    vertex 77.81924999999998 89.02699999999999 22.860000000000003
    vertex 77.81924999999998 89.02699999999999 31.115000000000002
  endloop
endfacet
facet normal -6.56973222629374e-30 -1.0 4.440892098500628e-15
  outer loop
    vertex 75.43800000000002 75.56499999999998 28.575
    vertex -0.7619999999999894 75.56500000000001 31.11499999999989
    vertex -0.7619999999999837 75.56499999999998 28.574999999999886
  endloop
endfacet
facet normal -6.56973222629374e-30 -1.0 4.440892098500628e-15
  outer loop
    vertex -0.7619999999999894 75.56500000000001 31.11499999999989
    vertex 75.43800000000002 75.56499999999998 28.575
    vertex 75.43799999999999 75.56500000000001 31.115000000000002
  endloop
endfacet
facet normal 2.17888907731939e-15 -4.241889858237625e-15 -1.0
  outer loop
    vertex -0.7619999999999894 89.02699999999999 31.114999999999775
    vertex -3.1432499999999877 75.56500000000001 31.11499999999989
    vertex -3.1432499999999877 89.02699999999999 31.114999999999768
  endloop
endfacet
facet normal 2.17888907731939e-15 -4.241889858237625e-15 -1.0
  outer loop
    vertex -3.1432499999999877 75.56500000000001 31.11499999999989
    vertex -0.7619999999999894 89.02699999999999 31.114999999999775
    vertex -0.7619999999999894 75.56500000000001 31.11499999999989
  endloop
endfacet
facet normal 2.17888907731939e-15 -4.241889858237625e-15 -1.0
  outer loop
    vertex -0.7619999999999894 75.56500000000001 31.11499999999989
    vertex -0.7619999999999894 89.02699999999999 31.114999999999775
    vertex 4.00050000000001 84.32799999999999 31.11499999999983
  endloop
endfacet
facet normal 2.17888907731939e-15 -4.241889858237625e-15 -1.0
  outer loop
    vertex 4.00050000000001 84.32799999999999 31.11499999999983
    vertex -0.7619999999999894 89.02699999999999 31.114999999999775
    vertex 75.43799999999999 89.027 31.115000000000002
  endloop
endfacet
facet normal 2.17888907731939e-15 -4.241889858237625e-15 -1.0
  outer loop
    vertex 4.00050000000001 84.32799999999999 31.11499999999983
    vertex 75.43799999999999 89.027 31.115000000000002
    vertex 70.67549999999999 84.328 31.115000000000002
  endloop
endfacet
facet normal 2.17888907731939e-15 -4.241889858237625e-15 -1.0
  outer loop
    vertex 70.67549999999999 84.328 31.115000000000002
    vertex 75.43799999999999 89.027 31.115000000000002
    vertex 70.67549999999999 80.26400000000001 31.115000000000002
  endloop
endfacet
facet normal 2.17888907731939e-15 -4.241889858237625e-15 -1.0
  outer loop
    vertex -0.7619999999999894 75.56500000000001 31.11499999999989
    vertex 4.00050000000001 80.264 31.11499999999983
    vertex 75.43799999999999 75.56500000000001 31.115000000000002
  endloop
endfacet
facet normal 2.17888907731939e-15 -4.241889858237625e-15 -1.0
  outer loop
    vertex 4.00050000000001 80.264 31.11499999999983
    vertex -0.7619999999999894 75.56500000000001 31.11499999999989
    vertex 4.00050000000001 84.32799999999999 31.11499999999983
  endloop
endfacet
facet normal 2.17888907731939e-15 -4.241889858237625e-15 -1.0
  outer loop
    vertex 75.43799999999999 75.56500000000001 31.115000000000002
    vertex 4.00050000000001 80.264 31.11499999999983
    vertex 70.67549999999999 80.26400000000001 31.115000000000002
  endloop
endfacet
facet normal 2.17888907731939e-15 -4.241889858237625e-15 -1.0
  outer loop
    vertex 75.43799999999999 75.56500000000001 31.115000000000002
    vertex 70.67549999999999 80.26400000000001 31.115000000000002
    vertex 75.43799999999999 89.027 31.115000000000002
  endloop
endfacet
facet normal 2.17888907731939e-15 -4.241889858237625e-15 -1.0
  outer loop
    vertex 75.43799999999999 75.56500000000001 31.115000000000002
    vertex 75.43799999999999 89.027 31.115000000000002
    vertex 77.81924999999998 89.02699999999999 31.115000000000002
  endloop
endfacet
facet normal 2.17888907731939e-15 -4.241889858237625e-15 -1.0
  outer loop
    vertex 75.43799999999999 75.56500000000001 31.115000000000002
    vertex 77.81924999999998 89.02699999999999 31.115000000000002
    vertex 77.81924999999998 75.56499999999998 31.115000000000002
  endloop
endfacet
facet normal 0.923879532511288 0.38268343236508734 0.0
  outer loop
    vertex 81.85723872098062 79.23007970035167 20.320000000000004
    vertex 82.06023637951003 78.74 22.860000000000003
    vertex 82.06023637951003 78.74 20.320000000000004
  endloop
endfacet
facet normal 0.923879532511288 0.38268343236508734 0.0
  outer loop
    vertex 82.06023637951003 78.74 22.860000000000003
    vertex 81.85723872098062 79.23007970035167 20.320000000000004
    vertex 81.85723872098062 79.23007970035167 22.860000000000003
  endloop
endfacet
facet normal -0.38268343236508995 0.9238795325112867 0.0
  outer loop
    vertex 84.34592029964831 77.79323872098061 22.860000000000003
    vertex 84.836 77.99623637951001 20.320000000000004
    vertex 84.34592029964831 77.79323872098061 20.320000000000004
  endloop
endfacet
facet normal -0.38268343236508995 0.9238795325112867 0.0
  outer loop
    vertex 84.836 77.99623637951001 20.320000000000004
    vertex 84.34592029964831 77.79323872098061 22.860000000000003
    vertex 84.836 77.99623637951001 22.860000000000003
  endloop
endfacet
facet normal 0.7933533402912328 -0.6087614290087237 0.0
  outer loop
    vertex 82.38315902062894 81.19284097937106 20.320000000000004
    vertex 82.06023637951003 80.77199999999999 22.860000000000003
    vertex 82.06023637951003 80.77199999999999 20.320000000000004
  endloop
endfacet
facet normal 0.7933533402912328 -0.6087614290087237 0.0
  outer loop
    vertex 82.06023637951003 80.77199999999999 22.860000000000003
    vertex 82.38315902062894 81.19284097937106 20.320000000000004
    vertex 82.38315902062894 81.19284097937106 22.860000000000003
  endloop
endfacet
facet normal 0.9238795325112885 -0.3826834323650854 0.0
  outer loop
    vertex 82.06023637951003 80.77199999999999 20.320000000000004
    vertex 81.85723872098062 80.2819202996483 22.860000000000003
    vertex 81.85723872098062 80.2819202996483 20.320000000000004
  endloop
endfacet
facet normal 0.9238795325112885 -0.3826834323650854 0.0
  outer loop
    vertex 81.85723872098062 80.2819202996483 22.860000000000003
    vertex 82.06023637951003 80.77199999999999 20.320000000000004
    vertex 82.06023637951003 80.77199999999999 22.860000000000003
  endloop
endfacet
facet normal -0.923879532511288 -0.38268343236508734 -0.0
  outer loop
    vertex 85.57976362048998 80.77199999999999 22.860000000000003
    vertex 85.78276127901938 80.2819202996483 20.320000000000004
    vertex 85.78276127901938 80.2819202996483 22.860000000000003
  endloop
endfacet
facet normal -0.923879532511288 -0.38268343236508734 -0.0
  outer loop
    vertex 85.78276127901938 80.2819202996483 20.320000000000004
    vertex 85.57976362048998 80.77199999999999 22.860000000000003
    vertex 85.57976362048998 80.77199999999999 20.320000000000004
  endloop
endfacet
facet normal -0.9914448613738087 0.13052619222006445 0.0
  outer loop
    vertex 85.85199999999999 79.75599999999999 22.860000000000003
    vertex 85.78276127901938 79.23007970035167 20.320000000000004
    vertex 85.78276127901938 79.23007970035167 22.860000000000003
  endloop
endfacet
facet normal -0.9914448613738087 0.13052619222006445 0.0
  outer loop
    vertex 85.78276127901938 79.23007970035167 20.320000000000004
    vertex 85.85199999999999 79.75599999999999 22.860000000000003
    vertex 85.85199999999999 79.75599999999999 20.320000000000004
  endloop
endfacet
facet normal -0.38268343236508995 -0.9238795325112867 -0.0
  outer loop
    vertex 84.836 81.51576362048998 22.860000000000003
    vertex 84.34592029964831 81.71876127901938 20.320000000000004
    vertex 84.836 81.51576362048998 20.320000000000004
  endloop
endfacet
facet normal -0.38268343236508995 -0.9238795325112867 -0.0
  outer loop
    vertex 84.34592029964831 81.71876127901938 20.320000000000004
    vertex 84.836 81.51576362048998 22.860000000000003
    vertex 84.34592029964831 81.71876127901938 22.860000000000003
  endloop
endfacet
facet normal 0.38268343236508995 -0.9238795325112867 0.0
  outer loop
    vertex 83.29407970035167 81.71876127901938 22.860000000000003
    vertex 82.80399999999999 81.51576362048998 20.320000000000004
    vertex 83.29407970035167 81.71876127901938 20.320000000000004
  endloop
endfacet
facet normal 0.38268343236508995 -0.9238795325112867 0.0
  outer loop
    vertex 82.80399999999999 81.51576362048998 20.320000000000004
    vertex 83.29407970035167 81.71876127901938 22.860000000000003
    vertex 82.80399999999999 81.51576362048998 22.860000000000003
  endloop
endfacet
facet normal -0.9914448613738087 -0.13052619222006445 -0.0
  outer loop
    vertex 85.78276127901938 80.2819202996483 22.860000000000003
    vertex 85.85199999999999 79.75599999999999 20.320000000000004
    vertex 85.85199999999999 79.75599999999999 22.860000000000003
  endloop
endfacet
facet normal -0.9914448613738087 -0.13052619222006445 -0.0
  outer loop
    vertex 85.85199999999999 79.75599999999999 20.320000000000004
    vertex 85.78276127901938 80.2819202996483 22.860000000000003
    vertex 85.78276127901938 80.2819202996483 20.320000000000004
  endloop
endfacet
facet normal -0.7933533402912328 0.6087614290087237 0.0
  outer loop
    vertex 85.57976362048998 78.73999999999998 22.860000000000003
    vertex 85.25684097937106 78.31915902062893 20.320000000000004
    vertex 85.25684097937106 78.31915902062893 22.860000000000003
  endloop
endfacet
facet normal -0.7933533402912328 0.6087614290087237 0.0
  outer loop
    vertex 85.25684097937106 78.31915902062893 20.320000000000004
    vertex 85.57976362048998 78.73999999999998 22.860000000000003
    vertex 85.57976362048998 78.73999999999998 20.320000000000004
  endloop
endfacet
facet normal 0.6087614290087255 -0.7933533402912316 0.0
  outer loop
    vertex 82.80399999999999 81.51576362048998 22.860000000000003
    vertex 82.38315902062894 81.19284097937106 20.320000000000004
    vertex 82.80399999999999 81.51576362048998 20.320000000000004
  endloop
endfacet
facet normal 0.6087614290087255 -0.7933533402912316 0.0
  outer loop
    vertex 82.38315902062894 81.19284097937106 20.320000000000004
    vertex 82.80399999999999 81.51576362048998 22.860000000000003
    vertex 82.38315902062894 81.19284097937106 22.860000000000003
  endloop
endfacet
facet normal 0.9914448613738087 -0.13052619222006445 0.0
  outer loop
    vertex 81.85723872098062 80.2819202996483 20.320000000000004
    vertex 81.78799999999998 79.75599999999999 22.860000000000003
    vertex 81.78799999999998 79.75599999999999 20.320000000000004
  endloop
endfacet
facet normal 0.9914448613738087 -0.13052619222006445 0.0
  outer loop
    vertex 81.78799999999998 79.75599999999999 22.860000000000003
    vertex 81.85723872098062 80.2819202996483 20.320000000000004
    vertex 81.85723872098062 80.2819202996483 22.860000000000003
  endloop
endfacet
facet normal -0.6087614290087255 -0.7933533402912316 -0.0
  outer loop
    vertex 85.25684097937106 81.19284097937106 22.860000000000003
    vertex 84.836 81.51576362048998 20.320000000000004
    vertex 85.25684097937106 81.19284097937106 20.320000000000004
  endloop
endfacet
facet normal -0.6087614290087255 -0.7933533402912316 -0.0
  outer loop
    vertex 84.836 81.51576362048998 20.320000000000004
    vertex 85.25684097937106 81.19284097937106 22.860000000000003
    vertex 84.836 81.51576362048998 22.860000000000003
  endloop
endfacet
facet normal -0.13052619222005402 -0.9914448613738102 -0.0
  outer loop
    vertex 84.34592029964831 81.71876127901938 22.860000000000003
    vertex 83.82 81.78799999999998 20.320000000000004
    vertex 84.34592029964831 81.71876127901938 20.320000000000004
  endloop
endfacet
facet normal -0.13052619222005402 -0.9914448613738102 -0.0
  outer loop
    vertex 83.82 81.78799999999998 20.320000000000004
    vertex 84.34592029964831 81.71876127901938 22.860000000000003
    vertex 83.82 81.78799999999998 22.860000000000003
  endloop
endfacet
facet normal -0.13052619222004877 0.9914448613738107 0.0
  outer loop
    vertex 83.82 77.724 22.860000000000003
    vertex 84.34592029964831 77.79323872098061 20.320000000000004
    vertex 83.82 77.724 20.320000000000004
  endloop
endfacet
facet normal -0.13052619222004877 0.9914448613738107 0.0
  outer loop
    vertex 84.34592029964831 77.79323872098061 20.320000000000004
    vertex 83.82 77.724 22.860000000000003
    vertex 84.34592029964831 77.79323872098061 22.860000000000003
  endloop
endfacet
facet normal 0.3826834323650854 0.9238795325112885 0.0
  outer loop
    vertex 82.80399999999999 77.99623637951001 22.860000000000003
    vertex 83.29407970035167 77.79323872098061 20.320000000000004
    vertex 82.80399999999999 77.99623637951001 20.320000000000004
  endloop
endfacet
facet normal 0.3826834323650854 0.9238795325112885 0.0
  outer loop
    vertex 83.29407970035167 77.79323872098061 20.320000000000004
    vertex 82.80399999999999 77.99623637951001 22.860000000000003
    vertex 83.29407970035167 77.79323872098061 22.860000000000003
  endloop
endfacet
facet normal 0.9914448613738087 0.13052619222006445 0.0
  outer loop
    vertex 81.78799999999998 79.75599999999999 20.320000000000004
    vertex 81.85723872098062 79.23007970035167 22.860000000000003
    vertex 81.85723872098062 79.23007970035167 20.320000000000004
  endloop
endfacet
facet normal 0.9914448613738087 0.13052619222006445 0.0
  outer loop
    vertex 81.85723872098062 79.23007970035167 22.860000000000003
    vertex 81.78799999999998 79.75599999999999 20.320000000000004
    vertex 81.78799999999998 79.75599999999999 22.860000000000003
  endloop
endfacet
facet normal -0.9238795325112885 0.3826834323650854 0.0
  outer loop
    vertex 85.78276127901938 79.23007970035167 22.860000000000003
    vertex 85.57976362048998 78.73999999999998 20.320000000000004
    vertex 85.57976362048998 78.73999999999998 22.860000000000003
  endloop
endfacet
facet normal -0.9238795325112885 0.3826834323650854 0.0
  outer loop
    vertex 85.57976362048998 78.73999999999998 20.320000000000004
    vertex 85.78276127901938 79.23007970035167 22.860000000000003
    vertex 85.78276127901938 79.23007970035167 20.320000000000004
  endloop
endfacet
facet normal 0.13052619222004877 -0.9914448613738107 0.0
  outer loop
    vertex 83.82 81.78799999999998 22.860000000000003
    vertex 83.29407970035167 81.71876127901938 20.320000000000004
    vertex 83.82 81.78799999999998 20.320000000000004
  endloop
endfacet
facet normal 0.13052619222004877 -0.9914448613738107 0.0
  outer loop
    vertex 83.29407970035167 81.71876127901938 20.320000000000004
    vertex 83.82 81.78799999999998 22.860000000000003
    vertex 83.29407970035167 81.71876127901938 22.860000000000003
  endloop
endfacet
facet normal 0.6087614290087255 0.7933533402912316 0.0
  outer loop
    vertex 82.38315902062894 78.31915902062893 22.860000000000003
    vertex 82.80399999999999 77.99623637951001 20.320000000000004
    vertex 82.38315902062894 78.31915902062893 20.320000000000004
  endloop
endfacet
facet normal 0.6087614290087255 0.7933533402912316 0.0
  outer loop
    vertex 82.80399999999999 77.99623637951001 20.320000000000004
    vertex 82.38315902062894 78.31915902062893 22.860000000000003
    vertex 82.80399999999999 77.99623637951001 22.860000000000003
  endloop
endfacet
facet normal -0.6087614290087255 0.7933533402912316 0.0
  outer loop
    vertex 84.836 77.99623637951001 22.860000000000003
    vertex 85.25684097937106 78.31915902062893 20.320000000000004
    vertex 84.836 77.99623637951001 20.320000000000004
  endloop
endfacet
facet normal -0.6087614290087255 0.7933533402912316 0.0
  outer loop
    vertex 85.25684097937106 78.31915902062893 20.320000000000004
    vertex 84.836 77.99623637951001 22.860000000000003
    vertex 85.25684097937106 78.31915902062893 22.860000000000003
  endloop
endfacet
facet normal 0.7933533402912348 0.6087614290087211 0.0
  outer loop
    vertex 82.06023637951003 78.74 20.320000000000004
    vertex 82.38315902062894 78.31915902062893 22.860000000000003
    vertex 82.38315902062894 78.31915902062893 20.320000000000004
  endloop
endfacet
facet normal 0.7933533402912348 0.6087614290087211 0.0
  outer loop
    vertex 82.38315902062894 78.31915902062893 22.860000000000003
    vertex 82.06023637951003 78.74 20.320000000000004
    vertex 82.06023637951003 78.74 22.860000000000003
  endloop
endfacet
facet normal 0.13052619222005402 0.9914448613738102 0.0
  outer loop
    vertex 83.29407970035167 77.79323872098061 22.860000000000003
    vertex 83.82 77.724 20.320000000000004
    vertex 83.29407970035167 77.79323872098061 20.320000000000004
  endloop
endfacet
facet normal 0.13052619222005402 0.9914448613738102 0.0
  outer loop
    vertex 83.82 77.724 20.320000000000004
    vertex 83.29407970035167 77.79323872098061 22.860000000000003
    vertex 83.82 77.724 22.860000000000003
  endloop
endfacet
facet normal -0.7933533402912328 -0.6087614290087237 -0.0
  outer loop
    vertex 85.25684097937106 81.19284097937106 22.860000000000003
    vertex 85.57976362048998 80.77199999999999 20.320000000000004
    vertex 85.57976362048998 80.77199999999999 22.860000000000003
  endloop
endfacet
facet normal -0.7933533402912328 -0.6087614290087237 -0.0
  outer loop
    vertex 85.57976362048998 80.77199999999999 20.320000000000004
    vertex 85.25684097937106 81.19284097937106 22.860000000000003
    vertex 85.25684097937106 81.19284097937106 20.320000000000004
  endloop
endfacet
facet normal 1.0 0.0 0.0
  outer loop
    vertex -3.1432499999999837 89.02699999999997 22.780624999999777
    vertex -3.1432499999999877 75.56500000000001 31.11499999999989
    vertex -3.1432499999999837 75.56499999999998 22.780624999999777
  endloop
endfacet
facet normal 1.0 0.0 0.0
  outer loop
    vertex -3.1432499999999877 75.56500000000001 31.11499999999989
    vertex -3.1432499999999837 89.02699999999997 22.780624999999777
    vertex -3.1432499999999877 89.02699999999999 31.114999999999768
  endloop
endfacet
facet normal 3.589359391487447e-15 1.0 -1.893914679503826e-15
  outer loop
    vertex -3.1432499999999877 75.56500000000001 31.11499999999989
    vertex -0.7619999999999837 75.56499999999998 22.780624999999777
    vertex -3.1432499999999837 75.56499999999998 22.780624999999777
  endloop
endfacet
facet normal 3.589359391487447e-15 1.0 -1.893914679503826e-15
  outer loop
    vertex -0.7619999999999837 75.56499999999998 22.780624999999777
    vertex -3.1432499999999877 75.56500000000001 31.11499999999989
    vertex -0.7619999999999837 75.56499999999998 28.574999999999886
  endloop
endfacet
facet normal 3.589359391487447e-15 1.0 -1.893914679503826e-15
  outer loop
    vertex -0.7619999999999837 75.56499999999998 28.574999999999886
    vertex -3.1432499999999877 75.56500000000001 31.11499999999989
    vertex -0.7619999999999894 75.56500000000001 31.11499999999989
  endloop
endfacet
facet normal 2.5361919644088296e-15 1.0 -1.3508667021718147e-15
  outer loop
    vertex -3.1432499999999837 89.02699999999997 22.780624999999777
    vertex -0.7619999999999837 89.02699999999997 22.780624999999777
    vertex -0.7619999999999837 89.02699999999997 20.240624999999778
  endloop
endfacet
facet normal 2.5361919644088296e-15 1.0 -1.3508667021718147e-15
  outer loop
    vertex -0.7619999999999837 89.02699999999997 22.780624999999777
    vertex -3.1432499999999837 89.02699999999997 22.780624999999777
    vertex -3.1432499999999877 89.02699999999999 31.114999999999768
  endloop
endfacet
facet normal 2.5361919644088296e-15 1.0 -1.3508667021718147e-15
  outer loop
    vertex -0.7619999999999837 89.02699999999997 22.780624999999777
    vertex -3.1432499999999877 89.02699999999999 31.114999999999768
    vertex -0.7619999999999837 89.02699999999997 28.574999999999772
  endloop
endfacet
facet normal 2.5361919644088296e-15 1.0 -1.3508667021718147e-15
  outer loop
    vertex -0.7619999999999837 89.02699999999997 28.574999999999772
    vertex -3.1432499999999877 89.02699999999999 31.114999999999768
    vertex -0.7619999999999894 89.02699999999999 31.114999999999775
  endloop
endfacet
facet normal -2.9605947323336195e-16 1.0 -4.4408920985006285e-15
  outer loop
    vertex -0.7619999999999894 89.02699999999999 31.114999999999775
    vertex 75.43800000000002 89.02699999999999 28.575
    vertex -0.7619999999999837 89.02699999999997 28.574999999999772
  endloop
endfacet
facet normal -2.9605947323336195e-16 1.0 -4.4408920985006285e-15
  outer loop
    vertex 75.43800000000002 89.02699999999999 28.575
    vertex -0.7619999999999894 89.02699999999999 31.114999999999775
    vertex 75.43799999999999 89.027 31.115000000000002
  endloop
endfacet
facet normal 1.0 0.0 2.2204460492503135e-15
  outer loop
    vertex 4.000500000000016 84.32799999999997 28.57499999999983
    vertex 4.00050000000001 80.264 31.11499999999983
    vertex 4.000500000000016 80.26399999999998 28.57499999999983
  endloop
endfacet
facet normal 1.0 0.0 2.2204460492503135e-15
  outer loop
    vertex 4.00050000000001 80.264 31.11499999999983
    vertex 4.000500000000016 84.32799999999997 28.57499999999983
    vertex 4.00050000000001 84.32799999999999 31.11499999999983
  endloop
endfacet
facet normal 1.6917684184763227e-16 -1.0 4.189520847642099e-15
  outer loop
    vertex 70.67550000000001 84.32799999999999 28.575
    vertex 4.00050000000001 84.32799999999999 31.11499999999983
    vertex 4.000500000000016 84.32799999999997 28.57499999999983
  endloop
endfacet
facet normal 1.6917684184763227e-16 -1.0 4.189520847642099e-15
  outer loop
    vertex 4.00050000000001 84.32799999999999 31.11499999999983
    vertex 70.67550000000001 84.32799999999999 28.575
    vertex 70.67549999999999 84.328 31.115000000000002
  endloop
endfacet
facet normal -1.0 0.0 0.0
  outer loop
    vertex -0.7619999999999837 89.02699999999997 28.574999999999772
    vertex -0.7619999999999837 75.56499999999998 22.780624999999777
    vertex -0.7619999999999837 75.56499999999998 28.574999999999886
  endloop
endfacet
facet normal -1.0 0.0 0.0
  outer loop
    vertex -0.7619999999999837 75.56499999999998 22.780624999999777
    vertex -0.7619999999999837 89.02699999999997 28.574999999999772
    vertex -0.7619999999999837 78.48599999999996 22.780624999999777
  endloop
endfacet
facet normal -1.0 0.0 0.0
  outer loop
    vertex -0.7619999999999837 78.48599999999996 22.780624999999777
    vertex -0.7619999999999837 89.02699999999997 28.574999999999772
    vertex -0.7619999999999837 81.02599999999995 22.780624999999777
  endloop
endfacet
facet normal -1.0 0.0 0.0
  outer loop
    vertex -0.7619999999999837 81.02599999999995 22.780624999999777
    vertex -0.7619999999999837 89.02699999999997 28.574999999999772
    vertex -0.7619999999999837 89.02699999999997 22.780624999999777
  endloop
endfacet
facet normal 4.250410844818031e-17 1.0 -4.3908089399622253e-16
  outer loop
    vertex 75.43800000000002 89.02699999999999 28.575
    vertex 77.81924999999998 89.02699999999999 22.860000000000003
    vertex 75.43800000000002 89.02699999999999 22.860000000000003
  endloop
endfacet
facet normal 4.250410844818031e-17 1.0 -4.3908089399622253e-16
  outer loop
    vertex 77.81924999999998 89.02699999999999 22.860000000000003
    vertex 75.43800000000002 89.02699999999999 28.575
    vertex 77.81924999999998 89.02699999999999 31.115000000000002
  endloop
endfacet
facet normal 4.250410844818031e-17 1.0 -4.3908089399622253e-16
  outer loop
    vertex 77.81924999999998 89.02699999999999 31.115000000000002
    vertex 75.43800000000002 89.02699999999999 28.575
    vertex 75.43799999999999 89.027 31.115000000000002
  endloop
endfacet
facet normal 4.250410844818031e-17 1.0 -4.3908089399622253e-16
  outer loop
    vertex 75.43800000000002 89.02699999999999 22.860000000000003
    vertex 89.408 89.02699999999999 20.320000000000004
    vertex 75.43799999999999 89.02699999999999 20.320000000000004
  endloop
endfacet
facet normal 4.250410844818031e-17 1.0 -4.3908089399622253e-16
  outer loop
    vertex 89.408 89.02699999999999 20.320000000000004
    vertex 75.43800000000002 89.02699999999999 22.860000000000003
    vertex 89.408 89.02699999999999 22.860000000000003
  endloop
endfacet
facet normal 4.250410844818031e-17 1.0 -4.3908089399622253e-16
  outer loop
    vertex 89.408 89.02699999999999 22.860000000000003
    vertex 75.43800000000002 89.02699999999999 22.860000000000003
    vertex 77.81924999999998 89.02699999999999 22.860000000000003
  endloop
endfacet
facet normal -1.6917684184763227e-16 1.0 -4.189520847642099e-15
  outer loop
    vertex 4.00050000000001 80.264 31.11499999999983
    vertex 70.67550000000001 80.264 28.575
    vertex 4.000500000000016 80.26399999999998 28.57499999999983
  endloop
endfacet
facet normal -1.6917684184763227e-16 1.0 -4.189520847642099e-15
  outer loop
    vertex 70.67550000000001 80.264 28.575
    vertex 4.00050000000001 80.264 31.11499999999983
    vertex 70.67549999999999 80.26400000000001 31.115000000000002
  endloop
endfacet
facet normal -1.0 0.0 -2.2204460492503135e-15
  outer loop
    vertex 70.67549999999999 80.26400000000001 31.115000000000002
    vertex 70.67550000000001 84.32799999999999 28.575
    vertex 70.67550000000001 80.264 28.575
  endloop
endfacet
facet normal -1.0 0.0 -2.2204460492503135e-15
  outer loop
    vertex 70.67550000000001 84.32799999999999 28.575
    vertex 70.67549999999999 80.26400000000001 31.115000000000002
    vertex 70.67549999999999 84.328 31.115000000000002
  endloop
endfacet
facet normal 1.0 0.0 0.0
  outer loop
    vertex 89.408 89.02699999999999 20.320000000000004
    vertex 89.408 70.485 22.860000000000003
    vertex 89.408 70.485 20.320000000000004
  endloop
endfacet
facet normal 1.0 0.0 0.0
  outer loop
    vertex 89.408 70.485 22.860000000000003
    vertex 89.408 89.02699999999999 20.320000000000004
    vertex 89.408 89.02699999999999 22.860000000000003
  endloop
endfacet
facet normal -1.0 0.0 0.0
  outer loop
    vertex -0.7619999999999837 89.02699999999997 22.780624999999777
    vertex -0.7619999999999837 81.02599999999995 20.240624999999778
    vertex -0.7619999999999837 81.02599999999995 22.780624999999777
  endloop
endfacet
facet normal -1.0 0.0 0.0
  outer loop
    vertex -0.7619999999999837 81.02599999999995 20.240624999999778
    vertex -0.7619999999999837 89.02699999999997 22.780624999999777
    vertex -0.7619999999999837 89.02699999999997 20.240624999999778
  endloop
endfacet
facet normal -1.0 0.0 0.0
  outer loop
    vertex -0.7619999999999837 75.56499999999998 22.780624999999777
    vertex -0.7619999999999837 70.48499999999997 20.240624999999778
    vertex -0.7619999999999837 70.48499999999997 22.780624999999777
  endloop
endfacet
facet normal -1.0 0.0 0.0
  outer loop
    vertex -0.7619999999999837 70.48499999999997 20.240624999999778
    vertex -0.7619999999999837 75.56499999999998 22.780624999999777
    vertex -0.7619999999999837 78.48599999999996 20.240624999999778
  endloop
endfacet
facet normal -1.0 0.0 0.0
  outer loop
    vertex -0.7619999999999837 78.48599999999996 20.240624999999778
    vertex -0.7619999999999837 75.56499999999998 22.780624999999777
    vertex -0.7619999999999837 78.48599999999996 22.780624999999777
  endloop
endfacet
facet normal -1.0 0.0 0.0
  outer loop
    vertex 2.4130000000000162 81.02599999999995 22.780624999999777
    vertex 2.4130000000000162 78.48599999999996 16.684624999999777
    vertex 2.4130000000000162 78.48599999999996 22.780624999999777
  endloop
endfacet
facet normal -1.0 0.0 0.0
  outer loop
    vertex 2.4130000000000162 78.48599999999996 16.684624999999777
    vertex 2.4130000000000162 81.02599999999995 22.780624999999777
    vertex 2.4130000000000162 81.02599999999995 16.684624999999777
  endloop
endfacet
facet normal 0.0 0.0 -1.0
  outer loop
    vertex 2.4130000000000162 81.02599999999995 22.780624999999777
    vertex -0.7619999999999837 78.48599999999996 22.780624999999777
    vertex -0.7619999999999837 81.02599999999995 22.780624999999777
  endloop
endfacet
facet normal 0.0 0.0 -1.0
  outer loop
    vertex -0.7619999999999837 78.48599999999996 22.780624999999777
    vertex 2.4130000000000162 81.02599999999995 22.780624999999777
    vertex 2.4130000000000162 78.48599999999996 22.780624999999777
  endloop
endfacet
facet normal -0.0 -1.0 -0.0
  outer loop
    vertex 2.4130000000000162 81.02599999999995 22.780624999999777
    vertex -0.7619999999999837 81.02599999999995 16.684624999999777
    vertex 2.4130000000000162 81.02599999999995 16.684624999999777
  endloop
endfacet
facet normal -0.0 -1.0 -0.0
  outer loop
    vertex -0.7619999999999837 81.02599999999995 16.684624999999777
    vertex 2.4130000000000162 81.02599999999995 22.780624999999777
    vertex -0.7619999999999837 81.02599999999995 20.240624999999778
  endloop
endfacet
facet normal -0.0 -1.0 -0.0
  outer loop
    vertex -0.7619999999999837 81.02599999999995 20.240624999999778
    vertex 2.4130000000000162 81.02599999999995 22.780624999999777
    vertex -0.7619999999999837 81.02599999999995 22.780624999999777
  endloop
endfacet
facet normal 0.0 1.0 0.0
  outer loop
    vertex -0.7619999999999837 78.48599999999996 20.240624999999778
    vertex 2.4130000000000162 78.48599999999996 16.684624999999777
    vertex -0.7619999999999837 78.48599999999996 16.684624999999777
  endloop
endfacet
facet normal 0.0 1.0 0.0
  outer loop
    vertex 2.4130000000000162 78.48599999999996 16.684624999999777
    vertex -0.7619999999999837 78.48599999999996 20.240624999999778
    vertex 2.4130000000000162 78.48599999999996 22.780624999999777
  endloop
endfacet
facet normal 0.0 1.0 0.0
  outer loop
    vertex 2.4130000000000162 78.48599999999996 22.780624999999777
    vertex -0.7619999999999837 78.48599999999996 20.240624999999778
    vertex -0.7619999999999837 78.48599999999996 22.780624999999777
  endloop
endfacet
facet normal -1.0 0.0 0.0
  outer loop
    vertex -0.7619999999999837 81.02599999999995 22.780624999999777
    vertex -0.7619999999999837 78.48599999999996 20.240624999999778
    vertex -0.7619999999999837 78.48599999999996 22.780624999999777
  endloop
endfacet
facet normal -1.0 0.0 0.0
  outer loop
    vertex -0.7619999999999837 78.48599999999996 20.240624999999778
    vertex -0.7619999999999837 81.02599999999995 22.780624999999777
    vertex -0.7619999999999837 81.02599999999995 20.240624999999778
  endloop
endfacet
facet normal 0.0 0.0 -1.0
  outer loop
    vertex 2.4130000000000162 81.02599999999995 16.684624999999777
    vertex -0.7619999999999837 78.48599999999996 16.684624999999777
    vertex -0.7619999999999837 81.02599999999995 16.684624999999777
  endloop
endfacet
facet normal 0.0 0.0 -1.0
  outer loop
    vertex -0.7619999999999837 78.48599999999996 16.684624999999777
    vertex 2.4130000000000162 81.02599999999995 16.684624999999777
    vertex 2.4130000000000162 78.48599999999996 16.684624999999777
  endloop
endfacet
facet normal -1.0 0.0 0.0
  outer loop
    vertex -0.7619999999999837 81.02599999999995 20.240624999999778
    vertex -0.7619999999999837 78.48599999999996 16.684624999999777
    vertex -0.7619999999999837 78.48599999999996 20.240624999999778
  endloop
endfacet
facet normal -1.0 0.0 0.0
  outer loop
    vertex -0.7619999999999837 78.48599999999996 16.684624999999777
    vertex -0.7619999999999837 81.02599999999995 20.240624999999778
    vertex -0.7619999999999837 81.02599999999995 16.684624999999777
  endloop
endfacet
facet normal -1.0 0.0 0.0
  outer loop
    vertex 75.43800000000002 89.02699999999999 28.575
    vertex 75.43800000000002 75.56499999999998 22.860000000000003
    vertex 75.43800000000002 75.56499999999998 28.575
  endloop
endfacet
facet normal -1.0 0.0 0.0
  outer loop
    vertex 75.43800000000002 75.56499999999998 22.860000000000003
    vertex 75.43800000000002 89.02699999999999 28.575
    vertex 75.43800000000002 78.23766117591391 22.860000000000003
  endloop
endfacet
facet normal -1.0 0.0 0.0
  outer loop
    vertex 75.43800000000002 78.23766117591391 22.860000000000003
    vertex 75.43800000000002 89.02699999999999 28.575
    vertex 75.43800000000002 78.4352 22.860000000000003
  endloop
endfacet
facet normal -1.0 0.0 0.0
  outer loop
    vertex 75.43800000000002 78.4352 22.860000000000003
    vertex 75.43800000000002 89.02699999999999 28.575
    vertex 75.43800000000002 80.77766117591392 22.860000000000003
  endloop
endfacet
facet normal -1.0 0.0 0.0
  outer loop
    vertex 75.43800000000002 80.77766117591392 22.860000000000003
    vertex 75.43800000000002 89.02699999999999 28.575
    vertex 75.43800000000002 82.29599999999999 22.860000000000003
  endloop
endfacet
facet normal -1.0 0.0 0.0
  outer loop
    vertex 75.43800000000002 82.29599999999999 22.860000000000003
    vertex 75.43800000000002 89.02699999999999 28.575
    vertex 75.43800000000002 89.02699999999999 22.860000000000003
  endloop
endfacet
facet normal -1.0 -1.2820493316492616e-15 4.002382336250331e-15
  outer loop
    vertex 75.43800000000002 82.29599999999999 22.860000000000003
    vertex 75.43800000000002 80.77766117591392 20.320000000000004
    vertex 75.43800000000002 80.77766117591392 22.860000000000003
  endloop
endfacet
facet normal -1.0 -1.2820493316492616e-15 4.002382336250331e-15
  outer loop
    vertex 75.43800000000002 80.77766117591392 20.320000000000004
    vertex 75.43800000000002 82.29599999999999 22.860000000000003
    vertex 75.43799999999999 89.02699999999999 20.320000000000004
  endloop
endfacet
facet normal -1.0 -1.2820493316492616e-15 4.002382336250331e-15
  outer loop
    vertex 75.43799999999999 89.02699999999999 20.320000000000004
    vertex 75.43800000000002 82.29599999999999 22.860000000000003
    vertex 75.43800000000002 89.02699999999999 22.860000000000003
  endloop
endfacet
facet normal -1.0 0.0 0.0
  outer loop
    vertex 72.263 80.77766117591392 22.860000000000003
    vertex 72.263 78.4352 16.764000000000003
    vertex 72.263 78.4352 22.860000000000003
  endloop
endfacet
facet normal -1.0 0.0 0.0
  outer loop
    vertex 72.263 78.4352 16.764000000000003
    vertex 72.263 80.77766117591392 22.860000000000003
    vertex 72.263 80.77766117591392 16.764000000000003
  endloop
endfacet
facet normal 0.0 -1.0 0.0
  outer loop
    vertex 75.43800000000002 78.4352 20.320000000000004
    vertex 72.263 78.4352 16.764000000000003
    vertex 75.43800000000002 78.4352 16.764000000000003
  endloop
endfacet
facet normal 0.0 -1.0 0.0
  outer loop
    vertex 72.263 78.4352 16.764000000000003
    vertex 75.43800000000002 78.4352 20.320000000000004
    vertex 72.263 78.4352 22.860000000000003
  endloop
endfacet
facet normal 0.0 -1.0 0.0
  outer loop
    vertex 72.263 78.4352 22.860000000000003
    vertex 75.43800000000002 78.4352 20.320000000000004
    vertex 75.43800000000002 78.4352 22.860000000000003
  endloop
endfacet
facet normal 0.0 0.0 1.0
  outer loop
    vertex 75.43800000000002 78.4352 22.860000000000003
    vertex 72.263 80.77766117591392 22.860000000000003
    vertex 72.263 78.4352 22.860000000000003
  endloop
endfacet
facet normal 0.0 0.0 1.0
  outer loop
    vertex 72.263 80.77766117591392 22.860000000000003
    vertex 75.43800000000002 78.4352 22.860000000000003
    vertex 75.43800000000002 80.77766117591392 22.860000000000003
  endloop
endfacet
facet normal 0.0 1.0 0.0
  outer loop
    vertex 72.263 80.77766117591392 22.860000000000003
    vertex 75.43800000000002 80.77766117591392 16.764000000000003
    vertex 72.263 80.77766117591392 16.764000000000003
  endloop
endfacet
facet normal 0.0 1.0 0.0
  outer loop
    vertex 75.43800000000002 80.77766117591392 16.764000000000003
    vertex 72.263 80.77766117591392 22.860000000000003
    vertex 75.43800000000002 80.77766117591392 20.320000000000004
  endloop
endfacet
facet normal 0.0 1.0 0.0
  outer loop
    vertex 75.43800000000002 80.77766117591392 20.320000000000004
    vertex 72.263 80.77766117591392 22.860000000000003
    vertex 75.43800000000002 80.77766117591392 22.860000000000003
  endloop
endfacet
facet normal 0.0 0.0 -1.0
  outer loop
    vertex 89.408 89.02699999999999 20.320000000000004
    vertex 75.43800000000002 80.77766117591392 20.320000000000004
    vertex 75.43799999999999 89.02699999999999 20.320000000000004
  endloop
endfacet
facet normal 0.0 0.0 -1.0
  outer loop
    vertex 75.43800000000002 80.77766117591392 20.320000000000004
    vertex 89.408 89.02699999999999 20.320000000000004
    vertex 75.43800000000002 78.4352 20.320000000000004
  endloop
endfacet
facet normal 0.0 0.0 -1.0
  outer loop
    vertex 75.43800000000002 78.4352 20.320000000000004
    vertex 89.408 89.02699999999999 20.320000000000004
    vertex 75.43800000000002 75.56499999999998 20.320000000000004
  endloop
endfacet
facet normal 0.0 0.0 -1.0
  outer loop
    vertex 75.43800000000002 75.56499999999998 20.320000000000004
    vertex 89.408 89.02699999999999 20.320000000000004
    vertex 82.38315902062894 81.19284097937106 20.320000000000004
  endloop
endfacet
facet normal 0.0 0.0 -1.0
  outer loop
    vertex 75.43800000000002 75.56499999999998 20.320000000000004
    vertex 82.38315902062894 81.19284097937106 20.320000000000004
    vertex 82.06023637951003 80.77199999999999 20.320000000000004
  endloop
endfacet
facet normal 0.0 0.0 -1.0
  outer loop
    vertex 75.43800000000002 75.56499999999998 20.320000000000004
    vertex 82.06023637951003 80.77199999999999 20.320000000000004
    vertex 75.43800000000002 70.485 20.320000000000004
  endloop
endfacet
facet normal 0.0 0.0 -1.0
  outer loop
    vertex 75.43800000000002 70.485 20.320000000000004
    vertex 82.06023637951003 80.77199999999999 20.320000000000004
    vertex 81.85723872098062 80.2819202996483 20.320000000000004
  endloop
endfacet
facet normal 0.0 0.0 -1.0
  outer loop
    vertex 75.43800000000002 70.485 20.320000000000004
    vertex 81.85723872098062 80.2819202996483 20.320000000000004
    vertex 81.78799999999998 79.75599999999999 20.320000000000004
  endloop
endfacet
facet normal 0.0 0.0 -1.0
  outer loop
    vertex 82.38315902062894 81.19284097937106 20.320000000000004
    vertex 89.408 89.02699999999999 20.320000000000004
    vertex 82.80399999999999 81.51576362048998 20.320000000000004
  endloop
endfacet
facet normal 0.0 0.0 -1.0
  outer loop
    vertex 82.80399999999999 81.51576362048998 20.320000000000004
    vertex 89.408 89.02699999999999 20.320000000000004
    vertex 83.29407970035167 81.71876127901938 20.320000000000004
  endloop
endfacet
facet normal 0.0 0.0 -1.0
  outer loop
    vertex 83.29407970035167 81.71876127901938 20.320000000000004
    vertex 89.408 89.02699999999999 20.320000000000004
    vertex 83.82 81.78799999999998 20.320000000000004
  endloop
endfacet
facet normal 0.0 0.0 -1.0
  outer loop
    vertex 83.82 81.78799999999998 20.320000000000004
    vertex 89.408 89.02699999999999 20.320000000000004
    vertex 84.34592029964831 81.71876127901938 20.320000000000004
  endloop
endfacet
facet normal 0.0 0.0 -1.0
  outer loop
    vertex 84.34592029964831 81.71876127901938 20.320000000000004
    vertex 89.408 89.02699999999999 20.320000000000004
    vertex 84.836 81.51576362048998 20.320000000000004
  endloop
endfacet
facet normal 0.0 0.0 -1.0
  outer loop
    vertex 84.836 81.51576362048998 20.320000000000004
    vertex 89.408 89.02699999999999 20.320000000000004
    vertex 85.25684097937106 81.19284097937106 20.320000000000004
  endloop
endfacet
facet normal 0.0 0.0 -1.0
  outer loop
    vertex 85.25684097937106 81.19284097937106 20.320000000000004
    vertex 89.408 89.02699999999999 20.320000000000004
    vertex 85.57976362048998 80.77199999999999 20.320000000000004
  endloop
endfacet
facet normal 0.0 0.0 -1.0
  outer loop
    vertex 85.57976362048998 80.77199999999999 20.320000000000004
    vertex 89.408 89.02699999999999 20.320000000000004
    vertex 85.78276127901938 80.2819202996483 20.320000000000004
  endloop
endfacet
facet normal 0.0 0.0 -1.0
  outer loop
    vertex 85.78276127901938 80.2819202996483 20.320000000000004
    vertex 89.408 89.02699999999999 20.320000000000004
    vertex 85.85199999999999 79.75599999999999 20.320000000000004
  endloop
endfacet
facet normal 0.0 0.0 -1.0
  outer loop
    vertex 75.43800000000002 70.485 20.320000000000004
    vertex 82.38315902062894 78.31915902062893 20.320000000000004
    vertex 89.408 70.485 20.320000000000004
  endloop
endfacet
facet normal 0.0 0.0 -1.0
  outer loop
    vertex 82.38315902062894 78.31915902062893 20.320000000000004
    vertex 75.43800000000002 70.485 20.320000000000004
    vertex 82.06023637951003 78.74 20.320000000000004
  endloop
endfacet
facet normal 0.0 0.0 -1.0
  outer loop
    vertex 82.06023637951003 78.74 20.320000000000004
    vertex 75.43800000000002 70.485 20.320000000000004
    vertex 81.85723872098062 79.23007970035167 20.320000000000004
  endloop
endfacet
facet normal 0.0 0.0 -1.0
  outer loop
    vertex 81.85723872098062 79.23007970035167 20.320000000000004
    vertex 75.43800000000002 70.485 20.320000000000004
    vertex 81.78799999999998 79.75599999999999 20.320000000000004
  endloop
endfacet
facet normal 0.0 0.0 -1.0
  outer loop
    vertex 89.408 70.485 20.320000000000004
    vertex 82.38315902062894 78.31915902062893 20.320000000000004
    vertex 82.80399999999999 77.99623637951001 20.320000000000004
  endloop
endfacet
facet normal 0.0 0.0 -1.0
  outer loop
    vertex 89.408 70.485 20.320000000000004
    vertex 82.80399999999999 77.99623637951001 20.320000000000004
    vertex 83.29407970035167 77.79323872098061 20.320000000000004
  endloop
endfacet
facet normal 0.0 0.0 -1.0
  outer loop
    vertex 89.408 70.485 20.320000000000004
    vertex 83.29407970035167 77.79323872098061 20.320000000000004
    vertex 83.82 77.724 20.320000000000004
  endloop
endfacet
facet normal 0.0 0.0 -1.0
  outer loop
    vertex 89.408 70.485 20.320000000000004
    vertex 83.82 77.724 20.320000000000004
    vertex 84.34592029964831 77.79323872098061 20.320000000000004
  endloop
endfacet
facet normal 0.0 0.0 -1.0
  outer loop
    vertex 89.408 70.485 20.320000000000004
    vertex 84.34592029964831 77.79323872098061 20.320000000000004
    vertex 84.836 77.99623637951001 20.320000000000004
  endloop
endfacet
facet normal 0.0 0.0 -1.0
  outer loop
    vertex 89.408 70.485 20.320000000000004
    vertex 84.836 77.99623637951001 20.320000000000004
    vertex 85.25684097937106 78.31915902062893 20.320000000000004
  endloop
endfacet
facet normal 0.0 0.0 -1.0
  outer loop
    vertex 89.408 70.485 20.320000000000004
    vertex 85.25684097937106 78.31915902062893 20.320000000000004
    vertex 85.57976362048998 78.73999999999998 20.320000000000004
  endloop
endfacet
facet normal 0.0 0.0 -1.0
  outer loop
    vertex 89.408 70.485 20.320000000000004
    vertex 85.57976362048998 78.73999999999998 20.320000000000004
    vertex 85.78276127901938 79.23007970035167 20.320000000000004
  endloop
endfacet
facet normal 0.0 0.0 -1.0
  outer loop
    vertex 89.408 70.485 20.320000000000004
    vertex 85.78276127901938 79.23007970035167 20.320000000000004
    vertex 85.85199999999999 79.75599999999999 20.320000000000004
  endloop
endfacet
facet normal 0.0 0.0 -1.0
  outer loop
    vertex 89.408 70.485 20.320000000000004
    vertex 85.85199999999999 79.75599999999999 20.320000000000004
    vertex 89.408 89.02699999999999 20.320000000000004
  endloop
endfacet
facet normal -1.0 0.0 0.0
  outer loop
    vertex 75.43800000000002 80.77766117591392 22.860000000000003
    vertex 75.43800000000002 78.4352 20.320000000000004
    vertex 75.43800000000002 78.4352 22.860000000000003
  endloop
endfacet
facet normal -1.0 0.0 0.0
  outer loop
    vertex 75.43800000000002 78.4352 20.320000000000004
    vertex 75.43800000000002 80.77766117591392 22.860000000000003
    vertex 75.43800000000002 80.77766117591392 20.320000000000004
  endloop
endfacet
facet normal 0.0 0.0 -1.0
  outer loop
    vertex 75.43800000000002 80.77766117591392 16.764000000000003
    vertex 72.263 78.4352 16.764000000000003
    vertex 72.263 80.77766117591392 16.764000000000003
  endloop
endfacet
facet normal 0.0 0.0 -1.0
  outer loop
    vertex 72.263 78.4352 16.764000000000003
    vertex 75.43800000000002 80.77766117591392 16.764000000000003
    vertex 75.43800000000002 78.4352 16.764000000000003
  endloop
endfacet
facet normal 1.0 0.0 0.0
  outer loop
    vertex 75.43800000000002 80.77766117591392 16.764000000000003
    vertex 75.43800000000002 78.4352 20.320000000000004
    vertex 75.43800000000002 78.4352 16.764000000000003
  endloop
endfacet
facet normal 1.0 0.0 0.0
  outer loop
    vertex 75.43800000000002 78.4352 20.320000000000004
    vertex 75.43800000000002 80.77766117591392 16.764000000000003
    vertex 75.43800000000002 80.77766117591392 20.320000000000004
  endloop
endfacet
endsolid QTR8RC MODEL GOOD TOP
