solid QTR8RC MODEL GOOD TOP
facet normal 0.38268343236508995 -0.9238795325112867 0.0
  outer loop
    vertex 83.16707970035168 8.312761279019387 7.620000000000001
    vertex 82.67699999999999 8.109763620489979 5.08
    vertex 83.16707970035168 8.312761279019387 5.08
  endloop
endfacet
facet normal 0.38268343236508995 -0.9238795325112867 0.0
  outer loop
    vertex 82.67699999999999 8.109763620489979 5.08
    vertex 83.16707970035168 8.312761279019387 7.620000000000001
    vertex 82.67699999999999 8.109763620489979 7.620000000000001
  endloop
endfacet
facet normal -0.9914448613738089 -0.13052619222006415 -0.0
  outer loop
    vertex 85.65576127901939 6.875920299648323 7.620000000000001
    vertex 85.725 6.35 5.08
    vertex 85.725 6.35 7.620000000000001
  endloop
endfacet
facet normal -0.9914448613738089 -0.13052619222006415 -0.0
  outer loop
    vertex 85.725 6.35 5.08
    vertex 85.65576127901939 6.875920299648323 7.620000000000001
    vertex 85.65576127901939 6.875920299648323 5.08
  endloop
endfacet
facet normal -0.38268343236508995 -0.9238795325112867 -0.0
  outer loop
    vertex 84.70899999999999 8.109763620489979 7.620000000000001
    vertex 84.21892029964832 8.312761279019387 5.08
    vertex 84.70899999999999 8.109763620489979 5.08
  endloop
endfacet
facet normal -0.38268343236508995 -0.9238795325112867 -0.0
  outer loop
    vertex 84.21892029964832 8.312761279019387 5.08
    vertex 84.70899999999999 8.109763620489979 7.620000000000001
    vertex 84.21892029964832 8.312761279019387 7.620000000000001
  endloop
endfacet
facet normal 0.1305261922200514 -0.9914448613738105 0.0
  outer loop
    vertex 83.693 8.382 7.620000000000001
    vertex 83.16707970035168 8.312761279019387 5.08
    vertex 83.693 8.382 5.08
  endloop
endfacet
facet normal 0.1305261922200514 -0.9914448613738105 0.0
  outer loop
    vertex 83.16707970035168 8.312761279019387 5.08
    vertex 83.693 8.382 7.620000000000001
    vertex 83.16707970035168 8.312761279019387 7.620000000000001
  endloop
endfacet
facet normal -0.6087614290087255 -0.7933533402912316 -0.0
  outer loop
    vertex 85.12984097937107 7.786840979371065 7.620000000000001
    vertex 84.70899999999999 8.109763620489979 5.08
    vertex 85.12984097937107 7.786840979371065 5.08
  endloop
endfacet
facet normal -0.6087614290087255 -0.7933533402912316 -0.0
  outer loop
    vertex 84.70899999999999 8.109763620489979 5.08
    vertex 85.12984097937107 7.786840979371065 7.620000000000001
    vertex 84.70899999999999 8.109763620489979 7.620000000000001
  endloop
endfacet
facet normal 0.6087614290087255 -0.7933533402912316 0.0
  outer loop
    vertex 82.67699999999999 8.109763620489979 7.620000000000001
    vertex 82.25615902062894 7.786840979371065 5.08
    vertex 82.67699999999999 8.109763620489979 5.08
  endloop
endfacet
facet normal 0.6087614290087255 -0.7933533402912316 0.0
  outer loop
    vertex 82.25615902062894 7.786840979371065 5.08
    vertex 82.67699999999999 8.109763620489979 7.620000000000001
    vertex 82.25615902062894 7.786840979371065 7.620000000000001
  endloop
endfacet
facet normal -0.1305261922200514 -0.9914448613738105 -0.0
  outer loop
    vertex 84.21892029964832 8.312761279019387 7.620000000000001
    vertex 83.693 8.382 5.08
    vertex 84.21892029964832 8.312761279019387 5.08
  endloop
endfacet
facet normal -0.1305261922200514 -0.9914448613738105 -0.0
  outer loop
    vertex 83.693 8.382 5.08
    vertex 84.21892029964832 8.312761279019387 7.620000000000001
    vertex 83.693 8.382 7.620000000000001
  endloop
endfacet
facet normal -0.7933533402912328 -0.6087614290087237 -0.0
  outer loop
    vertex 85.12984097937107 7.786840979371065 7.620000000000001
    vertex 85.45276362048997 7.3660000000000005 5.08
    vertex 85.45276362048997 7.3660000000000005 7.620000000000001
  endloop
endfacet
facet normal -0.7933533402912328 -0.6087614290087237 -0.0
  outer loop
    vertex 85.45276362048997 7.3660000000000005 5.08
    vertex 85.12984097937107 7.786840979371065 7.620000000000001
    vertex 85.12984097937107 7.786840979371065 5.08
  endloop
endfacet
facet normal -0.9238795325112882 -0.38268343236508634 -0.0
  outer loop
    vertex 85.45276362048997 7.3660000000000005 7.620000000000001
    vertex 85.65576127901939 6.875920299648323 5.08
    vertex 85.65576127901939 6.875920299648323 7.620000000000001
  endloop
endfacet
facet normal -0.9238795325112882 -0.38268343236508634 -0.0
  outer loop
    vertex 85.65576127901939 6.875920299648323 5.08
    vertex 85.45276362048997 7.3660000000000005 7.620000000000001
    vertex 85.45276362048997 7.3660000000000005 5.08
  endloop
endfacet
facet normal 0.0 0.0 1.0
  outer loop
    vertex 75.43799999999999 -3.048 7.620000000000001
    vertex 81.93323637951003 5.3340000000000005 7.620000000000001
    vertex 75.43799999999999 15.748 7.620000000000001
  endloop
endfacet
facet normal 0.0 0.0 1.0
  outer loop
    vertex 81.93323637951003 5.3340000000000005 7.620000000000001
    vertex 75.43799999999999 -3.048 7.620000000000001
    vertex 82.25615902062894 4.913159020628934 7.620000000000001
  endloop
endfacet
facet normal 0.0 0.0 1.0
  outer loop
    vertex 82.25615902062894 4.913159020628934 7.620000000000001
    vertex 75.43799999999999 -3.048 7.620000000000001
    vertex 89.408 -3.048 7.620000000000001
  endloop
endfacet
facet normal 0.0 0.0 1.0
  outer loop
    vertex 75.43799999999999 15.748 7.620000000000001
    vertex 81.93323637951003 5.3340000000000005 7.620000000000001
    vertex 81.73023872098062 5.824079700351677 7.620000000000001
  endloop
endfacet
facet normal 0.0 0.0 1.0
  outer loop
    vertex 75.43799999999999 15.748 7.620000000000001
    vertex 81.73023872098062 5.824079700351677 7.620000000000001
    vertex 81.66099999999999 6.35 7.620000000000001
  endloop
endfacet
facet normal 0.0 0.0 1.0
  outer loop
    vertex 82.25615902062894 4.913159020628934 7.620000000000001
    vertex 89.408 -3.048 7.620000000000001
    vertex 82.67699999999999 4.590236379510021 7.620000000000001
  endloop
endfacet
facet normal 0.0 0.0 1.0
  outer loop
    vertex 82.67699999999999 4.590236379510021 7.620000000000001
    vertex 89.408 -3.048 7.620000000000001
    vertex 83.16707970035168 4.387238720980612 7.620000000000001
  endloop
endfacet
facet normal 0.0 0.0 1.0
  outer loop
    vertex 83.16707970035168 4.387238720980612 7.620000000000001
    vertex 89.408 -3.048 7.620000000000001
    vertex 83.693 4.318 7.620000000000001
  endloop
endfacet
facet normal 0.0 0.0 1.0
  outer loop
    vertex 83.693 4.318 7.620000000000001
    vertex 89.408 -3.048 7.620000000000001
    vertex 84.21892029964832 4.387238720980612 7.620000000000001
  endloop
endfacet
facet normal 0.0 0.0 1.0
  outer loop
    vertex 84.21892029964832 4.387238720980612 7.620000000000001
    vertex 89.408 -3.048 7.620000000000001
    vertex 84.70899999999999 4.590236379510021 7.620000000000001
  endloop
endfacet
facet normal 0.0 0.0 1.0
  outer loop
    vertex 84.70899999999999 4.590236379510021 7.620000000000001
    vertex 89.408 -3.048 7.620000000000001
    vertex 85.12984097937107 4.913159020628936 7.620000000000001
  endloop
endfacet
facet normal 0.0 0.0 1.0
  outer loop
    vertex 85.12984097937107 4.913159020628936 7.620000000000001
    vertex 89.408 -3.048 7.620000000000001
    vertex 85.45276362048997 5.334000000000001 7.620000000000001
  endloop
endfacet
facet normal 0.0 0.0 1.0
  outer loop
    vertex 85.45276362048997 5.334000000000001 7.620000000000001
    vertex 89.408 -3.048 7.620000000000001
    vertex 85.65576127901939 5.824079700351679 7.620000000000001
  endloop
endfacet
facet normal 0.0 0.0 1.0
  outer loop
    vertex 85.65576127901939 5.824079700351679 7.620000000000001
    vertex 89.408 -3.048 7.620000000000001
    vertex 85.725 6.35 7.620000000000001
  endloop
endfacet
facet normal 0.0 0.0 1.0
  outer loop
    vertex 75.43799999999999 15.748 7.620000000000001
    vertex 82.25615902062894 7.786840979371065 7.620000000000001
    vertex 89.408 15.748 7.620000000000001
  endloop
endfacet
facet normal 0.0 0.0 1.0
  outer loop
    vertex 82.25615902062894 7.786840979371065 7.620000000000001
    vertex 75.43799999999999 15.748 7.620000000000001
    vertex 81.93323637951003 7.365999999999999 7.620000000000001
  endloop
endfacet
facet normal 0.0 0.0 1.0
  outer loop
    vertex 81.93323637951003 7.365999999999999 7.620000000000001
    vertex 75.43799999999999 15.748 7.620000000000001
    vertex 81.73023872098062 6.875920299648322 7.620000000000001
  endloop
endfacet
facet normal 0.0 0.0 1.0
  outer loop
    vertex 81.73023872098062 6.875920299648322 7.620000000000001
    vertex 75.43799999999999 15.748 7.620000000000001
    vertex 81.66099999999999 6.35 7.620000000000001
  endloop
endfacet
facet normal 0.0 0.0 1.0
  outer loop
    vertex 89.408 15.748 7.620000000000001
    vertex 82.25615902062894 7.786840979371065 7.620000000000001
    vertex 82.67699999999999 8.109763620489979 7.620000000000001
  endloop
endfacet
facet normal 0.0 0.0 1.0
  outer loop
    vertex 89.408 15.748 7.620000000000001
    vertex 82.67699999999999 8.109763620489979 7.620000000000001
    vertex 83.16707970035168 8.312761279019387 7.620000000000001
  endloop
endfacet
facet normal 0.0 0.0 1.0
  outer loop
    vertex 89.408 15.748 7.620000000000001
    vertex 83.16707970035168 8.312761279019387 7.620000000000001
    vertex 83.693 8.382 7.620000000000001
  endloop
endfacet
facet normal 0.0 0.0 1.0
  outer loop
    vertex 89.408 15.748 7.620000000000001
    vertex 83.693 8.382 7.620000000000001
    vertex 84.21892029964832 8.312761279019387 7.620000000000001
  endloop
endfacet
facet normal 0.0 0.0 1.0
  outer loop
    vertex 89.408 15.748 7.620000000000001
    vertex 84.21892029964832 8.312761279019387 7.620000000000001
    vertex 84.70899999999999 8.109763620489979 7.620000000000001
  endloop
endfacet
facet normal 0.0 0.0 1.0
  outer loop
    vertex 89.408 15.748 7.620000000000001
    vertex 84.70899999999999 8.109763620489979 7.620000000000001
    vertex 85.12984097937107 7.786840979371065 7.620000000000001
  endloop
endfacet
facet normal 0.0 0.0 1.0
  outer loop
    vertex 89.408 15.748 7.620000000000001
    vertex 85.12984097937107 7.786840979371065 7.620000000000001
    vertex 85.45276362048997 7.3660000000000005 7.620000000000001
  endloop
endfacet
facet normal 0.0 0.0 1.0
  outer loop
    vertex 89.408 15.748 7.620000000000001
    vertex 85.45276362048997 7.3660000000000005 7.620000000000001
    vertex 85.65576127901939 6.875920299648323 7.620000000000001
  endloop
endfacet
facet normal 0.0 0.0 1.0
  outer loop
    vertex 89.408 15.748 7.620000000000001
    vertex 85.65576127901939 6.875920299648323 7.620000000000001
    vertex 85.725 6.35 7.620000000000001
  endloop
endfacet
facet normal 0.0 0.0 1.0
  outer loop
    vertex 89.408 15.748 7.620000000000001
    vertex 85.725 6.35 7.620000000000001
    vertex 89.408 -3.048 7.620000000000001
  endloop
endfacet
facet normal 0.9238795325112873 -0.3826834323650886 -4.129018804987259e-32
  outer loop
    vertex -10.52276362048998 7.365999999999998 5.08
    vertex -10.725761279019387 6.87592029964832 7.620000000000001
    vertex -10.725761279019387 6.87592029964832 5.08
  endloop
endfacet
facet normal 0.9238795325112873 -0.3826834323650886 -4.129018804987259e-32
  outer loop
    vertex -10.725761279019387 6.87592029964832 7.620000000000001
    vertex -10.52276362048998 7.365999999999998 5.08
    vertex -10.52276362048998 7.365999999999998 7.620000000000001
  endloop
endfacet
facet normal 0.793353340291236 -0.6087614290087194 -2.963413182723683e-32
  outer loop
    vertex -10.199840979371066 7.786840979371065 5.08
    vertex -10.52276362048998 7.365999999999998 7.620000000000001
    vertex -10.52276362048998 7.365999999999998 5.08
  endloop
endfacet
facet normal 0.793353340291236 -0.6087614290087194 -2.963413182723683e-32
  outer loop
    vertex -10.52276362048998 7.365999999999998 7.620000000000001
    vertex -10.199840979371066 7.786840979371065 5.08
    vertex -10.199840979371066 7.786840979371065 7.620000000000001
  endloop
endfacet
facet normal 0.6087614290087203 -0.7933533402912354 -1.595855849329313e-32
  outer loop
    vertex -9.779000000000002 8.109763620489979 7.620000000000001
    vertex -10.199840979371066 7.786840979371065 5.08
    vertex -9.779000000000002 8.109763620489979 5.08
  endloop
endfacet
facet normal 0.6087614290087203 -0.7933533402912354 -1.595855849329313e-32
  outer loop
    vertex -10.199840979371066 7.786840979371065 5.08
    vertex -9.779000000000002 8.109763620489979 7.620000000000001
    vertex -10.199840979371066 7.786840979371065 7.620000000000001
  endloop
endfacet
facet normal 0.13052619222005107 -0.9914448613738105 1.3649153923929e-32
  outer loop
    vertex -8.763 8.382 7.620000000000001
    vertex -9.288920299648323 8.312761279019387 5.08
    vertex -8.763 8.382 5.08
  endloop
endfacet
facet normal 0.13052619222005107 -0.9914448613738105 1.3649153923929e-32
  outer loop
    vertex -9.288920299648323 8.312761279019387 5.08
    vertex -8.763 8.382 7.620000000000001
    vertex -9.288920299648323 8.312761279019387 7.620000000000001
  endloop
endfacet
facet normal 0.38268343236509095 -0.9238795325112864 -1.1954357707965399e-33
  outer loop
    vertex -9.288920299648323 8.312761279019387 7.620000000000001
    vertex -9.779000000000002 8.109763620489979 5.08
    vertex -9.288920299648323 8.312761279019387 5.08
  endloop
endfacet
facet normal 0.38268343236509095 -0.9238795325112864 -1.1954357707965399e-33
  outer loop
    vertex -9.779000000000002 8.109763620489979 5.08
    vertex -9.288920299648323 8.312761279019387 7.620000000000001
    vertex -9.779000000000002 8.109763620489979 7.620000000000001
  endloop
endfacet
facet normal -1.0 0.0 5.330126534161428e-32
  outer loop
    vertex -14.478000000000002 15.748 7.620000000000001
    vertex -14.478000000000002 -3.048 5.08
    vertex -14.478000000000002 -3.048 7.620000000000001
  endloop
endfacet
facet normal -1.0 0.0 5.330126534161428e-32
  outer loop
    vertex -14.478000000000002 -3.048 5.08
    vertex -14.478000000000002 15.748 7.620000000000001
    vertex -14.478000000000002 15.748 5.08
  endloop
endfacet
facet normal 0.9914448613738105 0.13052619222005124 -5.555814506315939e-32
  outer loop
    vertex -10.795 6.35 5.08
    vertex -10.725761279019387 5.824079700351676 7.620000000000001
    vertex -10.725761279019387 5.824079700351676 5.08
  endloop
endfacet
facet normal 0.9914448613738105 0.13052619222005124 -5.555814506315939e-32
  outer loop
    vertex -10.725761279019387 5.824079700351676 7.620000000000001
    vertex -10.795 6.35 5.08
    vertex -10.795 6.35 7.620000000000001
  endloop
endfacet
facet normal 0.9914448613738105 -0.1305261922200516 -5.013238619217153e-32
  outer loop
    vertex -10.725761279019387 6.87592029964832 5.08
    vertex -10.795 6.35 7.620000000000001
    vertex -10.795 6.35 5.08
  endloop
endfacet
facet normal 0.9914448613738105 -0.1305261922200516 -5.013238619217153e-32
  outer loop
    vertex -10.795 6.35 7.620000000000001
    vertex -10.725761279019387 6.87592029964832 5.08
    vertex -10.725761279019387 6.87592029964832 7.620000000000001
  endloop
endfacet
facet normal -0.6087614290087203 0.7933533402912354 1.595855849329313e-32
  outer loop
    vertex -7.746999999999999 4.590236379510021 7.620000000000001
    vertex -7.3261590206289355 4.913159020628934 5.08
    vertex -7.746999999999999 4.590236379510021 5.08
  endloop
endfacet
facet normal -0.6087614290087203 0.7933533402912354 1.595855849329313e-32
  outer loop
    vertex -7.3261590206289355 4.913159020628934 5.08
    vertex -7.746999999999999 4.590236379510021 7.620000000000001
    vertex -7.3261590206289355 4.913159020628934 7.620000000000001
  endloop
endfacet
facet normal 0.13052619222005177 0.9914448613738105 -2.756357633503202e-32
  outer loop
    vertex -9.288920299648321 4.387238720980612 7.620000000000001
    vertex -8.763 4.318 5.08
    vertex -9.288920299648321 4.387238720980612 5.08
  endloop
endfacet
facet normal 0.13052619222005177 0.9914448613738105 -2.756357633503202e-32
  outer loop
    vertex -8.763 4.318 5.08
    vertex -9.288920299648321 4.387238720980612 7.620000000000001
    vertex -8.763 4.318 7.620000000000001
  endloop
endfacet
facet normal 0.0 0.0 1.0
  outer loop
    vertex -14.478000000000002 -3.048 7.620000000000001
    vertex -10.725761279019387 5.824079700351676 7.620000000000001
    vertex -14.478000000000002 15.748 7.620000000000001
  endloop
endfacet
facet normal 0.0 0.0 1.0
  outer loop
    vertex -10.725761279019387 5.824079700351676 7.620000000000001
    vertex -14.478000000000002 -3.048 7.620000000000001
    vertex -10.522763620489979 5.333999999999999 7.620000000000001
  endloop
endfacet
facet normal 0.0 0.0 1.0
  outer loop
    vertex -10.522763620489979 5.333999999999999 7.620000000000001
    vertex -14.478000000000002 -3.048 7.620000000000001
    vertex -10.199840979371064 4.913159020628934 7.620000000000001
  endloop
endfacet
facet normal 0.0 0.0 1.0
  outer loop
    vertex -10.199840979371064 4.913159020628934 7.620000000000001
    vertex -14.478000000000002 -3.048 7.620000000000001
    vertex -0.5080000000000005 -3.048 7.620000000000001
  endloop
endfacet
facet normal 0.0 0.0 1.0
  outer loop
    vertex -14.478000000000002 15.748 7.620000000000001
    vertex -10.725761279019387 5.824079700351676 7.620000000000001
    vertex -10.795 6.35 7.620000000000001
  endloop
endfacet
facet normal 0.0 0.0 1.0
  outer loop
    vertex -10.199840979371064 4.913159020628934 7.620000000000001
    vertex -0.5080000000000005 -3.048 7.620000000000001
    vertex -9.779 4.590236379510021 7.620000000000001
  endloop
endfacet
facet normal 0.0 0.0 1.0
  outer loop
    vertex -9.779 4.590236379510021 7.620000000000001
    vertex -0.5080000000000005 -3.048 7.620000000000001
    vertex -9.288920299648321 4.387238720980612 7.620000000000001
  endloop
endfacet
facet normal 0.0 0.0 1.0
  outer loop
    vertex -9.288920299648321 4.387238720980612 7.620000000000001
    vertex -0.5080000000000005 -3.048 7.620000000000001
    vertex -8.763 4.318 7.620000000000001
  endloop
endfacet
facet normal 0.0 0.0 1.0
  outer loop
    vertex -8.763 4.318 7.620000000000001
    vertex -0.5080000000000005 -3.048 7.620000000000001
    vertex -8.237079700351677 4.387238720980612 7.620000000000001
  endloop
endfacet
facet normal 0.0 0.0 1.0
  outer loop
    vertex -8.237079700351677 4.387238720980612 7.620000000000001
    vertex -0.5080000000000005 -3.048 7.620000000000001
    vertex -7.746999999999999 4.590236379510021 7.620000000000001
  endloop
endfacet
facet normal 0.0 0.0 1.0
  outer loop
    vertex -7.746999999999999 4.590236379510021 7.620000000000001
    vertex -0.5080000000000005 -3.048 7.620000000000001
    vertex -7.3261590206289355 4.913159020628934 7.620000000000001
  endloop
endfacet
facet normal 0.0 0.0 1.0
  outer loop
    vertex -7.3261590206289355 4.913159020628934 7.620000000000001
    vertex -0.5080000000000005 -3.048 7.620000000000001
    vertex -7.003236379510021 5.3340000000000005 7.620000000000001
  endloop
endfacet
facet normal 0.0 0.0 1.0
  outer loop
    vertex -7.003236379510021 5.3340000000000005 7.620000000000001
    vertex -0.5080000000000005 -3.048 7.620000000000001
    vertex -6.800238720980613 5.824079700351677 7.620000000000001
  endloop
endfacet
facet normal 0.0 0.0 1.0
  outer loop
    vertex -6.800238720980613 5.824079700351677 7.620000000000001
    vertex -0.5080000000000005 -3.048 7.620000000000001
    vertex -6.731 6.35 7.620000000000001
  endloop
endfacet
facet normal 0.0 0.0 1.0
  outer loop
    vertex -14.478000000000002 15.748 7.620000000000001
    vertex -10.199840979371066 7.786840979371065 7.620000000000001
    vertex -0.5080000000000005 15.748 7.620000000000001
  endloop
endfacet
facet normal 0.0 0.0 1.0
  outer loop
    vertex -10.199840979371066 7.786840979371065 7.620000000000001
    vertex -14.478000000000002 15.748 7.620000000000001
    vertex -10.52276362048998 7.365999999999998 7.620000000000001
  endloop
endfacet
facet normal 0.0 0.0 1.0
  outer loop
    vertex -10.52276362048998 7.365999999999998 7.620000000000001
    vertex -14.478000000000002 15.748 7.620000000000001
    vertex -10.725761279019387 6.87592029964832 7.620000000000001
  endloop
endfacet
facet normal 0.0 0.0 1.0
  outer loop
    vertex -10.725761279019387 6.87592029964832 7.620000000000001
    vertex -14.478000000000002 15.748 7.620000000000001
    vertex -10.795 6.35 7.620000000000001
  endloop
endfacet
facet normal 0.0 0.0 1.0
  outer loop
    vertex -0.5080000000000005 15.748 7.620000000000001
    vertex -10.199840979371066 7.786840979371065 7.620000000000001
    vertex -9.779000000000002 8.109763620489979 7.620000000000001
  endloop
endfacet
facet normal 0.0 0.0 1.0
  outer loop
    vertex -0.5080000000000005 15.748 7.620000000000001
    vertex -9.779000000000002 8.109763620489979 7.620000000000001
    vertex -9.288920299648323 8.312761279019387 7.620000000000001
  endloop
endfacet
facet normal 0.0 0.0 1.0
  outer loop
    vertex -0.5080000000000005 15.748 7.620000000000001
    vertex -9.288920299648323 8.312761279019387 7.620000000000001
    vertex -8.763 8.382 7.620000000000001
  endloop
endfacet
facet normal 0.0 0.0 1.0
  outer loop
    vertex -0.5080000000000005 15.748 7.620000000000001
    vertex -8.763 8.382 7.620000000000001
    vertex -8.237079700351678 8.312761279019387 7.620000000000001
  endloop
endfacet
facet normal 0.0 0.0 1.0
  outer loop
    vertex -0.5080000000000005 15.748 7.620000000000001
    vertex -8.237079700351678 8.312761279019387 7.620000000000001
    vertex -7.747000000000001 8.109763620489979 7.620000000000001
  endloop
endfacet
facet normal 0.0 0.0 1.0
  outer loop
    vertex -0.5080000000000005 15.748 7.620000000000001
    vertex -7.747000000000001 8.109763620489979 7.620000000000001
    vertex -7.3261590206289355 7.786840979371065 7.620000000000001
  endloop
endfacet
facet normal 0.0 0.0 1.0
  outer loop
    vertex -0.5080000000000005 15.748 7.620000000000001
    vertex -7.3261590206289355 7.786840979371065 7.620000000000001
    vertex -7.003236379510021 7.3660000000000005 7.620000000000001
  endloop
endfacet
facet normal 0.0 0.0 1.0
  outer loop
    vertex -0.5080000000000005 15.748 7.620000000000001
    vertex -7.003236379510021 7.3660000000000005 7.620000000000001
    vertex -6.800238720980613 6.875920299648322 7.620000000000001
  endloop
endfacet
facet normal 0.0 0.0 1.0
  outer loop
    vertex -0.5080000000000005 15.748 7.620000000000001
    vertex -6.800238720980613 6.875920299648322 7.620000000000001
    vertex -6.731 6.35 7.620000000000001
  endloop
endfacet
facet normal 0.0 0.0 1.0
  outer loop
    vertex -0.5080000000000005 15.748 7.620000000000001
    vertex -6.731 6.35 7.620000000000001
    vertex -0.5080000000000005 -3.048 7.620000000000001
  endloop
endfacet
facet normal -0.6087614290087191 -0.7933533402912365 4.8936950421375e-32
  outer loop
    vertex -7.3261590206289355 7.786840979371065 7.620000000000001
    vertex -7.747000000000001 8.109763620489979 5.08
    vertex -7.3261590206289355 7.786840979371065 5.08
  endloop
endfacet
facet normal -0.6087614290087191 -0.7933533402912365 4.8936950421375e-32
  outer loop
    vertex -7.747000000000001 8.109763620489979 5.08
    vertex -7.3261590206289355 7.786840979371065 7.620000000000001
    vertex -7.747000000000001 8.109763620489979 7.620000000000001
  endloop
endfacet
facet normal -0.9914448613738105 0.1305261922200514 5.013238619217153e-32
  outer loop
    vertex -6.731 6.35 7.620000000000001
    vertex -6.800238720980613 5.824079700351677 5.08
    vertex -6.800238720980613 5.824079700351677 7.620000000000001
  endloop
endfacet
facet normal -0.9914448613738105 0.1305261922200514 5.013238619217153e-32
  outer loop
    vertex -6.800238720980613 5.824079700351677 5.08
    vertex -6.731 6.35 7.620000000000001
    vertex -6.731 6.35 5.08
  endloop
endfacet
facet normal 0.3826834323650888 0.9238795325112872 -3.9599586569866186e-32
  outer loop
    vertex -9.779 4.590236379510021 7.620000000000001
    vertex -9.288920299648321 4.387238720980612 5.08
    vertex -9.779 4.590236379510021 5.08
  endloop
endfacet
facet normal 0.3826834323650888 0.9238795325112872 -3.9599586569866186e-32
  outer loop
    vertex -9.288920299648321 4.387238720980612 5.08
    vertex -9.779 4.590236379510021 7.620000000000001
    vertex -9.288920299648321 4.387238720980612 7.620000000000001
  endloop
endfacet
facet normal -0.13052619222005107 0.9914448613738105 -1.3649153923929e-32
  outer loop
    vertex -8.763 4.318 7.620000000000001
    vertex -8.237079700351677 4.387238720980612 5.08
    vertex -8.763 4.318 5.08
  endloop
endfacet
facet normal -0.13052619222005107 0.9914448613738105 -1.3649153923929e-32
  outer loop
    vertex -8.237079700351677 4.387238720980612 5.08
    vertex -8.763 4.318 7.620000000000001
    vertex -8.237079700351677 4.387238720980612 7.620000000000001
  endloop
endfacet
facet normal -0.7933533402912354 -0.6087614290087203 5.49393419738015e-32
  outer loop
    vertex -7.3261590206289355 7.786840979371065 7.620000000000001
    vertex -7.003236379510021 7.3660000000000005 5.08
    vertex -7.003236379510021 7.3660000000000005 7.620000000000001
  endloop
endfacet
facet normal -0.7933533402912354 -0.6087614290087203 5.49393419738015e-32
  outer loop
    vertex -7.003236379510021 7.3660000000000005 5.08
    vertex -7.3261590206289355 7.786840979371065 7.620000000000001
    vertex -7.3261590206289355 7.786840979371065 5.08
  endloop
endfacet
facet normal 0.7933533402912346 0.6087614290087213 -5.493934197380149e-32
  outer loop
    vertex -10.522763620489979 5.333999999999999 5.08
    vertex -10.199840979371064 4.913159020628934 7.620000000000001
    vertex -10.199840979371064 4.913159020628934 5.08
  endloop
endfacet
facet normal 0.7933533402912346 0.6087614290087213 -5.493934197380149e-32
  outer loop
    vertex -10.199840979371064 4.913159020628934 7.620000000000001
    vertex -10.522763620489979 5.333999999999999 5.08
    vertex -10.522763620489979 5.333999999999999 7.620000000000001
  endloop
endfacet
facet normal -0.1305261922200514 -0.9914448613738105 2.7563576335031997e-32
  outer loop
    vertex -8.237079700351678 8.312761279019387 7.620000000000001
    vertex -8.763 8.382 5.08
    vertex -8.237079700351678 8.312761279019387 5.08
  endloop
endfacet
facet normal -0.1305261922200514 -0.9914448613738105 2.7563576335031997e-32
  outer loop
    vertex -8.763 8.382 5.08
    vertex -8.237079700351678 8.312761279019387 7.620000000000001
    vertex -8.763 8.382 7.620000000000001
  endloop
endfacet
facet normal -0.7933533402912365 0.6087614290087191 2.963413182723686e-32
  outer loop
    vertex -7.003236379510021 5.3340000000000005 7.620000000000001
    vertex -7.3261590206289355 4.913159020628934 5.08
    vertex -7.3261590206289355 4.913159020628934 7.620000000000001
  endloop
endfacet
facet normal -0.7933533402912365 0.6087614290087191 2.963413182723686e-32
  outer loop
    vertex -7.3261590206289355 4.913159020628934 5.08
    vertex -7.003236379510021 5.3340000000000005 7.620000000000001
    vertex -7.003236379510021 5.3340000000000005 5.08
  endloop
endfacet
facet normal 0.9238795325112864 0.38268343236509095 -5.719770816226877e-32
  outer loop
    vertex -10.725761279019387 5.824079700351676 5.08
    vertex -10.522763620489979 5.333999999999999 7.620000000000001
    vertex -10.522763620489979 5.333999999999999 5.08
  endloop
endfacet
facet normal 0.9238795325112864 0.38268343236509095 -5.719770816226877e-32
  outer loop
    vertex -10.522763620489979 5.333999999999999 7.620000000000001
    vertex -10.725761279019387 5.824079700351676 5.08
    vertex -10.725761279019387 5.824079700351676 7.620000000000001
  endloop
endfacet
facet normal -0.9238795325112867 -0.38268343236508995 5.719770816226877e-32
  outer loop
    vertex -7.003236379510021 7.3660000000000005 7.620000000000001
    vertex -6.800238720980613 6.875920299648322 5.08
    vertex -6.800238720980613 6.875920299648322 7.620000000000001
  endloop
endfacet
facet normal -0.9238795325112867 -0.38268343236508995 5.719770816226877e-32
  outer loop
    vertex -6.800238720980613 6.875920299648322 5.08
    vertex -7.003236379510021 7.3660000000000005 7.620000000000001
    vertex -7.003236379510021 7.3660000000000005 5.08
  endloop
endfacet
facet normal 0.6087614290087203 0.7933533402912354 -4.8936950421375045e-32
  outer loop
    vertex -10.199840979371064 4.913159020628934 7.620000000000001
    vertex -9.779 4.590236379510021 5.08
    vertex -10.199840979371064 4.913159020628934 5.08
  endloop
endfacet
facet normal 0.6087614290087203 0.7933533402912354 -4.8936950421375045e-32
  outer loop
    vertex -9.779 4.590236379510021 5.08
    vertex -10.199840979371064 4.913159020628934 7.620000000000001
    vertex -9.779 4.590236379510021 7.620000000000001
  endloop
endfacet
facet normal -0.38268343236509095 0.9238795325112864 1.1954357707965399e-33
  outer loop
    vertex -8.237079700351677 4.387238720980612 7.620000000000001
    vertex -7.746999999999999 4.590236379510021 5.08
    vertex -8.237079700351677 4.387238720980612 5.08
  endloop
endfacet
facet normal -0.38268343236509095 0.9238795325112864 1.1954357707965399e-33
  outer loop
    vertex -7.746999999999999 4.590236379510021 5.08
    vertex -8.237079700351677 4.387238720980612 7.620000000000001
    vertex -7.746999999999999 4.590236379510021 7.620000000000001
  endloop
endfacet
facet normal 1.0 5.212976130854162e-18 2.312964634635742e-17
  outer loop
    vertex -0.5080000000000005 13.208 1.778
    vertex -0.5080000000000005 -0.5080000000000001 5.08
    vertex -0.5080000000000005 -0.5080000000000001 1.778
  endloop
endfacet
facet normal 1.0 5.212976130854162e-18 2.312964634635742e-17
  outer loop
    vertex -0.5080000000000005 -0.5080000000000001 5.08
    vertex -0.5080000000000005 -3.048 7.620000000000001
    vertex -0.5080000000000005 -3.048 5.08
  endloop
endfacet
facet normal 1.0 5.212976130854162e-18 2.312964634635742e-17
  outer loop
    vertex -0.5080000000000005 -3.048 7.620000000000001
    vertex -0.5080000000000005 -0.5080000000000001 5.08
    vertex -0.5080000000000005 15.748 7.620000000000001
  endloop
endfacet
facet normal 1.0 5.212976130854162e-18 2.312964634635742e-17
  outer loop
    vertex -0.5080000000000005 15.748 7.620000000000001
    vertex -0.5080000000000005 -0.5080000000000001 5.08
    vertex -0.5080000000000005 13.208 5.08
  endloop
endfacet
facet normal 1.0 5.212976130854162e-18 2.312964634635742e-17
  outer loop
    vertex -0.5080000000000005 13.208 5.08
    vertex -0.5080000000000005 -0.5080000000000001 5.08
    vertex -0.5080000000000005 13.208 1.778
  endloop
endfacet
facet normal 1.0 5.212976130854162e-18 2.312964634635742e-17
  outer loop
    vertex -0.5080000000000005 15.748 7.620000000000001
    vertex -0.5080000000000005 13.208 5.08
    vertex -0.5080000000000005 15.748 5.08
  endloop
endfacet
facet normal -0.38268343236509095 -0.9238795325112864 3.959958656986628e-32
  outer loop
    vertex -7.747000000000001 8.109763620489979 7.620000000000001
    vertex -8.237079700351678 8.312761279019387 5.08
    vertex -7.747000000000001 8.109763620489979 5.08
  endloop
endfacet
facet normal -0.38268343236509095 -0.9238795325112864 3.959958656986628e-32
  outer loop
    vertex -8.237079700351678 8.312761279019387 5.08
    vertex -7.747000000000001 8.109763620489979 7.620000000000001
    vertex -8.237079700351678 8.312761279019387 7.620000000000001
  endloop
endfacet
facet normal -0.9914448613738105 -0.1305261922200514 5.555814506315939e-32
  outer loop
    vertex -6.800238720980613 6.875920299648322 7.620000000000001
    vertex -6.731 6.35 5.08
    vertex -6.731 6.35 7.620000000000001
  endloop
endfacet
facet normal -0.9914448613738105 -0.1305261922200514 5.555814506315939e-32
  outer loop
    vertex -6.731 6.35 5.08
    vertex -6.800238720980613 6.875920299648322 7.620000000000001
    vertex -6.800238720980613 6.875920299648322 5.08
  endloop
endfacet
facet normal -0.9238795325112864 0.38268343236509095 4.1290188049872497e-32
  outer loop
    vertex -6.800238720980613 5.824079700351677 7.620000000000001
    vertex -7.003236379510021 5.3340000000000005 5.08
    vertex -7.003236379510021 5.3340000000000005 7.620000000000001
  endloop
endfacet
facet normal -0.9238795325112864 0.38268343236509095 4.1290188049872497e-32
  outer loop
    vertex -7.003236379510021 5.3340000000000005 5.08
    vertex -6.800238720980613 5.824079700351677 7.620000000000001
    vertex -6.800238720980613 5.824079700351677 5.08
  endloop
endfacet
facet normal -1.0 0.0 0.0
  outer loop
    vertex -3.0479999999999996 15.748 5.08
    vertex -3.0479999999999996 -3.048 -1.5875
    vertex -3.0479999999999996 -3.048 5.08
  endloop
endfacet
facet normal -1.0 0.0 0.0
  outer loop
    vertex -3.0479999999999996 -3.048 -1.5875
    vertex -3.0479999999999996 15.748 5.08
    vertex -3.0479999999999996 15.748 -1.5875
  endloop
endfacet
facet normal 0.0 0.0 1.0
  outer loop
    vertex 75.43799999999999 13.208 5.08
    vertex -0.5080000000000005 15.748 5.08
    vertex -0.5080000000000005 13.208 5.08
  endloop
endfacet
facet normal 0.0 0.0 1.0
  outer loop
    vertex -0.5080000000000005 15.748 5.08
    vertex 75.43799999999999 13.208 5.08
    vertex 75.43799999999999 15.748 5.08
  endloop
endfacet
facet normal 0.0 0.0 -1.0
  outer loop
    vertex -3.0479999999999996 15.748 -1.5875
    vertex -0.5080000000000005 13.208 -1.5875
    vertex -3.0479999999999996 -3.048 -1.5875
  endloop
endfacet
facet normal 0.0 0.0 -1.0
  outer loop
    vertex -0.5080000000000005 13.208 -1.5875
    vertex -3.0479999999999996 15.748 -1.5875
    vertex 77.97800000000001 15.748 -1.5875
  endloop
endfacet
facet normal 0.0 0.0 -1.0
  outer loop
    vertex -0.5080000000000005 13.208 -1.5875
    vertex 77.97800000000001 15.748 -1.5875
    vertex 75.43799999999999 13.208 -1.5875
  endloop
endfacet
facet normal 0.0 0.0 -1.0
  outer loop
    vertex 75.43799999999999 13.208 -1.5875
    vertex 77.97800000000001 15.748 -1.5875
    vertex 75.43799999999999 -0.5080000000000001 -1.5875
  endloop
endfacet
facet normal 0.0 0.0 -1.0
  outer loop
    vertex -3.0479999999999996 -3.048 -1.5875
    vertex -0.5080000000000005 -0.5080000000000001 -1.5875
    vertex 77.97800000000001 -3.048 -1.5875
  endloop
endfacet
facet normal 0.0 0.0 -1.0
  outer loop
    vertex -0.5080000000000005 -0.5080000000000001 -1.5875
    vertex -3.0479999999999996 -3.048 -1.5875
    vertex -0.5080000000000005 13.208 -1.5875
  endloop
endfacet
facet normal 0.0 0.0 -1.0
  outer loop
    vertex 77.97800000000001 -3.048 -1.5875
    vertex -0.5080000000000005 -0.5080000000000001 -1.5875
    vertex 75.43799999999999 -0.5080000000000001 -1.5875
  endloop
endfacet
facet normal 0.0 0.0 -1.0
  outer loop
    vertex 77.97800000000001 -3.048 -1.5875
    vertex 75.43799999999999 -0.5080000000000001 -1.5875
    vertex 77.97800000000001 15.748 -1.5875
  endloop
endfacet
facet normal 0.0 0.0 -1.0
  outer loop
    vertex 83.693 15.748 5.08
    vertex 77.97800000000001 -3.048 5.08
    vertex 77.97800000000001 15.748 5.08
  endloop
endfacet
facet normal 0.0 0.0 -1.0
  outer loop
    vertex 77.97800000000001 -3.048 5.08
    vertex 83.693 15.748 5.08
    vertex 81.73023872098062 6.875920299648322 5.08
  endloop
endfacet
facet normal 0.0 0.0 -1.0
  outer loop
    vertex 77.97800000000001 -3.048 5.08
    vertex 81.73023872098062 6.875920299648322 5.08
    vertex 81.66099999999999 6.35 5.08
  endloop
endfacet
facet normal 0.0 0.0 -1.0
  outer loop
    vertex 81.73023872098062 6.875920299648322 5.08
    vertex 83.693 15.748 5.08
    vertex 81.93323637951003 7.365999999999999 5.08
  endloop
endfacet
facet normal 0.0 0.0 -1.0
  outer loop
    vertex 81.93323637951003 7.365999999999999 5.08
    vertex 83.693 15.748 5.08
    vertex 82.25615902062894 7.786840979371065 5.08
  endloop
endfacet
facet normal 0.0 0.0 -1.0
  outer loop
    vertex 82.25615902062894 7.786840979371065 5.08
    vertex 83.693 15.748 5.08
    vertex 82.67699999999999 8.109763620489979 5.08
  endloop
endfacet
facet normal 0.0 0.0 -1.0
  outer loop
    vertex 82.67699999999999 8.109763620489979 5.08
    vertex 83.693 15.748 5.08
    vertex 83.16707970035168 8.312761279019387 5.08
  endloop
endfacet
facet normal 0.0 0.0 -1.0
  outer loop
    vertex 83.16707970035168 8.312761279019387 5.08
    vertex 83.693 15.748 5.08
    vertex 83.693 8.382 5.08
  endloop
endfacet
facet normal 0.0 0.0 -1.0
  outer loop
    vertex 83.693 8.382 5.08
    vertex 83.693 15.748 5.08
    vertex 89.408 15.748 5.08
  endloop
endfacet
facet normal 0.0 0.0 -1.0
  outer loop
    vertex 83.693 8.382 5.08
    vertex 89.408 15.748 5.08
    vertex 84.21892029964832 8.312761279019387 5.08
  endloop
endfacet
facet normal 0.0 0.0 -1.0
  outer loop
    vertex 84.21892029964832 8.312761279019387 5.08
    vertex 89.408 15.748 5.08
    vertex 84.70899999999999 8.109763620489979 5.08
  endloop
endfacet
facet normal 0.0 0.0 -1.0
  outer loop
    vertex 84.70899999999999 8.109763620489979 5.08
    vertex 89.408 15.748 5.08
    vertex 85.12984097937107 7.786840979371065 5.08
  endloop
endfacet
facet normal 0.0 0.0 -1.0
  outer loop
    vertex 85.12984097937107 7.786840979371065 5.08
    vertex 89.408 15.748 5.08
    vertex 85.45276362048997 7.3660000000000005 5.08
  endloop
endfacet
facet normal 0.0 0.0 -1.0
  outer loop
    vertex 85.45276362048997 7.3660000000000005 5.08
    vertex 89.408 15.748 5.08
    vertex 85.65576127901939 6.875920299648323 5.08
  endloop
endfacet
facet normal 0.0 0.0 -1.0
  outer loop
    vertex 85.65576127901939 6.875920299648323 5.08
    vertex 89.408 15.748 5.08
    vertex 85.725 6.35 5.08
  endloop
endfacet
facet normal 0.0 0.0 -1.0
  outer loop
    vertex 77.97800000000001 -3.048 5.08
    vertex 82.25615902062894 4.913159020628934 5.08
    vertex 89.408 -3.048 5.08
  endloop
endfacet
facet normal 0.0 0.0 -1.0
  outer loop
    vertex 82.25615902062894 4.913159020628934 5.08
    vertex 77.97800000000001 -3.048 5.08
    vertex 81.93323637951003 5.3340000000000005 5.08
  endloop
endfacet
facet normal 0.0 0.0 -1.0
  outer loop
    vertex 81.93323637951003 5.3340000000000005 5.08
    vertex 77.97800000000001 -3.048 5.08
    vertex 81.73023872098062 5.824079700351677 5.08
  endloop
endfacet
facet normal 0.0 0.0 -1.0
  outer loop
    vertex 81.73023872098062 5.824079700351677 5.08
    vertex 77.97800000000001 -3.048 5.08
    vertex 81.66099999999999 6.35 5.08
  endloop
endfacet
facet normal 0.0 0.0 -1.0
  outer loop
    vertex 89.408 -3.048 5.08
    vertex 82.25615902062894 4.913159020628934 5.08
    vertex 82.67699999999999 4.590236379510021 5.08
  endloop
endfacet
facet normal 0.0 0.0 -1.0
  outer loop
    vertex 89.408 -3.048 5.08
    vertex 82.67699999999999 4.590236379510021 5.08
    vertex 83.16707970035168 4.387238720980612 5.08
  endloop
endfacet
facet normal 0.0 0.0 -1.0
  outer loop
    vertex 89.408 -3.048 5.08
    vertex 83.16707970035168 4.387238720980612 5.08
    vertex 83.693 4.318 5.08
  endloop
endfacet
facet normal 0.0 0.0 -1.0
  outer loop
    vertex 89.408 -3.048 5.08
    vertex 83.693 4.318 5.08
    vertex 84.21892029964832 4.387238720980612 5.08
  endloop
endfacet
facet normal 0.0 0.0 -1.0
  outer loop
    vertex 89.408 -3.048 5.08
    vertex 84.21892029964832 4.387238720980612 5.08
    vertex 84.70899999999999 4.590236379510021 5.08
  endloop
endfacet
facet normal 0.0 0.0 -1.0
  outer loop
    vertex 89.408 -3.048 5.08
    vertex 84.70899999999999 4.590236379510021 5.08
    vertex 85.12984097937107 4.913159020628936 5.08
  endloop
endfacet
facet normal 0.0 0.0 -1.0
  outer loop
    vertex 89.408 -3.048 5.08
    vertex 85.12984097937107 4.913159020628936 5.08
    vertex 85.45276362048997 5.334000000000001 5.08
  endloop
endfacet
facet normal 0.0 0.0 -1.0
  outer loop
    vertex 89.408 -3.048 5.08
    vertex 85.45276362048997 5.334000000000001 5.08
    vertex 85.65576127901939 5.824079700351679 5.08
  endloop
endfacet
facet normal 0.0 0.0 -1.0
  outer loop
    vertex 89.408 -3.048 5.08
    vertex 85.65576127901939 5.824079700351679 5.08
    vertex 85.725 6.35 5.08
  endloop
endfacet
facet normal 0.0 0.0 -1.0
  outer loop
    vertex 89.408 -3.048 5.08
    vertex 85.725 6.35 5.08
    vertex 89.408 15.748 5.08
  endloop
endfacet
facet normal 0.9914448613738087 -0.13052619222006445 0.0
  outer loop
    vertex 81.73023872098062 6.875920299648322 5.08
    vertex 81.66099999999999 6.35 7.620000000000001
    vertex 81.66099999999999 6.35 5.08
  endloop
endfacet
facet normal 0.9914448613738087 -0.13052619222006445 0.0
  outer loop
    vertex 81.66099999999999 6.35 7.620000000000001
    vertex 81.73023872098062 6.875920299648322 5.08
    vertex 81.73023872098062 6.875920299648322 7.620000000000001
  endloop
endfacet
facet normal 0.9238795325112882 -0.38268343236508634 0.0
  outer loop
    vertex 81.93323637951003 7.365999999999999 5.08
    vertex 81.73023872098062 6.875920299648322 7.620000000000001
    vertex 81.73023872098062 6.875920299648322 5.08
  endloop
endfacet
facet normal 0.9238795325112882 -0.38268343236508634 0.0
  outer loop
    vertex 81.73023872098062 6.875920299648322 7.620000000000001
    vertex 81.93323637951003 7.365999999999999 5.08
    vertex 81.93323637951003 7.365999999999999 7.620000000000001
  endloop
endfacet
facet normal 0.7933533402912339 -0.6087614290087224 0.0
  outer loop
    vertex 82.25615902062894 7.786840979371065 5.08
    vertex 81.93323637951003 7.365999999999999 7.620000000000001
    vertex 81.93323637951003 7.365999999999999 5.08
  endloop
endfacet
facet normal 0.7933533402912339 -0.6087614290087224 0.0
  outer loop
    vertex 81.93323637951003 7.365999999999999 7.620000000000001
    vertex 82.25615902062894 7.786840979371065 5.08
    vertex 82.25615902062894 7.786840979371065 7.620000000000001
  endloop
endfacet
facet normal -0.7933533402912339 0.6087614290087224 0.0
  outer loop
    vertex 85.45276362048997 5.334000000000001 7.620000000000001
    vertex 85.12984097937107 4.913159020628936 5.08
    vertex 85.12984097937107 4.913159020628936 7.620000000000001
  endloop
endfacet
facet normal -0.7933533402912339 0.6087614290087224 0.0
  outer loop
    vertex 85.12984097937107 4.913159020628936 5.08
    vertex 85.45276362048997 5.334000000000001 7.620000000000001
    vertex 85.45276362048997 5.334000000000001 5.08
  endloop
endfacet
facet normal -0.1305261922200514 0.9914448613738105 0.0
  outer loop
    vertex 83.693 4.318 7.620000000000001
    vertex 84.21892029964832 4.387238720980612 5.08
    vertex 83.693 4.318 5.08
  endloop
endfacet
facet normal -0.1305261922200514 0.9914448613738105 0.0
  outer loop
    vertex 84.21892029964832 4.387238720980612 5.08
    vertex 83.693 4.318 7.620000000000001
    vertex 84.21892029964832 4.387238720980612 7.620000000000001
  endloop
endfacet
facet normal 0.7933533402912334 0.608761429008723 0.0
  outer loop
    vertex 81.93323637951003 5.3340000000000005 5.08
    vertex 82.25615902062894 4.913159020628934 7.620000000000001
    vertex 82.25615902062894 4.913159020628934 5.08
  endloop
endfacet
facet normal 0.7933533402912334 0.608761429008723 0.0
  outer loop
    vertex 82.25615902062894 4.913159020628934 7.620000000000001
    vertex 81.93323637951003 5.3340000000000005 5.08
    vertex 81.93323637951003 5.3340000000000005 7.620000000000001
  endloop
endfacet
facet normal 9.283272587971311e-35 -1.0 1.777787219946851e-32
  outer loop
    vertex 77.97800000000001 -3.048 5.08
    vertex -3.0479999999999996 -3.048 -1.5875
    vertex 77.97800000000001 -3.048 -1.5875
  endloop
endfacet
facet normal 9.283272587971311e-35 -1.0 1.777787219946851e-32
  outer loop
    vertex -3.0479999999999996 -3.048 -1.5875
    vertex 77.97800000000001 -3.048 5.08
    vertex -3.0479999999999996 -3.048 5.08
  endloop
endfacet
facet normal 9.283272587971311e-35 -1.0 1.777787219946851e-32
  outer loop
    vertex -3.0479999999999996 -3.048 5.08
    vertex 77.97800000000001 -3.048 5.08
    vertex 75.43799999999999 -3.048 5.08
  endloop
endfacet
facet normal 9.283272587971311e-35 -1.0 1.777787219946851e-32
  outer loop
    vertex -3.0479999999999996 -3.048 5.08
    vertex 75.43799999999999 -3.048 5.08
    vertex -0.5080000000000005 -3.048 5.08
  endloop
endfacet
facet normal 9.283272587971311e-35 -1.0 1.777787219946851e-32
  outer loop
    vertex -3.0479999999999996 -3.048 5.08
    vertex -0.5080000000000005 -3.048 5.08
    vertex -0.5080000000000005 -3.048 7.620000000000001
  endloop
endfacet
facet normal 9.283272587971311e-35 -1.0 1.777787219946851e-32
  outer loop
    vertex -3.0479999999999996 -3.048 5.08
    vertex -0.5080000000000005 -3.048 7.620000000000001
    vertex -14.478000000000002 -3.048 5.08
  endloop
endfacet
facet normal 9.283272587971311e-35 -1.0 1.777787219946851e-32
  outer loop
    vertex -14.478000000000002 -3.048 5.08
    vertex -0.5080000000000005 -3.048 7.620000000000001
    vertex -14.478000000000002 -3.048 7.620000000000001
  endloop
endfacet
facet normal 9.283272587971311e-35 -1.0 1.777787219946851e-32
  outer loop
    vertex 89.408 -3.048 7.620000000000001
    vertex 77.97800000000001 -3.048 5.08
    vertex 89.408 -3.048 5.08
  endloop
endfacet
facet normal 9.283272587971311e-35 -1.0 1.777787219946851e-32
  outer loop
    vertex 77.97800000000001 -3.048 5.08
    vertex 89.408 -3.048 7.620000000000001
    vertex 75.43799999999999 -3.048 5.08
  endloop
endfacet
facet normal 9.283272587971311e-35 -1.0 1.777787219946851e-32
  outer loop
    vertex 75.43799999999999 -3.048 5.08
    vertex 89.408 -3.048 7.620000000000001
    vertex 75.43799999999999 -3.048 7.620000000000001
  endloop
endfacet
facet normal -0.9238795325112882 0.38268343236508634 0.0
  outer loop
    vertex 85.65576127901939 5.824079700351679 7.620000000000001
    vertex 85.45276362048997 5.334000000000001 5.08
    vertex 85.45276362048997 5.334000000000001 7.620000000000001
  endloop
endfacet
facet normal -0.9238795325112882 0.38268343236508634 0.0
  outer loop
    vertex 85.45276362048997 5.334000000000001 5.08
    vertex 85.65576127901939 5.824079700351679 7.620000000000001
    vertex 85.65576127901939 5.824079700351679 5.08
  endloop
endfacet
facet normal 0.1305261922200514 0.9914448613738105 0.0
  outer loop
    vertex 83.16707970035168 4.387238720980612 7.620000000000001
    vertex 83.693 4.318 5.08
    vertex 83.16707970035168 4.387238720980612 5.08
  endloop
endfacet
facet normal 0.1305261922200514 0.9914448613738105 0.0
  outer loop
    vertex 83.693 4.318 5.08
    vertex 83.16707970035168 4.387238720980612 7.620000000000001
    vertex 83.693 4.318 7.620000000000001
  endloop
endfacet
facet normal 0.6087614290087255 0.7933533402912316 0.0
  outer loop
    vertex 82.25615902062894 4.913159020628934 7.620000000000001
    vertex 82.67699999999999 4.590236379510021 5.08
    vertex 82.25615902062894 4.913159020628934 5.08
  endloop
endfacet
facet normal 0.6087614290087255 0.7933533402912316 0.0
  outer loop
    vertex 82.67699999999999 4.590236379510021 5.08
    vertex 82.25615902062894 4.913159020628934 7.620000000000001
    vertex 82.67699999999999 4.590236379510021 7.620000000000001
  endloop
endfacet
facet normal 0.0 1.0 0.0
  outer loop
    vertex -3.0479999999999996 15.748 5.08
    vertex 77.97800000000001 15.748 -1.5875
    vertex -3.0479999999999996 15.748 -1.5875
  endloop
endfacet
facet normal 0.0 1.0 0.0
  outer loop
    vertex 77.97800000000001 15.748 -1.5875
    vertex -3.0479999999999996 15.748 5.08
    vertex 77.97800000000001 15.748 5.08
  endloop
endfacet
facet normal 0.0 1.0 0.0
  outer loop
    vertex 77.97800000000001 15.748 5.08
    vertex -3.0479999999999996 15.748 5.08
    vertex -0.5080000000000005 15.748 5.08
  endloop
endfacet
facet normal 0.0 1.0 0.0
  outer loop
    vertex 77.97800000000001 15.748 5.08
    vertex -0.5080000000000005 15.748 5.08
    vertex 75.43799999999999 15.748 5.08
  endloop
endfacet
facet normal 0.0 1.0 0.0
  outer loop
    vertex 77.97800000000001 15.748 5.08
    vertex 75.43799999999999 15.748 5.08
    vertex 75.43799999999999 15.748 7.620000000000001
  endloop
endfacet
facet normal 0.0 1.0 0.0
  outer loop
    vertex 77.97800000000001 15.748 5.08
    vertex 75.43799999999999 15.748 7.620000000000001
    vertex 83.693 15.748 5.08
  endloop
endfacet
facet normal 0.0 1.0 0.0
  outer loop
    vertex 83.693 15.748 5.08
    vertex 75.43799999999999 15.748 7.620000000000001
    vertex 89.408 15.748 5.08
  endloop
endfacet
facet normal 0.0 1.0 0.0
  outer loop
    vertex 89.408 15.748 5.08
    vertex 75.43799999999999 15.748 7.620000000000001
    vertex 89.408 15.748 7.620000000000001
  endloop
endfacet
facet normal 0.0 1.0 0.0
  outer loop
    vertex -14.478000000000002 15.748 7.620000000000001
    vertex -3.0479999999999996 15.748 5.08
    vertex -14.478000000000002 15.748 5.08
  endloop
endfacet
facet normal 0.0 1.0 0.0
  outer loop
    vertex -3.0479999999999996 15.748 5.08
    vertex -14.478000000000002 15.748 7.620000000000001
    vertex -0.5080000000000005 15.748 5.08
  endloop
endfacet
facet normal 0.0 1.0 0.0
  outer loop
    vertex -0.5080000000000005 15.748 5.08
    vertex -14.478000000000002 15.748 7.620000000000001
    vertex -0.5080000000000005 15.748 7.620000000000001
  endloop
endfacet
facet normal 0.9238795325112882 0.38268343236508634 0.0
  outer loop
    vertex 81.73023872098062 5.824079700351677 5.08
    vertex 81.93323637951003 5.3340000000000005 7.620000000000001
    vertex 81.93323637951003 5.3340000000000005 5.08
  endloop
endfacet
facet normal 0.9238795325112882 0.38268343236508634 0.0
  outer loop
    vertex 81.93323637951003 5.3340000000000005 7.620000000000001
    vertex 81.73023872098062 5.824079700351677 5.08
    vertex 81.73023872098062 5.824079700351677 7.620000000000001
  endloop
endfacet
facet normal 0.9914448613738089 0.1305261922200643 0.0
  outer loop
    vertex 81.66099999999999 6.35 5.08
    vertex 81.73023872098062 5.824079700351677 7.620000000000001
    vertex 81.73023872098062 5.824079700351677 5.08
  endloop
endfacet
facet normal 0.9914448613738089 0.1305261922200643 0.0
  outer loop
    vertex 81.73023872098062 5.824079700351677 7.620000000000001
    vertex 81.66099999999999 6.35 5.08
    vertex 81.66099999999999 6.35 7.620000000000001
  endloop
endfacet
facet normal -0.6087614290087263 0.793353340291231 0.0
  outer loop
    vertex 84.70899999999999 4.590236379510021 7.620000000000001
    vertex 85.12984097937107 4.913159020628936 5.08
    vertex 84.70899999999999 4.590236379510021 5.08
  endloop
endfacet
facet normal -0.6087614290087263 0.793353340291231 0.0
  outer loop
    vertex 85.12984097937107 4.913159020628936 5.08
    vertex 84.70899999999999 4.590236379510021 7.620000000000001
    vertex 85.12984097937107 4.913159020628936 7.620000000000001
  endloop
endfacet
facet normal 1.0 0.0 0.0
  outer loop
    vertex 89.408 15.748 5.08
    vertex 89.408 -3.048 7.620000000000001
    vertex 89.408 -3.048 5.08
  endloop
endfacet
facet normal 1.0 0.0 0.0
  outer loop
    vertex 89.408 -3.048 7.620000000000001
    vertex 89.408 15.748 5.08
    vertex 89.408 15.748 7.620000000000001
  endloop
endfacet
facet normal -0.9914448613738087 0.13052619222006465 0.0
  outer loop
    vertex 85.725 6.35 7.620000000000001
    vertex 85.65576127901939 5.824079700351679 5.08
    vertex 85.65576127901939 5.824079700351679 7.620000000000001
  endloop
endfacet
facet normal -0.9914448613738087 0.13052619222006465 0.0
  outer loop
    vertex 85.65576127901939 5.824079700351679 5.08
    vertex 85.725 6.35 7.620000000000001
    vertex 85.725 6.35 5.08
  endloop
endfacet
facet normal -0.38268343236508995 0.9238795325112867 0.0
  outer loop
    vertex 84.21892029964832 4.387238720980612 7.620000000000001
    vertex 84.70899999999999 4.590236379510021 5.08
    vertex 84.21892029964832 4.387238720980612 5.08
  endloop
endfacet
facet normal -0.38268343236508995 0.9238795325112867 0.0
  outer loop
    vertex 84.70899999999999 4.590236379510021 5.08
    vertex 84.21892029964832 4.387238720980612 7.620000000000001
    vertex 84.70899999999999 4.590236379510021 7.620000000000001
  endloop
endfacet
facet normal 0.38268343236508995 0.9238795325112867 0.0
  outer loop
    vertex 82.67699999999999 4.590236379510021 7.620000000000001
    vertex 83.16707970035168 4.387238720980612 5.08
    vertex 82.67699999999999 4.590236379510021 5.08
  endloop
endfacet
facet normal 0.38268343236508995 0.9238795325112867 0.0
  outer loop
    vertex 83.16707970035168 4.387238720980612 5.08
    vertex 82.67699999999999 4.590236379510021 7.620000000000001
    vertex 83.16707970035168 4.387238720980612 7.620000000000001
  endloop
endfacet
facet normal 0.0 1.0 0.0
  outer loop
    vertex -0.5080000000000005 -0.5080000000000001 5.08
    vertex 75.43799999999999 -0.5080000000000001 1.778
    vertex -0.5080000000000005 -0.5080000000000001 1.778
  endloop
endfacet
facet normal 0.0 1.0 0.0
  outer loop
    vertex 75.43799999999999 -0.5080000000000001 1.778
    vertex -0.5080000000000005 -0.5080000000000001 5.08
    vertex 75.43799999999999 -0.5080000000000001 5.08
  endloop
endfacet
facet normal -5.330126534161428e-32 -2.0784176641883008e-32 -1.0
  outer loop
    vertex -14.478000000000002 15.748 5.08
    vertex -10.725761279019387 6.87592029964832 5.08
    vertex -14.478000000000002 -3.048 5.08
  endloop
endfacet
facet normal -5.330126534161428e-32 -2.0784176641883008e-32 -1.0
  outer loop
    vertex -10.725761279019387 6.87592029964832 5.08
    vertex -14.478000000000002 15.748 5.08
    vertex -10.52276362048998 7.365999999999998 5.08
  endloop
endfacet
facet normal -5.330126534161428e-32 -2.0784176641883008e-32 -1.0
  outer loop
    vertex -10.52276362048998 7.365999999999998 5.08
    vertex -14.478000000000002 15.748 5.08
    vertex -10.199840979371066 7.786840979371065 5.08
  endloop
endfacet
facet normal -5.330126534161428e-32 -2.0784176641883008e-32 -1.0
  outer loop
    vertex -10.199840979371066 7.786840979371065 5.08
    vertex -14.478000000000002 15.748 5.08
    vertex -3.0479999999999996 15.748 5.08
  endloop
endfacet
facet normal -5.330126534161428e-32 -2.0784176641883008e-32 -1.0
  outer loop
    vertex -14.478000000000002 -3.048 5.08
    vertex -10.725761279019387 6.87592029964832 5.08
    vertex -10.795 6.35 5.08
  endloop
endfacet
facet normal -5.330126534161428e-32 -2.0784176641883008e-32 -1.0
  outer loop
    vertex -10.199840979371066 7.786840979371065 5.08
    vertex -3.0479999999999996 15.748 5.08
    vertex -9.779000000000002 8.109763620489979 5.08
  endloop
endfacet
facet normal -5.330126534161428e-32 -2.0784176641883008e-32 -1.0
  outer loop
    vertex -9.779000000000002 8.109763620489979 5.08
    vertex -3.0479999999999996 15.748 5.08
    vertex -9.288920299648323 8.312761279019387 5.08
  endloop
endfacet
facet normal -5.330126534161428e-32 -2.0784176641883008e-32 -1.0
  outer loop
    vertex -9.288920299648323 8.312761279019387 5.08
    vertex -3.0479999999999996 15.748 5.08
    vertex -8.763 8.382 5.08
  endloop
endfacet
facet normal -5.330126534161428e-32 -2.0784176641883008e-32 -1.0
  outer loop
    vertex -8.763 8.382 5.08
    vertex -3.0479999999999996 15.748 5.08
    vertex -8.237079700351678 8.312761279019387 5.08
  endloop
endfacet
facet normal -5.330126534161428e-32 -2.0784176641883008e-32 -1.0
  outer loop
    vertex -8.237079700351678 8.312761279019387 5.08
    vertex -3.0479999999999996 15.748 5.08
    vertex -7.747000000000001 8.109763620489979 5.08
  endloop
endfacet
facet normal -5.330126534161428e-32 -2.0784176641883008e-32 -1.0
  outer loop
    vertex -7.747000000000001 8.109763620489979 5.08
    vertex -3.0479999999999996 15.748 5.08
    vertex -7.3261590206289355 7.786840979371065 5.08
  endloop
endfacet
facet normal -5.330126534161428e-32 -2.0784176641883008e-32 -1.0
  outer loop
    vertex -7.3261590206289355 7.786840979371065 5.08
    vertex -3.0479999999999996 15.748 5.08
    vertex -7.003236379510021 7.3660000000000005 5.08
  endloop
endfacet
facet normal -5.330126534161428e-32 -2.0784176641883008e-32 -1.0
  outer loop
    vertex -7.003236379510021 7.3660000000000005 5.08
    vertex -3.0479999999999996 15.748 5.08
    vertex -6.800238720980613 6.875920299648322 5.08
  endloop
endfacet
facet normal -5.330126534161428e-32 -2.0784176641883008e-32 -1.0
  outer loop
    vertex -6.800238720980613 6.875920299648322 5.08
    vertex -3.0479999999999996 15.748 5.08
    vertex -6.731 6.35 5.08
  endloop
endfacet
facet normal -5.330126534161428e-32 -2.0784176641883008e-32 -1.0
  outer loop
    vertex -14.478000000000002 -3.048 5.08
    vertex -10.199840979371064 4.913159020628934 5.08
    vertex -3.0479999999999996 -3.048 5.08
  endloop
endfacet
facet normal -5.330126534161428e-32 -2.0784176641883008e-32 -1.0
  outer loop
    vertex -10.199840979371064 4.913159020628934 5.08
    vertex -14.478000000000002 -3.048 5.08
    vertex -10.522763620489979 5.333999999999999 5.08
  endloop
endfacet
facet normal -5.330126534161428e-32 -2.0784176641883008e-32 -1.0
  outer loop
    vertex -10.522763620489979 5.333999999999999 5.08
    vertex -14.478000000000002 -3.048 5.08
    vertex -10.725761279019387 5.824079700351676 5.08
  endloop
endfacet
facet normal -5.330126534161428e-32 -2.0784176641883008e-32 -1.0
  outer loop
    vertex -10.725761279019387 5.824079700351676 5.08
    vertex -14.478000000000002 -3.048 5.08
    vertex -10.795 6.35 5.08
  endloop
endfacet
facet normal -5.330126534161428e-32 -2.0784176641883008e-32 -1.0
  outer loop
    vertex -3.0479999999999996 -3.048 5.08
    vertex -10.199840979371064 4.913159020628934 5.08
    vertex -9.779 4.590236379510021 5.08
  endloop
endfacet
facet normal -5.330126534161428e-32 -2.0784176641883008e-32 -1.0
  outer loop
    vertex -3.0479999999999996 -3.048 5.08
    vertex -9.779 4.590236379510021 5.08
    vertex -9.288920299648321 4.387238720980612 5.08
  endloop
endfacet
facet normal -5.330126534161428e-32 -2.0784176641883008e-32 -1.0
  outer loop
    vertex -3.0479999999999996 -3.048 5.08
    vertex -9.288920299648321 4.387238720980612 5.08
    vertex -8.763 4.318 5.08
  endloop
endfacet
facet normal -5.330126534161428e-32 -2.0784176641883008e-32 -1.0
  outer loop
    vertex -3.0479999999999996 -3.048 5.08
    vertex -8.763 4.318 5.08
    vertex -8.237079700351677 4.387238720980612 5.08
  endloop
endfacet
facet normal -5.330126534161428e-32 -2.0784176641883008e-32 -1.0
  outer loop
    vertex -3.0479999999999996 -3.048 5.08
    vertex -8.237079700351677 4.387238720980612 5.08
    vertex -7.746999999999999 4.590236379510021 5.08
  endloop
endfacet
facet normal -5.330126534161428e-32 -2.0784176641883008e-32 -1.0
  outer loop
    vertex -3.0479999999999996 -3.048 5.08
    vertex -7.746999999999999 4.590236379510021 5.08
    vertex -7.3261590206289355 4.913159020628934 5.08
  endloop
endfacet
facet normal -5.330126534161428e-32 -2.0784176641883008e-32 -1.0
  outer loop
    vertex -3.0479999999999996 -3.048 5.08
    vertex -7.3261590206289355 4.913159020628934 5.08
    vertex -7.003236379510021 5.3340000000000005 5.08
  endloop
endfacet
facet normal -5.330126534161428e-32 -2.0784176641883008e-32 -1.0
  outer loop
    vertex -3.0479999999999996 -3.048 5.08
    vertex -7.003236379510021 5.3340000000000005 5.08
    vertex -6.800238720980613 5.824079700351677 5.08
  endloop
endfacet
facet normal -5.330126534161428e-32 -2.0784176641883008e-32 -1.0
  outer loop
    vertex -3.0479999999999996 -3.048 5.08
    vertex -6.800238720980613 5.824079700351677 5.08
    vertex -6.731 6.35 5.08
  endloop
endfacet
facet normal -5.330126534161428e-32 -2.0784176641883008e-32 -1.0
  outer loop
    vertex -3.0479999999999996 -3.048 5.08
    vertex -6.731 6.35 5.08
    vertex -3.0479999999999996 15.748 5.08
  endloop
endfacet
facet normal 0.0 0.0 1.0
  outer loop
    vertex 75.43799999999999 -3.048 5.08
    vertex -0.5080000000000005 -0.5080000000000001 5.08
    vertex -0.5080000000000005 -3.048 5.08
  endloop
endfacet
facet normal 0.0 0.0 1.0
  outer loop
    vertex -0.5080000000000005 -0.5080000000000001 5.08
    vertex 75.43799999999999 -3.048 5.08
    vertex 75.43799999999999 -0.5080000000000001 5.08
  endloop
endfacet
facet normal -1.0 0.0 0.0
  outer loop
    vertex 75.43799999999999 13.208 1.778
    vertex 75.43799999999999 -0.5080000000000001 1.778
    vertex 75.43799999999999 13.208 5.08
  endloop
endfacet
facet normal -1.0 0.0 0.0
  outer loop
    vertex 75.43799999999999 15.748 7.620000000000001
    vertex 75.43799999999999 -3.048 5.08
    vertex 75.43799999999999 -3.048 7.620000000000001
  endloop
endfacet
facet normal -1.0 0.0 0.0
  outer loop
    vertex 75.43799999999999 -3.048 5.08
    vertex 75.43799999999999 15.748 7.620000000000001
    vertex 75.43799999999999 -0.5080000000000001 5.08
  endloop
endfacet
facet normal -1.0 0.0 0.0
  outer loop
    vertex 75.43799999999999 -0.5080000000000001 5.08
    vertex 75.43799999999999 15.748 7.620000000000001
    vertex 75.43799999999999 -0.5080000000000001 1.778
  endloop
endfacet
facet normal -1.0 0.0 0.0
  outer loop
    vertex 75.43799999999999 -0.5080000000000001 1.778
    vertex 75.43799999999999 15.748 7.620000000000001
    vertex 75.43799999999999 13.208 5.08
  endloop
endfacet
facet normal -1.0 0.0 0.0
  outer loop
    vertex 75.43799999999999 13.208 5.08
    vertex 75.43799999999999 15.748 7.620000000000001
    vertex 75.43799999999999 15.748 5.08
  endloop
endfacet
facet normal 0.0 -1.0 0.0
  outer loop
    vertex 75.43799999999999 13.208 5.08
    vertex -0.5080000000000005 13.208 1.778
    vertex 75.43799999999999 13.208 1.778
  endloop
endfacet
facet normal 0.0 -1.0 0.0
  outer loop
    vertex -0.5080000000000005 13.208 1.778
    vertex 75.43799999999999 13.208 5.08
    vertex -0.5080000000000005 13.208 5.08
  endloop
endfacet
facet normal 1.0 0.0 0.0
  outer loop
    vertex 77.97800000000001 15.748 -1.5875
    vertex 77.97800000000001 -3.048 5.08
    vertex 77.97800000000001 -3.048 -1.5875
  endloop
endfacet
facet normal 1.0 0.0 0.0
  outer loop
    vertex 77.97800000000001 -3.048 5.08
    vertex 77.97800000000001 15.748 -1.5875
    vertex 77.97800000000001 15.748 5.08
  endloop
endfacet
facet normal 1.0 0.0 0.0
  outer loop
    vertex -0.5080000000000005 13.208 -1.5875
    vertex -0.5080000000000005 -0.5080000000000001 0.0
    vertex -0.5080000000000005 -0.5080000000000001 -1.5875
  endloop
endfacet
facet normal 1.0 0.0 0.0
  outer loop
    vertex -0.5080000000000005 -0.5080000000000001 0.0
    vertex -0.5080000000000005 13.208 -1.5875
    vertex -0.5080000000000005 -0.5080000000000001 1.778
  endloop
endfacet
facet normal 1.0 0.0 0.0
  outer loop
    vertex -0.5080000000000005 -0.5080000000000001 1.778
    vertex -0.5080000000000005 13.208 -1.5875
    vertex -0.5080000000000005 13.208 1.778
  endloop
endfacet
facet normal 0.0 -1.0 0.0
  outer loop
    vertex 75.43799999999999 13.208 1.778
    vertex -0.5080000000000005 13.208 -1.5875
    vertex 75.43799999999999 13.208 -1.5875
  endloop
endfacet
facet normal 0.0 -1.0 0.0
  outer loop
    vertex -0.5080000000000005 13.208 -1.5875
    vertex 75.43799999999999 13.208 1.778
    vertex -0.5080000000000005 13.208 1.778
  endloop
endfacet
facet normal -1.0 0.0 0.0
  outer loop
    vertex 75.43799999999999 13.208 1.778
    vertex 75.43799999999999 -0.5080000000000001 0.0
    vertex 75.43799999999999 -0.5080000000000001 1.778
  endloop
endfacet
facet normal -1.0 0.0 0.0
  outer loop
    vertex 75.43799999999999 -0.5080000000000001 0.0
    vertex 75.43799999999999 13.208 1.778
    vertex 75.43799999999999 -0.5080000000000001 -1.5875
  endloop
endfacet
facet normal -1.0 0.0 0.0
  outer loop
    vertex 75.43799999999999 -0.5080000000000001 -1.5875
    vertex 75.43799999999999 13.208 1.778
    vertex 75.43799999999999 13.208 -1.5875
  endloop
endfacet
facet normal 0.0 1.0 0.0
  outer loop
    vertex -0.5080000000000005 -0.5080000000000001 1.778
    vertex 75.43799999999999 -0.5080000000000001 0.0
    vertex -0.5080000000000005 -0.5080000000000001 0.0
  endloop
endfacet
facet normal 0.0 1.0 0.0
  outer loop
    vertex 75.43799999999999 -0.5080000000000001 0.0
    vertex -0.5080000000000005 -0.5080000000000001 1.778
    vertex 75.43799999999999 -0.5080000000000001 1.778
  endloop
endfacet
facet normal 0.0 1.0 0.0
  outer loop
    vertex -0.5080000000000005 -0.5080000000000001 0.0
    vertex 75.43799999999999 -0.5080000000000001 -1.5875
    vertex -0.5080000000000005 -0.5080000000000001 -1.5875
  endloop
endfacet
facet normal 0.0 1.0 0.0
  outer loop
    vertex 75.43799999999999 -0.5080000000000001 -1.5875
    vertex -0.5080000000000005 -0.5080000000000001 0.0
    vertex 75.43799999999999 -0.5080000000000001 0.0
  endloop
endfacet
facet normal 0.0 0.0 1.0
  outer loop
    vertex 67.818 -0.5080000000000001 1.778
    vertex 65.27799999999998 13.208 1.778
    vertex 65.27799999999998 -0.5080000000000001 1.778
  endloop
endfacet
facet normal 0.0 0.0 1.0
  outer loop
    vertex 65.27799999999998 13.208 1.778
    vertex 67.818 -0.5080000000000001 1.778
    vertex 67.818 13.208 1.778
  endloop
endfacet
facet normal 1.0 0.0 0.0
  outer loop
    vertex 67.818 13.208 0.0
    vertex 67.818 -0.5080000000000001 1.778
    vertex 67.818 -0.5080000000000001 0.0
  endloop
endfacet
facet normal 1.0 0.0 0.0
  outer loop
    vertex 67.818 -0.5080000000000001 1.778
    vertex 67.818 13.208 0.0
    vertex 67.818 13.208 1.778
  endloop
endfacet
facet normal 0.0 1.0 0.0
  outer loop
    vertex 65.27799999999998 13.208 1.778
    vertex 67.818 13.208 0.0
    vertex 65.27799999999998 13.208 0.0
  endloop
endfacet
facet normal 0.0 1.0 0.0
  outer loop
    vertex 67.818 13.208 0.0
    vertex 65.27799999999998 13.208 1.778
    vertex 67.818 13.208 1.778
  endloop
endfacet
facet normal -1.0 0.0 0.0
  outer loop
    vertex 65.27799999999998 13.208 1.778
    vertex 65.27799999999998 -0.5080000000000001 0.0
    vertex 65.27799999999998 -0.5080000000000001 1.778
  endloop
endfacet
facet normal -1.0 0.0 0.0
  outer loop
    vertex 65.27799999999998 -0.5080000000000001 0.0
    vertex 65.27799999999998 13.208 1.778
    vertex 65.27799999999998 13.208 0.0
  endloop
endfacet
facet normal 0.0 0.0 -1.0
  outer loop
    vertex 67.818 13.208 0.0
    vertex 65.27799999999998 -0.5080000000000001 0.0
    vertex 65.27799999999998 13.208 0.0
  endloop
endfacet
facet normal 0.0 0.0 -1.0
  outer loop
    vertex 65.27799999999998 -0.5080000000000001 0.0
    vertex 67.818 13.208 0.0
    vertex 67.818 -0.5080000000000001 0.0
  endloop
endfacet
facet normal 0.0 -1.0 0.0
  outer loop
    vertex 67.818 -0.5080000000000001 1.778
    vertex 65.27799999999998 -0.5080000000000001 0.0
    vertex 67.818 -0.5080000000000001 0.0
  endloop
endfacet
facet normal 0.0 -1.0 0.0
  outer loop
    vertex 65.27799999999998 -0.5080000000000001 0.0
    vertex 67.818 -0.5080000000000001 1.778
    vertex 65.27799999999998 -0.5080000000000001 1.778
  endloop
endfacet
facet normal 0.0 0.0 -1.0
  outer loop
    vertex 38.73499999999999 13.208 0.0
    vertex 36.19499999999999 -0.5080000000000001 0.0
    vertex 36.19499999999999 13.208 0.0
  endloop
endfacet
facet normal 0.0 0.0 -1.0
  outer loop
    vertex 36.19499999999999 -0.5080000000000001 0.0
    vertex 38.73499999999999 13.208 0.0
    vertex 38.73499999999999 -0.5080000000000001 0.0
  endloop
endfacet
facet normal 0.0 0.0 1.0
  outer loop
    vertex 38.73499999999999 -0.5080000000000001 1.778
    vertex 36.19499999999999 13.208 1.778
    vertex 36.19499999999999 -0.5080000000000001 1.778
  endloop
endfacet
facet normal 0.0 0.0 1.0
  outer loop
    vertex 36.19499999999999 13.208 1.778
    vertex 38.73499999999999 -0.5080000000000001 1.778
    vertex 38.73499999999999 13.208 1.778
  endloop
endfacet
facet normal 0.0 1.0 0.0
  outer loop
    vertex 36.19499999999999 13.208 1.778
    vertex 38.73499999999999 13.208 0.0
    vertex 36.19499999999999 13.208 0.0
  endloop
endfacet
facet normal 0.0 1.0 0.0
  outer loop
    vertex 38.73499999999999 13.208 0.0
    vertex 36.19499999999999 13.208 1.778
    vertex 38.73499999999999 13.208 1.778
  endloop
endfacet
facet normal 0.0 -1.0 0.0
  outer loop
    vertex 8.381999999999998 -0.5080000000000001 1.778
    vertex 7.112 -0.5080000000000001 0.0
    vertex 8.381999999999998 -0.5080000000000001 0.0
  endloop
endfacet
facet normal 0.0 -1.0 0.0
  outer loop
    vertex 7.112 -0.5080000000000001 0.0
    vertex 8.381999999999998 -0.5080000000000001 1.778
    vertex 7.112 -0.5080000000000001 1.778
  endloop
endfacet
facet normal 0.0 0.0 -1.0
  outer loop
    vertex 9.652 13.208 0.0
    vertex 7.112 -0.5080000000000001 0.0
    vertex 7.112 13.208 0.0
  endloop
endfacet
facet normal 0.0 0.0 -1.0
  outer loop
    vertex 7.112 -0.5080000000000001 0.0
    vertex 9.652 13.208 0.0
    vertex 8.381999999999998 -0.5080000000000001 0.0
  endloop
endfacet
facet normal 0.0 0.0 -1.0
  outer loop
    vertex 8.381999999999998 -0.5080000000000001 0.0
    vertex 9.652 13.208 0.0
    vertex 9.652 -0.5080000000000001 0.0
  endloop
endfacet
facet normal 1.0 0.0 0.0
  outer loop
    vertex 9.652 13.208 0.0
    vertex 9.652 -0.5080000000000001 1.778
    vertex 9.652 -0.5080000000000001 0.0
  endloop
endfacet
facet normal 1.0 0.0 0.0
  outer loop
    vertex 9.652 -0.5080000000000001 1.778
    vertex 9.652 13.208 0.0
    vertex 9.652 13.208 1.778
  endloop
endfacet
facet normal 1.0 0.0 0.0
  outer loop
    vertex 38.73499999999999 13.208 0.0
    vertex 38.73499999999999 -0.5080000000000001 1.778
    vertex 38.73499999999999 -0.5080000000000001 0.0
  endloop
endfacet
facet normal 1.0 0.0 0.0
  outer loop
    vertex 38.73499999999999 -0.5080000000000001 1.778
    vertex 38.73499999999999 13.208 0.0
    vertex 38.73499999999999 13.208 1.778
  endloop
endfacet
facet normal -0.0 -1.0 -0.0
  outer loop
    vertex 9.652 -0.5080000000000001 1.778
    vertex 8.381999999999998 -0.5080000000000001 0.0
    vertex 9.652 -0.5080000000000001 0.0
  endloop
endfacet
facet normal -0.0 -1.0 -0.0
  outer loop
    vertex 8.381999999999998 -0.5080000000000001 0.0
    vertex 9.652 -0.5080000000000001 1.778
    vertex 8.381999999999998 -0.5080000000000001 1.778
  endloop
endfacet
facet normal -1.0 0.0 0.0
  outer loop
    vertex 36.19499999999999 13.208 1.778
    vertex 36.19499999999999 -0.5080000000000001 0.0
    vertex 36.19499999999999 -0.5080000000000001 1.778
  endloop
endfacet
facet normal -1.0 0.0 0.0
  outer loop
    vertex 36.19499999999999 -0.5080000000000001 0.0
    vertex 36.19499999999999 13.208 1.778
    vertex 36.19499999999999 13.208 0.0
  endloop
endfacet
facet normal 0.0 0.0 1.0
  outer loop
    vertex 8.381999999999998 -0.5080000000000001 1.778
    vertex 7.112 13.208 1.778
    vertex 7.112 -0.5080000000000001 1.778
  endloop
endfacet
facet normal 0.0 0.0 1.0
  outer loop
    vertex 7.112 13.208 1.778
    vertex 8.381999999999998 -0.5080000000000001 1.778
    vertex 9.652 13.208 1.778
  endloop
endfacet
facet normal 0.0 0.0 1.0
  outer loop
    vertex 9.652 13.208 1.778
    vertex 8.381999999999998 -0.5080000000000001 1.778
    vertex 9.652 -0.5080000000000001 1.778
  endloop
endfacet
facet normal -0.0 -1.0 -0.0
  outer loop
    vertex 38.73499999999999 -0.5080000000000001 1.778
    vertex 36.19499999999999 -0.5080000000000001 0.0
    vertex 38.73499999999999 -0.5080000000000001 0.0
  endloop
endfacet
facet normal -0.0 -1.0 -0.0
  outer loop
    vertex 36.19499999999999 -0.5080000000000001 0.0
    vertex 38.73499999999999 -0.5080000000000001 1.778
    vertex 36.19499999999999 -0.5080000000000001 1.778
  endloop
endfacet
facet normal 0.0 1.0 0.0
  outer loop
    vertex 7.112 13.208 1.778
    vertex 9.652 13.208 0.0
    vertex 7.112 13.208 0.0
  endloop
endfacet
facet normal 0.0 1.0 0.0
  outer loop
    vertex 9.652 13.208 0.0
    vertex 7.112 13.208 1.778
    vertex 9.652 13.208 1.778
  endloop
endfacet
facet normal -1.0 0.0 0.0
  outer loop
    vertex 7.112 13.208 1.778
    vertex 7.112 -0.5080000000000001 0.0
    vertex 7.112 -0.5080000000000001 1.778
  endloop
endfacet
facet normal -1.0 0.0 0.0
  outer loop
    vertex 7.112 -0.5080000000000001 0.0
    vertex 7.112 13.208 1.778
    vertex 7.112 13.208 0.0
  endloop
endfacet
endsolid QTR8RC MODEL GOOD TOP
